SplineFontDB: 3.0
FontName: HM_FTXsf_Bold
FullName: HM_FTXsf_Bold
FamilyName: HM_FTXsf_Bold
Weight: Bold
Copyright: Copyright (c) Hossein, 2013. All rights reserved.
Version: 0.1
ItalicAngle: 0
UnderlinePosition: -540
UnderlineWidth: 60
Ascent: 1638
Descent: 410
sfntRevision: 0x00010000
LayerCount: 2
Layer: 0 1 "Back"  1
Layer: 1 1 "Fore"  0
XUID: [1021 102 1371595031 6992056]
FSType: 0
OS2Version: 2
OS2_WeightWidthSlopeOnly: 0
OS2_UseTypoMetrics: 1
CreationTime: 1194658560
ModificationTime: 1360912980
PfmFamily: 17
TTFWeight: 400
TTFWidth: 5
LineGap: 0
VLineGap: 0
Panose: 2 0 5 3 8 0 0 2 0 3
OS2TypoAscent: 2100
OS2TypoAOffset: 0
OS2TypoDescent: -1000
OS2TypoDOffset: 0
OS2TypoLinegap: 0
OS2WinAscent: 2100
OS2WinAOffset: 0
OS2WinDescent: 1000
OS2WinDOffset: 0
HheadAscent: 2100
HheadAOffset: 0
HheadDescent: -1000
HheadDOffset: 0
OS2SubXSize: 1434
OS2SubYSize: 1331
OS2SubXOff: 0
OS2SubYOff: 293
OS2SupXSize: 1434
OS2SupYSize: 1331
OS2SupXOff: 0
OS2SupYOff: 928
OS2StrikeYSize: 102
OS2StrikeYPos: 512
OS2Vendor: 'pars'
OS2CodePages: 20000051.41000000
OS2UnicodeRanges: 00002003.80000000.00000008.00000000
Lookup: 4 0 1 "gsub_ligature_dfl_liga_arab_FAR_Lookup_01"  {"gsub_ligature_dfl_liga_arab_FAR_Lookup_01_Subtable_01"  } ['liga' ('arab' <'FAR ' > ) ]
Lookup: 4 0 1 "gsub_ligature_dfl_liga_arab_FAR_Lookup_02"  {"gsub_ligature_dfl_liga_arab_FAR_Lookup_02_Subtable_01"  } ['liga' ('arab' <'FAR ' > ) ]
Lookup: 3 0 0 "gsub_alternate_dfl_aalt_arab_FAR_Lookup_01"  {"gsub_alternate_dfl_aalt_arab_FAR_Lookup_01_Subtable_01"  } ['aalt' ('arab' <'FAR ' > ) ]
Lookup: 1 1 0 "gsub_single_rtl_fina_arab_FAR_Lookup_01"  {"gsub_single_rtl_fina_arab_FAR_Lookup_01_Subtable_01"  } ['fina' ('arab' <'FAR ' > ) ]
Lookup: 1 1 0 "gsub_single_rtl_init_arab_FAR_Lookup_01"  {"gsub_single_rtl_init_arab_FAR_Lookup_01_Subtable_01"  } ['init' ('arab' <'FAR ' > ) ]
Lookup: 1 1 0 "gsub_single_rtl_medi_arab_FAR_Lookup_01"  {"gsub_single_rtl_medi_arab_FAR_Lookup_01_Subtable_01"  } ['medi' ('arab' <'FAR ' > ) ]

StartChar: .notdef
Encoding: 65536 -1 0
Width: 1122
GlyphClass: 2
Flags: W
LayerCount: 2
Fore
SplineSet
624 299 m 0,0,1
 624 269 624 269 602 246.5 c 128,-1,2
 580 224 580 224 548 224 c 0,3,4
 518 224 518 224 496.5 246.5 c 128,-1,5
 475 269 475 269 475 299 c 0,6,7
 475 331 475 331 496.5 352.5 c 128,-1,8
 518 374 518 374 551 374 c 0,9,10
 581 374 581 374 602.5 352.5 c 128,-1,11
 624 331 624 331 624 299 c 0,0,1
732 780 m 0,12,13
 732 737 732 737 708.5 710 c 128,-1,14
 685 683 685 683 648 683 c 0,15,16
 616 683 616 683 597 701.5 c 128,-1,17
 578 720 578 720 578 749 c 0,18,19
 578 770 578 770 588 785 c 128,-1,20
 598 800 598 800 610.5 810.5 c 128,-1,21
 623 821 623 821 633 829 c 128,-1,22
 643 837 643 837 643 843 c 0,23,24
 643 863 643 863 623.5 875 c 128,-1,25
 604 887 604 887 574 887 c 0,26,27
 536 887 536 887 512 866 c 128,-1,28
 488 845 488 845 488 813 c 0,29,30
 488 795 488 795 498.5 769 c 128,-1,31
 509 743 509 743 521.5 718 c 128,-1,32
 534 693 534 693 545.5 673 c 128,-1,33
 557 653 557 653 559 648 c 0,34,35
 570 619 570 619 576.5 583.5 c 128,-1,36
 583 548 583 548 583 513 c 0,37,38
 583 492 583 492 581.5 470.5 c 128,-1,39
 580 449 580 449 578 424 c 1,40,-1
 539 424 l 1,41,-1
 539 442 l 1,42,-1
 543 472 l 1,43,44
 543 505 543 505 498 544 c 0,45,46
 425 609 425 609 416 620 c 0,47,48
 371 673 371 673 371 740 c 0,49,50
 371 781 371 781 386 815.5 c 128,-1,51
 401 850 401 850 426.5 875.5 c 128,-1,52
 452 901 452 901 486.5 915 c 128,-1,53
 521 929 521 929 560 929 c 0,54,55
 595 929 595 929 626.5 918.5 c 128,-1,56
 658 908 658 908 681.5 888.5 c 128,-1,57
 705 869 705 869 718.5 841.5 c 128,-1,58
 732 814 732 814 732 780 c 0,12,13
132 31 m 1,59,-1
 992 31 l 1,60,-1
 992 1122 l 1,61,-1
 132 1122 l 1,62,-1
 132 31 l 1,59,-1
100 0 m 1,63,-1
 100 1154 l 1,64,-1
 1022 1154 l 1,65,-1
 1022 0 l 1,66,-1
 100 0 l 1,63,-1
EndSplineSet
EndChar

StartChar: exclam
Encoding: 33 33 4
Width: 561
VWidth: 1750
GlyphClass: 2
Flags: W
LayerCount: 2
Fore
SplineSet
211.774414062 1359.75 m 0,0,1
 282.092773438 1369.25292969 282.092773438 1369.25292969 331.345703125 1317.90429688 c 0,2,3
 357.2265625 1289.05761719 357.2265625 1289.05761719 360.524414062 1254.75 c 0,2,3
 363.611328125 1215.65429688 363.611328125 1215.65429688 344.923828125 1081.19042969 c 0,4,5
 342.612304688 1064.15332031 342.612304688 1064.15332031 341.274414062 1051.75 c 0,4,5
 335.30859375 992.090820312 335.30859375 992.090820312 321.46484375 872.08984375 c 0,6,7
 302.786132812 709.768554688 302.786132812 709.768554688 295.774414062 630 c 0,6,7
 287.899414062 538.125 287.899414062 538.125 274.774414062 446.25 c 1,8,9
 270.693359375 401.35546875 270.693359375 401.35546875 264.153320312 394.528320312 c 0,10,11
 257.93359375 389.89453125 257.93359375 389.89453125 252.024414062 388.5 c 0,10,11
 209.5859375 384.274414062 209.5859375 384.274414062 196.024414062 395.5 c 1,12,13
 190.35546875 403.373046875 190.35546875 403.373046875 185.524414062 455 c 0,14,15
 183.774414062 478.625 183.774414062 478.625 177.649414062 525.875 c 0,16,17
 171.543945312 573.708007812 171.543945312 573.708007812 169.774414062 596.75 c 0,16,17
 157.237304688 747.807617188 157.237304688 747.807617188 106.774414062 1170.75 c 0,18,19
 98.9228515625 1236.78515625 98.9228515625 1236.78515625 101.524414062 1260 c 1,20,21
 114.747070312 1328.31835938 114.747070312 1328.31835938 187.296875 1353.50878906 c 0,22,23
 200.19140625 1357.67480469 200.19140625 1357.67480469 211.774414062 1359.75 c 0,0,1
218.774414062 259 m 0,22,23
 243.705078125 261 243.705078125 261 264.274414062 253.75 c 1,24,25
 337.111328125 236.127929688 337.111328125 236.127929688 355.411132812 161.126953125 c 0,26,27
 374.555664062 82.66015625 374.555664062 82.66015625 316.768554688 32.08203125 c 0,28,29
 307.594726562 24.5302734375 307.594726562 24.5302734375 299.274414062 19.25 c 0,26,27
 277.829101562 5.8759765625 277.829101562 5.8759765625 246.774414062 0 c 1,28,29
 165.022460938 -10.0791015625 165.022460938 -10.0791015625 121.606445312 62.859375 c 0,30,31
 78.9912109375 134.450195312 78.9912109375 134.450195312 120.427734375 199.188476562 c 0,32,33
 134.146484375 218.931640625 134.146484375 218.931640625 152.274414062 232.75 c 0,30,31
 178.504882812 252.915039062 178.504882812 252.915039062 218.774414062 259 c 0,22,23
EndSplineSet
EndChar

StartChar: numbersign
Encoding: 35 35 6
Width: 1372
VWidth: 1750
GlyphClass: 2
Flags: W
LayerCount: 2
Fore
SplineSet
367.044921875 829.5 m 1,0,-1
 367.044921875 1036 l 1,1,2
 367.044921875 1139.25 l 1,3,4
 371.258789062 1181.38671875 371.258789062 1181.38671875 411.833984375 1192.16015625 c 0,5,6
 425.083007812 1194.94824219 425.083007812 1194.94824219 437.044921875 1193.5 c 1,5,6
 485.029296875 1177.26367188 485.029296875 1177.26367188 486.044921875 1104.25 c 2,7,-1
 486.044921875 829.5 l 1,8,-1
 886.794921875 829.5 l 1,9,-1
 886.794921875 1104.25 l 2,10,11
 886.794921875 1177.46484375 886.794921875 1177.46484375 923.168945312 1190.42089844 c 0,12,13
 930.060546875 1192.50390625 930.060546875 1192.50390625 935.794921875 1193.5 c 0,12,13
 981.557617188 1200.36425781 981.557617188 1200.36425781 1000.53125 1158.8359375 c 0,14,15
 1004.5859375 1148.5625 1004.5859375 1148.5625 1005.79492188 1139.25 c 1,14,15
 1009.29492188 1139.25 1009.29492188 1139.25 1007.54492188 1086.75 c 2,16,-1
 1005.79492188 1034.25 l 1,16,-1
 1005.79492188 829.5 l 1,17,-1
 1214.04492188 829.5 l 1,18,19
 1317.29492188 829.5 l 1,20,21
 1358.484375 825.380859375 1358.484375 825.380859375 1368.72851562 783.97265625 c 0,22,23
 1371.2578125 770.93359375 1371.2578125 770.93359375 1369.79492188 759.5 c 0,22,23
 1358.23925781 710.92578125 1358.23925781 710.92578125 1280.54492188 710.5 c 2,24,-1
 1005.79492188 710.5 l 1,25,-1
 1005.79492188 309.75 l 1,26,-1
 1280.54492188 309.75 l 2,27,28
 1353.75976562 309.75 1353.75976562 309.75 1366.71582031 273.375976562 c 0,29,30
 1368.78515625 267.568359375 1368.78515625 267.568359375 1369.79492188 260.75 c 0,29,30
 1376.65917969 214.987304688 1376.65917969 214.987304688 1335.13085938 196.013671875 c 0,31,32
 1324.85742188 191.958984375 1324.85742188 191.958984375 1315.54492188 190.75 c 0,31,32
 1310.58691406 190.409179688 1310.58691406 190.409179688 1212.29492188 190.75 c 2,33,-1
 1005.79492188 190.75 l 1,34,-1
 1005.79492188 -15.75 l 1,35,36
 1005.79492188 -119 l 1,37,38
 1001.48144531 -159.98046875 1001.48144531 -159.98046875 962.028320312 -171.280273438 c 0,39,40
 950.891601562 -174.470703125 950.891601562 -174.470703125 939.294921875 -173.25 c 0,39,40
 887.485351562 -163.05859375 887.485351562 -163.05859375 886.794921875 -85.75 c 2,41,-1
 886.794921875 190.75 l 1,42,-1
 486.044921875 190.75 l 1,43,-1
 486.044921875 -85.75 l 2,44,45
 486.044921875 -163.921875 486.044921875 -163.921875 439.208984375 -172.438476562 c 0,46,47
 435.51953125 -172.994140625 435.51953125 -172.994140625 433.544921875 -173.25 c 0,46,47
 390.965820312 -177.732421875 390.965820312 -177.732421875 372.533203125 -138.657226562 c 0,48,49
 368.313476562 -128.325195312 368.313476562 -128.325195312 367.044921875 -119 c 0,48,49
 366.704101562 -114.041992188 366.704101562 -114.041992188 367.044921875 -15.75 c 2,50,-1
 367.044921875 190.75 l 1,51,-1
 160.544921875 190.75 l 1,52,53
 57.294921875 190.75 l 1,54,55
 15.158203125 194.963867188 15.158203125 194.963867188 4.384765625 235.5390625 c 0,56,57
 1.5966796875 248.788085938 1.5966796875 248.788085938 3.044921875 260.75 c 1,56,57
 19.28125 308.734375 19.28125 308.734375 92.294921875 309.75 c 2,58,-1
 367.044921875 309.75 l 1,59,-1
 367.044921875 710.5 l 1,60,-1
 92.294921875 710.5 l 2,61,62
 15.7861328125 710.5 15.7861328125 710.5 4.669921875 751.625 c 0,63,64
 3.5888671875 756.368164062 3.5888671875 756.368164062 3.044921875 759.5 c 0,63,64
 -3.7802734375 802.724609375 -3.7802734375 802.724609375 33.9599609375 822.958007812 c 0,65,66
 45.0634765625 828.112304688 45.0634765625 828.112304688 55.544921875 829.5 c 1,65,66
 55.544921875 833 55.544921875 833 108.044921875 831.25 c 2,67,-1
 160.544921875 829.5 l 1,67,-1
 367.044921875 829.5 l 1,0,-1
886.794921875 710.5 m 1,68,-1
 486.044921875 710.5 l 1,69,-1
 486.044921875 309.75 l 1,70,-1
 886.794921875 309.75 l 1,71,-1
 886.794921875 710.5 l 1,68,-1
EndSplineSet
EndChar

StartChar: percent
Encoding: 37 37 8
Width: 1027
VWidth: 1750
GlyphClass: 2
Flags: W
LayerCount: 2
Fore
SplineSet
807.788085938 1359.75 m 0,0,1
 853.142578125 1367.30859375 853.142578125 1367.30859375 873.452148438 1326.47460938 c 0,2,3
 881.333007812 1308.30761719 881.333007812 1308.30761719 879.538085938 1289.75 c 0,2,3
 876.353515625 1275.00292969 876.353515625 1275.00292969 848.038085938 1216.25 c 0,4,5
 837.538085938 1193.5 837.538085938 1193.5 817.413085938 1147.125 c 0,6,7
 797.000976562 1100.1953125 797.000976562 1100.1953125 786.788085938 1078 c 0,6,7
 556.83203125 546.614257812 556.83203125 546.614257812 389.538085938 182 c 0,8,9
 377.1015625 154.016601562 377.1015625 154.016601562 351.721679688 97.466796875 c 0,10,11
 305.11328125 -6.4404296875 305.11328125 -6.4404296875 282.788085938 -57.75 c 1,10,11
 258.244140625 -120.862304688 258.244140625 -120.862304688 233.2578125 -132.142578125 c 0,12,13
 224.275390625 -135.532226562 224.275390625 -135.532226562 216.288085938 -136.5 c 0,12,13
 172.33984375 -140.321289062 172.33984375 -140.321289062 154.713867188 -101.5 c 0,14,15
 147.31640625 -82.3193359375 147.31640625 -82.3193359375 151.538085938 -63 c 0,14,15
 154.018554688 -48.9443359375 154.018554688 -48.9443359375 184.341796875 14.1767578125 c 0,16,17
 186.840820312 19.517578125 186.840820312 19.517578125 188.288085938 22.75 c 0,16,17
 198.788085938 47.25 198.788085938 47.25 220.663085938 97.125 c 0,18,19
 242.765625 147.556640625 242.765625 147.556640625 253.038085938 171.5 c 0,18,19
 318.64453125 316.169921875 318.64453125 316.169921875 445.736328125 606.140625 c 0,20,21
 583.176757812 919.653320312 583.176757812 919.653320312 653.788085938 1074.5 c 0,20,21
 717.006835938 1215.08300781 717.006835938 1215.08300781 746.538085938 1284.5 c 1,22,23
 771.654296875 1337.87109375 771.654296875 1337.87109375 782.506835938 1347.40429688 c 0,24,25
 794.756835938 1356.75976562 794.756835938 1356.75976562 807.788085938 1359.75 c 0,0,1
239.038085938 1223.25 m 0,24,25
 322.674804688 1235.19824219 322.674804688 1235.19824219 365.51171875 1160.86523438 c 0,26,27
 406.314453125 1090.06347656 406.314453125 1090.06347656 366.731445312 1025.42089844 c 0,28,29
 350.359375 1000.92578125 350.359375 1000.92578125 326.538085938 985.25 c 0,26,27
 307.905273438 972.299804688 307.905273438 972.299804688 277.538085938 966 c 0,28,29
 197.924804688 953.560546875 197.924804688 953.560546875 150.653320312 1021.57617188 c 0,30,31
 102.377929688 1091.03710938 102.377929688 1091.03710938 144.948242188 1160.4375 c 0,32,33
 149.501953125 1167.4453125 149.501953125 1167.4453125 153.288085938 1172.5 c 0,30,31
 168.55859375 1192.22070312 168.55859375 1192.22070312 186.538085938 1204 c 1,32,33
 213.487304688 1218.26660156 213.487304688 1218.26660156 239.038085938 1223.25 c 0,24,25
760.538085938 259 m 0,34,35
 842.247070312 269.750976562 842.247070312 269.750976562 883.176757812 195.0234375 c 0,36,37
 922.715820312 122.833984375 922.715820312 122.833984375 882.760742188 58.47265625 c 0,38,39
 867.916992188 34.5625 867.916992188 34.5625 842.788085938 19.25 c 0,36,37
 819.021484375 5.759765625 819.021484375 5.759765625 788.538085938 0 c 1,38,39
 707.395507812 -10.00390625 707.395507812 -10.00390625 664.061523438 62.6435546875 c 0,40,41
 621.346679688 134.252929688 621.346679688 134.252929688 662.41015625 199.388671875 c 0,42,43
 676.600585938 220.115234375 676.600585938 220.115234375 695.788085938 234.5 c 0,40,41
 722.411132812 252.8125 722.411132812 252.8125 760.538085938 259 c 0,34,35
EndSplineSet
EndChar

StartChar: ampersand
Encoding: 38 38 9
Width: 1054
VWidth: 1750
GlyphClass: 2
Flags: W
LayerCount: 2
Fore
SplineSet
446.168945312 638.75 m 1,0,1
 349.895507812 772.243164062 349.895507812 772.243164062 313.168945312 892.5 c 1,2,3
 279.293945312 1020.3984375 279.293945312 1020.3984375 288.668945312 1097.25 c 0,4,5
 305.579101562 1226.20019531 305.579101562 1226.20019531 365.668945312 1291.5 c 1,6,7
 454.729492188 1383.63183594 454.729492188 1383.63183594 597.513671875 1353.71191406 c 0,8,9
 683.115234375 1334.75195312 683.115234375 1334.75195312 743.668945312 1279.25 c 0,8,9
 866.725585938 1163.69628906 866.725585938 1163.69628906 849.3515625 970.59375 c 0,10,11
 837.5390625 849.046875 837.5390625 849.046875 773.418945312 752.5 c 0,10,11
 735.501953125 695.444335938 735.501953125 695.444335938 680.668945312 645.75 c 0,12,13
 643.84375 614.37890625 643.84375 614.37890625 631.668945312 609 c 1,14,-1
 719.168945312 498.75 l 1,15,-1
 824.168945312 357 l 1,16,17
 861.385742188 444.5625 861.385742188 444.5625 867.918945312 469 c 0,18,19
 880.350585938 531.159179688 880.350585938 531.159179688 881.03125 532.805664062 c 0,20,21
 886.473632812 544.223632812 886.473632812 544.223632812 892.418945312 551.25 c 0,20,21
 924.0078125 585.84765625 924.0078125 585.84765625 965.887695312 561.052734375 c 1,22,23
 995.514648438 541.1640625 995.514648438 541.1640625 995.668945312 507.5 c 0,22,23
 992.708007812 432.01171875 992.708007812 432.01171875 944.918945312 329 c 1,24,25
 913.418945312 271.25 l 2,26,27
 912.272460938 268.956054688 912.272460938 268.956054688 908.338867188 263.42578125 c 0,28,29
 900.19140625 250.447265625 900.19140625 250.447265625 899.418945312 245 c 1,28,29
 901.163085938 235.916992188 901.163085938 235.916992188 925.668945312 197.75 c 0,30,31
 933.543945312 184.625 933.543945312 184.625 949.293945312 157.5 c 0,32,33
 965.38671875 129.83984375 965.38671875 129.83984375 972.918945312 117.25 c 0,32,33
 994.09375 77.7177734375 994.09375 77.7177734375 995.668945312 66.5 c 0,34,35
 1000.25 23.7412109375 1000.25 23.7412109375 959.358398438 5.318359375 c 0,36,37
 929.750976562 -8.0205078125 929.750976562 -8.0205078125 902.918945312 8.75 c 0,36,37
 890.9609375 18.2236328125 890.9609375 18.2236328125 867.918945312 57.75 c 0,38,39
 820.743164062 138.213867188 820.743164062 138.213867188 815.418945312 148.75 c 1,40,-1
 813.668945312 148.75 l 1,41,42
 780.595703125 102.83984375 780.595703125 102.83984375 684.168945312 52.5 c 0,43,44
 490.407226562 -50.5126953125 490.407226562 -50.5126953125 312.220703125 -1.6796875 c 0,45,46
 266.471679688 11.3466796875 266.471679688 11.3466796875 227.418945312 33.25 c 0,45,46
 114.41796875 99.0263671875 114.41796875 99.0263671875 87.689453125 221.98828125 c 0,47,48
 71.48828125 301.575195312 71.48828125 301.575195312 101.418945312 374.5 c 1,47,48
 131.299804688 441.634765625 131.299804688 441.634765625 197.668945312 497 c 0,49,50
 294.629882812 576.645507812 294.629882812 576.645507812 446.168945312 638.75 c 1,0,1
551.168945312 698.25 m 1,51,52
 592.466796875 716.724609375 592.466796875 716.724609375 640.418945312 775.25 c 1,53,54
 728.629882812 877.388671875 728.629882812 877.388671875 731.579101562 1010.56835938 c 1,55,56
 732.674804688 1140.70996094 732.674804688 1140.70996094 640.418945312 1209.25 c 0,55,56
 574.8671875 1257.44921875 574.8671875 1257.44921875 499.484375 1234.265625 c 0,57,58
 459.864257812 1220.62304688 459.864257812 1220.62304688 437.418945312 1190 c 0,57,58
 394.788085938 1126.42578125 394.788085938 1126.42578125 407.668945312 1025.5 c 1,59,60
 419.565429688 947.930664062 419.565429688 947.930664062 442.668945312 887.25 c 0,61,62
 464.109375 830.076171875 464.109375 830.076171875 547.811523438 703.346679688 c 0,63,64
 549.55078125 700.711914062 549.55078125 700.711914062 551.168945312 698.25 c 1,51,52
528.418945312 544.25 m 1,63,64
 519.078125 542.015625 519.078125 542.015625 472.418945312 518 c 0,65,66
 398.409179688 482.634765625 398.409179688 482.634765625 363.918945312 463.75 c 0,67,68
 287.153320312 419.702148438 287.153320312 419.702148438 250.168945312 383.25 c 0,69,70
 224.634765625 356.622070312 224.634765625 356.622070312 209.918945312 325.5 c 1,71,72
 175.997070312 241.586914062 175.997070312 241.586914062 248.959960938 167.900390625 c 0,73,74
 276.631835938 141.040039062 276.631835938 141.040039062 309.668945312 126 c 0,73,74
 438.766601562 71.6435546875 438.766601562 71.6435546875 591.075195312 140.4609375 c 0,75,76
 609.174804688 148.827148438 609.174804688 148.827148438 624.668945312 157.5 c 0,75,76
 686.422851562 192.080078125 686.422851562 192.080078125 722.668945312 225.75 c 0,77,78
 724.423828125 227.504882812 724.423828125 227.504882812 729.719726562 231.647460938 c 0,79,80
 748.48046875 246.321289062 748.48046875 246.321289062 747.168945312 255.5 c 0,79,80
 744.958007812 262.421875 744.958007812 262.421875 729.668945312 281.75 c 0,81,82
 694.412109375 331.888671875 694.412109375 331.888671875 691.168945312 336 c 0,83,84
 647.521484375 398.778320312 647.521484375 398.778320312 591.418945312 469 c 1,85,86
 536.651367188 533.151367188 536.651367188 533.151367188 528.418945312 544.25 c 1,63,64
EndSplineSet
EndChar

StartChar: parenleft
Encoding: 40 40 11
Width: 691
VWidth: 1750
GlyphClass: 2
Flags: W
LayerCount: 2
Fore
SplineSet
543.663085938 1319.5 m 0,0,1
 573.901367188 1328.13964844 573.901367188 1328.13964844 588.831054688 1308.1015625 c 1,2,3
 595.30859375 1295.20019531 595.30859375 1295.20019531 585.663085938 1281 c 0,2,3
 580.720703125 1274.91699219 580.720703125 1274.91699219 522.327148438 1220.96777344 c 0,4,5
 512.913085938 1212.04199219 512.913085938 1212.04199219 506.913085938 1205.75 c 0,4,5
 441.115234375 1131.28710938 441.115234375 1131.28710938 393.163085938 1041.25 c 0,6,7
 319.650390625 902.703125 319.650390625 902.703125 293.413085938 721 c 1,8,9
 242.171875 397.581054688 242.171875 397.581054688 340.663085938 103.25 c 0,10,11
 404.350585938 -82.21484375 404.350585938 -82.21484375 534.913085938 -213.5 c 0,12,13
 540.38671875 -218.973632812 540.38671875 -218.973632812 553.624023438 -230.069335938 c 0,14,15
 579.337890625 -252.475585938 579.337890625 -252.475585938 587.413085938 -264.25 c 1,14,15
 595.46484375 -286.3203125 595.46484375 -286.3203125 576.913085938 -299.25 c 1,16,17
 551.150390625 -307.055664062 551.150390625 -307.055664062 522.663085938 -288.75 c 0,18,19
 483.288085938 -265.125 483.288085938 -265.125 449.163085938 -236.25 c 0,20,21
 295 -110.728515625 295 -110.728515625 197.163085938 84 c 0,22,23
 56.5966796875 365.1328125 56.5966796875 365.1328125 119.387695312 694.534179688 c 0,24,25
 163.323242188 920.549804688 163.323242188 920.549804688 293.413085938 1095.5 c 1,24,25
 375.625976562 1202.10058594 375.625976562 1202.10058594 470.163085938 1272.25 c 0,26,27
 522.124023438 1311.22070312 522.124023438 1311.22070312 526.83984375 1313.54199219 c 0,28,29
 536.501953125 1317.81640625 536.501953125 1317.81640625 543.663085938 1319.5 c 0,0,1
EndSplineSet
EndChar

StartChar: parenright
Encoding: 41 41 12
Width: 789
VWidth: 1750
GlyphClass: 2
Flags: W
LayerCount: 2
Fore
SplineSet
118.010742188 1319.5 m 0,0,1
 155.620117188 1328.90234375 155.620117188 1328.90234375 226.903320312 1268.7421875 c 0,2,3
 232.80078125 1263.79296875 232.80078125 1263.79296875 235.260742188 1261.75 c 0,2,3
 376.354492188 1148.28515625 376.354492188 1148.28515625 466.260742188 990.5 c 1,4,5
 627.778320312 700.079101562 627.778320312 700.079101562 577.44921875 361.888671875 c 0,6,7
 541.48828125 126.1640625 541.48828125 126.1640625 408.510742188 -61.25 c 1,6,7
 322.749023438 -177.2109375 322.749023438 -177.2109375 221.260742188 -252 c 0,8,9
 166.051757812 -293.40625 166.051757812 -293.40625 154.990234375 -297.626953125 c 0,10,11
 146.581054688 -300.341796875 146.581054688 -300.341796875 140.760742188 -301 c 0,10,11
 103.973632812 -304.065429688 103.973632812 -304.065429688 100.016601562 -281.344726562 c 0,12,13
 99.9013671875 -272.526367188 99.9013671875 -272.526367188 104.010742188 -264.25 c 0,12,13
 111.213867188 -252.545898438 111.213867188 -252.545898438 156.631835938 -212.641601562 c 0,14,15
 163.272460938 -206.631835938 163.272460938 -206.631835938 167.010742188 -203 c 0,14,15
 210.266601562 -159.154296875 210.266601562 -159.154296875 254.510742188 -94.5 c 0,16,17
 423.0078125 157.05859375 423.0078125 157.05859375 414.89453125 518.852539062 c 0,18,19
 414.46875 535.936523438 414.46875 535.936523438 413.760742188 551.25 c 0,18,19
 404.400390625 784.568359375 404.400390625 784.568359375 335.010742188 959 c 0,20,21
 268.859375 1120.82226562 268.859375 1120.82226562 146.010742188 1244.25 c 0,22,23
 142.10546875 1248.15527344 142.10546875 1248.15527344 131.943359375 1256.5 c 0,24,25
 109.280273438 1276.2421875 109.280273438 1276.2421875 104.010742188 1286.25 c 0,24,25
 92.671875 1308.92675781 92.671875 1308.92675781 113.387695312 1318.00390625 c 0,26,27
 116.560546875 1319.06738281 116.560546875 1319.06738281 118.010742188 1319.5 c 0,0,1
EndSplineSet
EndChar

StartChar: asterisk
Encoding: 42 42 13
Width: 1193
VWidth: 1750
GlyphClass: 2
Flags: W
LayerCount: 2
Fore
SplineSet
487.698242188 570.5 m 1,0,1
 467.185546875 601.80859375 467.185546875 601.80859375 430.099609375 667.190429688 c 0,2,3
 406.639648438 708.453125 406.639648438 708.453125 394.948242188 728 c 0,2,3
 344.34765625 811.54296875 344.34765625 811.54296875 337.198242188 831.25 c 0,4,5
 322.427734375 873.919921875 322.427734375 873.919921875 361.162109375 901.1328125 c 0,6,7
 387.038085938 917.295898438 387.038085938 917.295898438 414.198242188 908.25 c 0,6,7
 440.049804688 898.196289062 440.049804688 898.196289062 471 839.2421875 c 0,8,9
 475.0703125 831.594726562 475.0703125 831.594726562 477.198242188 827.75 c 0,8,9
 487.399414062 809.775390625 487.399414062 809.775390625 507.623046875 772.583007812 c 0,10,11
 561.092773438 674.247070312 561.092773438 674.247070312 592.698242188 630 c 1,10,11
 605.205078125 658.587890625 605.205078125 658.587890625 682.350585938 785.864257812 c 0,12,13
 684.443359375 789.33203125 684.443359375 789.33203125 685.448242188 791 c 0,12,13
 692.138671875 801.948242188 692.138671875 801.948242188 704.765625 826.133789062 c 0,14,15
 729.58984375 872.706054688 729.58984375 872.706054688 744.948242188 890.75 c 0,14,15
 773.1015625 923.234375 773.1015625 923.234375 815.331054688 905.515625 c 0,16,17
 827.995117188 899.186523438 827.995117188 899.186523438 835.948242188 890.75 c 0,16,17
 862.984375 858.64453125 862.984375 858.64453125 829.166015625 797.681640625 c 0,18,19
 827.735351562 795.107421875 827.735351562 795.107421875 825.448242188 791 c 0,18,19
 809.581054688 764.342773438 809.581054688 764.342773438 779.25 710.1484375 c 0,20,21
 725.596679688 614.623046875 725.596679688 614.623046875 695.948242188 570.5 c 1,20,-1
 891.948242188 570.5 l 1,21,22
 991.698242188 570.5 l 1,23,24
 1037.81445312 566.108398438 1037.81445312 566.108398438 1047.04003906 521.952148438 c 0,25,26
 1048.97851562 509.719726562 1048.97851562 509.719726562 1047.69824219 498.75 c 1,25,26
 1032.08789062 452.197265625 1032.08789062 452.197265625 960.198242188 451.5 c 2,27,-1
 695.948242188 451.5 l 1,28,29
 712.145507812 420.865234375 712.145507812 420.865234375 814.948242188 246.75 c 0,30,31
 818.345703125 240.333007812 818.345703125 240.333007812 826.149414062 227.446289062 c 0,32,33
 853.93359375 178.916015625 853.93359375 178.916015625 848.198242188 152.25 c 0,32,33
 836.966796875 112.13671875 836.966796875 112.13671875 791.471679688 110.568359375 c 0,34,35
 762.772460938 109.578125 762.772460938 109.578125 744.948242188 129.5 c 0,34,35
 741.44921875 134.0234375 741.44921875 134.0234375 713.448242188 182 c 0,36,37
 701.708984375 201.096679688 701.708984375 201.096679688 648.698242188 294 c 0,38,39
 643.431640625 302.954101562 643.431640625 302.954101562 630.806640625 322.09765625 c 0,40,41
 600.265625 369.298828125 600.265625 369.298828125 592.698242188 392 c 1,40,-1
 590.948242188 392 l 1,41,42
 582.555664062 367.111328125 582.555664062 367.111328125 534.948242188 294 c 1,43,44
 479.331054688 196.809570312 479.331054688 196.809570312 470.198242188 182 c 0,45,46
 466.698242188 176.166992188 466.698242188 176.166992188 460.475585938 164.111328125 c 0,47,48
 447.268554688 139.614257812 447.268554688 139.614257812 438.698242188 129.5 c 0,47,48
 409.875976562 97.287109375 409.875976562 97.287109375 367.344726562 116.275390625 c 1,49,50
 343.063476562 129.235351562 343.063476562 129.235351562 335.448242188 152.25 c 1,49,50
 328.69921875 179.24609375 328.69921875 179.24609375 361.155273438 233.510742188 c 0,51,52
 366.08984375 241.943359375 366.08984375 241.943359375 368.698242188 246.75 c 0,51,52
 473.5078125 424.470703125 473.5078125 424.470703125 487.698242188 451.5 c 1,53,-1
 223.448242188 451.5 l 2,54,55
 151.913085938 451.5 151.913085938 451.5 138.666992188 488.6484375 c 0,56,57
 136.89453125 494.411132812 136.89453125 494.411132812 135.948242188 498.75 c 0,56,57
 129.078125 546.842773438 129.078125 546.842773438 171.96484375 565.421875 c 0,58,59
 182.384765625 569.328125 182.384765625 569.328125 191.948242188 570.5 c 1,58,59
 191.948242188 574 191.948242188 574 241.823242188 572.25 c 2,60,-1
 291.698242188 570.5 l 1,60,-1
 487.698242188 570.5 l 1,0,1
EndSplineSet
EndChar

StartChar: plus
Encoding: 43 43 14
Width: 1383
VWidth: 1750
GlyphClass: 2
Flags: W
LayerCount: 2
Fore
SplineSet
632.953125 570.5 m 1,0,-1
 632.953125 1048.25 l 2,1,2
 632.953125 1055.56542969 632.953125 1055.56542969 632.083984375 1072.97558594 c 0,3,4
 627.3359375 1168.13378906 627.3359375 1168.13378906 661.629882812 1186.91796875 c 0,5,6
 673.0625 1192.234375 673.0625 1192.234375 685.453125 1193.5 c 0,3,4
 743.924804688 1197.31347656 743.924804688 1197.31347656 751.484375 1129.31152344 c 0,5,6
 752.276367188 1120.63574219 752.276367188 1120.63574219 751.953125 1053.5 c 2,5,-1
 751.953125 570.5 l 1,6,-1
 1234.953125 570.5 l 2,7,8
 1320.89746094 570.5 1320.89746094 570.5 1341.12792969 562.247070312 c 0,9,10
 1376.47167969 544.881835938 1376.47167969 544.881835938 1374.953125 504 c 0,9,10
 1370.63574219 446.436523438 1370.63574219 446.436523438 1272.14941406 449.83984375 c 0,11,12
 1266.08691406 450.049804688 1266.08691406 450.049804688 1254.42871094 450.630859375 c 0,13,14
 1236.64257812 451.446289062 1236.64257812 451.446289062 1229.703125 451.5 c 2,11,-1
 751.953125 451.5 l 1,12,-1
 751.953125 -28 l 2,13,14
 751.953125 -112.021484375 751.953125 -112.021484375 750.03515625 -121.569335938 c 0,15,16
 736.95703125 -170.521484375 736.95703125 -170.521484375 694.203125 -173.25 c 1,15,16
 630.415039062 -174.700195312 630.415039062 -174.700195312 631.661132812 -76.09765625 c 0,17,18
 631.762695312 -68.072265625 631.762695312 -68.072265625 632.348632812 -52.630859375 c 0,19,20
 632.953125 -36.6796875 632.953125 -36.6796875 632.953125 -29.75 c 2,17,-1
 632.953125 451.5 l 1,18,-1
 155.203125 451.5 l 2,19,20
 147.911132812 451.5 147.911132812 451.5 130.454101562 450.635742188 c 0,21,22
 33.6787109375 445.84375 33.6787109375 445.84375 14.7255859375 480.442382812 c 0,23,24
 9.4560546875 491.783203125 9.4560546875 491.783203125 8.203125 504 c 0,21,22
 4.3798828125 561.34375 4.3798828125 561.34375 72.3916015625 569.505859375 c 0,23,24
 84.4443359375 570.768554688 84.4443359375 570.768554688 148.203125 570.5 c 2,23,-1
 632.953125 570.5 l 1,0,-1
EndSplineSet
EndChar

StartChar: hyphen
Encoding: 45 45 16
AltUni2: 002212.ffffffff.0 0000ad.ffffffff.0
Width: 1613
VWidth: 1750
GlyphClass: 2
Flags: W
LayerCount: 2
Fore
SplineSet
172.477539062 588 m 0,0,1
 186.25 589.215820312 186.25 589.215820312 287.977539062 588 c 2,2,-1
 522.477539062 588 l 1,3,-1
 1250.47753906 588 l 1,4,-1
 1388.72753906 588 l 2,5,6
 1444.99707031 587.350585938 1444.99707031 587.350585938 1456.97753906 582.75 c 0,7,8
 1496.18359375 563.931640625 1496.18359375 563.931640625 1492.74414062 502.803710938 c 0,9,10
 1489.34960938 464.674804688 1489.34960938 464.674804688 1469.22753906 446.25 c 1,9,10
 1440.44140625 430.151367188 1440.44140625 430.151367188 1374.72753906 432.25 c 1,11,-1
 1154.22753906 432.25 l 1,12,-1
 461.227539062 432.25 l 1,13,-1
 258.227539062 432.25 l 2,14,15
 249.963867188 432.25 249.963867188 432.25 232.57421875 431.278320312 c 0,16,17
 181.819335938 429.170898438 181.819335938 429.170898438 160.227539062 437.5 c 0,16,17
 116.784179688 452.833007812 116.784179688 452.833007812 120.256835938 513.694335938 c 0,18,19
 123.598632812 572.259765625 123.598632812 572.259765625 165.858398438 586.26953125 c 0,20,21
 170.024414062 587.436523438 170.024414062 587.436523438 172.477539062 588 c 0,0,1
EndSplineSet
EndChar

StartChar: period
Encoding: 46 46 17
Width: 560
VWidth: 1750
GlyphClass: 2
Flags: W
LayerCount: 2
Fore
SplineSet
218.774414062 259 m 0,0,1
 243.705078125 261 243.705078125 261 264.274414062 253.75 c 1,2,3
 337.111328125 236.127929688 337.111328125 236.127929688 355.411132812 161.126953125 c 0,4,5
 374.555664062 82.66015625 374.555664062 82.66015625 316.768554688 32.08203125 c 0,6,7
 307.594726562 24.5302734375 307.594726562 24.5302734375 299.274414062 19.25 c 0,4,5
 277.829101562 5.8759765625 277.829101562 5.8759765625 246.774414062 0 c 1,6,7
 165.022460938 -10.0791015625 165.022460938 -10.0791015625 121.606445312 62.859375 c 0,8,9
 78.9912109375 134.450195312 78.9912109375 134.450195312 120.427734375 199.188476562 c 0,10,11
 134.146484375 218.931640625 134.146484375 218.931640625 152.274414062 232.75 c 0,8,9
 178.504882812 252.915039062 178.504882812 252.915039062 218.774414062 259 c 0,0,1
EndSplineSet
EndChar

StartChar: slash
Encoding: 47 47 18
Width: 811
VWidth: 1750
GlyphClass: 2
Flags: W
LayerCount: 2
Fore
SplineSet
729.116210938 1321.25 m 0,0,1
 772.913085938 1328.54980469 772.913085938 1328.54980469 794.266601562 1289.15527344 c 0,2,3
 804.369140625 1270.51660156 804.369140625 1270.51660156 800.866210938 1249.5 c 0,2,3
 797.450195312 1237.66992188 797.450195312 1237.66992188 769.366210938 1179.5 c 1,4,5
 757.991210938 1151.5 757.991210938 1151.5 732.616210938 1096.375 c 0,6,7
 707.055664062 1040.64257812 707.055664062 1040.64257812 695.866210938 1013.25 c 0,6,7
 553.311523438 686.008789062 553.311523438 686.008789062 256.616210938 43.75 c 0,8,9
 236.491210938 0 236.491210938 0 197.991210938 -87.5 c 0,10,11
 159.200195312 -175.583007812 159.200195312 -175.583007812 139.366210938 -218.75 c 0,10,11
 111.124023438 -275.234375 111.124023438 -275.234375 107.9140625 -279.237304688 c 0,12,13
 90.4677734375 -298.376953125 90.4677734375 -298.376953125 69.3662109375 -301 c 0,12,13
 23.8125 -304.795898438 23.8125 -304.795898438 7.0654296875 -263.895507812 c 0,14,15
 0.4375 -244.751953125 0.4375 -244.751953125 4.6162109375 -225.75 c 0,14,15
 11.5302734375 -201.005859375 11.5302734375 -201.005859375 48.3662109375 -127.75 c 0,16,17
 60.6162109375 -99.75 60.6162109375 -99.75 85.9912109375 -42.875 c 0,18,19
 111.6015625 14.5595703125 111.6015625 14.5595703125 123.616210938 42 c 0,18,19
 166.466796875 140.3984375 166.466796875 140.3984375 547.729492188 978.202148438 c 0,20,21
 555.83203125 996.009765625 555.83203125 996.009765625 562.866210938 1011.5 c 0,20,21
 575.861328125 1040.08984375 575.861328125 1040.08984375 601.396484375 1097.8125 c 0,22,23
 645.069335938 1196.40136719 645.069335938 1196.40136719 667.866210938 1244.25 c 0,22,23
 692.494140625 1296.58496094 692.494140625 1296.58496094 698.727539062 1303.45410156 c 0,24,25
 712.645507812 1316.8828125 712.645507812 1316.8828125 729.116210938 1321.25 c 0,0,1
EndSplineSet
EndChar

StartChar: colon
Encoding: 58 58 29
Width: 561
VWidth: 1750
GlyphClass: 2
Flags: W
LayerCount: 2
Fore
SplineSet
214.038085938 861 m 0,0,1
 297.674804688 872.948242188 297.674804688 872.948242188 340.51171875 798.615234375 c 0,2,3
 381.314453125 727.813476562 381.314453125 727.813476562 341.731445312 663.170898438 c 0,4,5
 325.359375 638.67578125 325.359375 638.67578125 301.538085938 623 c 0,2,3
 282.905273438 610.049804688 282.905273438 610.049804688 252.538085938 603.75 c 0,4,5
 172.924804688 591.310546875 172.924804688 591.310546875 125.653320312 659.326171875 c 0,6,7
 77.3779296875 728.787109375 77.3779296875 728.787109375 119.948242188 798.1875 c 0,8,9
 124.501953125 805.1953125 124.501953125 805.1953125 128.288085938 810.25 c 0,6,7
 143.55859375 829.970703125 143.55859375 829.970703125 161.538085938 841.75 c 1,8,9
 188.487304688 856.016601562 188.487304688 856.016601562 214.038085938 861 c 0,0,1
219.288085938 259 m 0,10,11
 244.21875 261 244.21875 261 264.788085938 253.75 c 1,12,13
 337.625 236.127929688 337.625 236.127929688 355.924804688 161.126953125 c 0,14,15
 375.069335938 82.66015625 375.069335938 82.66015625 317.282226562 32.08203125 c 0,16,17
 308.108398438 24.5302734375 308.108398438 24.5302734375 299.788085938 19.25 c 0,14,15
 278.342773438 5.8759765625 278.342773438 5.8759765625 247.288085938 0 c 1,16,17
 165.536132812 -10.0791015625 165.536132812 -10.0791015625 122.120117188 62.859375 c 0,18,19
 79.5048828125 134.450195312 79.5048828125 134.450195312 120.94140625 199.188476562 c 0,20,21
 134.66015625 218.931640625 134.66015625 218.931640625 152.788085938 232.75 c 0,18,19
 179.018554688 252.915039062 179.018554688 252.915039062 219.288085938 259 c 0,10,11
EndSplineSet
EndChar

StartChar: less
Encoding: 60 60 31
Width: 1112
VWidth: 1750
GlyphClass: 2
Flags: W
LayerCount: 2
Fore
SplineSet
202.3984375 511 m 1,0,1
 207.325195312 508.331054688 207.325195312 508.331054688 328.3984375 448 c 2,2,-1
 573.3984375 325.5 l 1,3,-1
 814.8984375 204.75 l 1,4,-1
 995.1484375 113.75 l 2,5,6
 1003.68164062 109.483398438 1003.68164062 109.483398438 1022.54101562 101.529296875 c 0,7,8
 1066.91503906 82.142578125 1066.91503906 82.142578125 1082.6484375 68.25 c 0,7,8
 1119.00390625 34.923828125 1119.00390625 34.923828125 1092.47851562 -7.7080078125 c 1,9,10
 1072.18066406 -36.619140625 1072.18066406 -36.619140625 1038.8984375 -36.75 c 1,9,10
 1018.97949219 -34.6806640625 1018.97949219 -34.6806640625 961.8984375 -3.5 c 1,11,-1
 807.8984375 73.5 l 1,12,-1
 254.8984375 350 l 1,13,-1
 67.6484375 442.75 l 2,14,15
 12.3271484375 470.411132812 12.3271484375 470.411132812 8.3271484375 502.806640625 c 0,16,17
 7.779296875 510.219726562 7.779296875 510.219726562 8.1484375 516.25 c 0,16,17
 11.4541015625 549.301757812 11.4541015625 549.301757812 61.728515625 574.5546875 c 0,18,19
 64.15625 575.768554688 64.15625 575.768554688 71.1484375 579.25 c 2,18,-1
 260.1484375 673.75 l 1,19,-1
 806.1484375 946.75 l 1,20,-1
 960.1484375 1023.75 l 1,21,22
 1019.74316406 1055.83984375 1019.74316406 1055.83984375 1037.1484375 1057 c 0,23,24
 1080.38769531 1058.39453125 1080.38769531 1058.39453125 1097.61328125 1017.41210938 c 0,25,26
 1113.64257812 979.275390625 1113.64257812 979.275390625 1082.6484375 952 c 0,25,26
 1071.97949219 943.6171875 1071.97949219 943.6171875 1000.13769531 909.765625 c 0,27,28
 995.77734375 907.668945312 995.77734375 907.668945312 993.3984375 906.5 c 2,27,-1
 806.1484375 812 l 1,28,-1
 562.8984375 691.25 l 1,29,-1
 324.8984375 572.25 l 2,30,31
 226.920898438 521.31640625 226.920898438 521.31640625 202.3984375 511 c 1,0,1
EndSplineSet
EndChar

StartChar: equal
Encoding: 61 61 32
Width: 1383
VWidth: 1750
GlyphClass: 2
Flags: W
LayerCount: 2
Fore
SplineSet
54.9443359375 889 m 1,0,1
 68.5556640625 890.263671875 68.5556640625 890.263671875 166.944335938 889 c 2,2,-1
 392.694335938 889 l 1,3,-1
 1097.94433594 889 l 1,4,-1
 1257.19433594 889 l 2,5,6
 1321.8984375 889 1321.8984375 889 1326.18554688 887.96875 c 0,7,8
 1331.19042969 886.549804688 1331.19042969 886.549804688 1334.19433594 885.5 c 0,7,8
 1374.46484375 873.754882812 1374.46484375 873.754882812 1374.67089844 829.249023438 c 0,9,10
 1373.34863281 803.296875 1373.34863281 803.296875 1356.94433594 785.75 c 1,9,10
 1328.95898438 767.9375 1328.95898438 767.9375 1264.19433594 770 c 1,11,-1
 1041.94433594 770 l 1,12,-1
 352.444335938 770 l 1,13,-1
 145.944335938 770 l 2,14,15
 137.748046875 770 137.748046875 770 119.440429688 768.91796875 c 0,16,17
 68.03515625 766.512695312 68.03515625 766.512695312 47.9443359375 773.5 c 0,16,17
 5.705078125 786.700195312 5.705078125 786.700195312 8.1318359375 833.21875 c 1,18,19
 13.220703125 878.506835938 13.220703125 878.506835938 54.9443359375 889 c 1,0,1
54.9443359375 250.25 m 1,18,19
 68.5556640625 251.513671875 68.5556640625 251.513671875 166.944335938 250.25 c 2,20,-1
 392.694335938 250.25 l 1,21,-1
 1097.94433594 250.25 l 1,22,-1
 1255.44433594 250.25 l 2,23,24
 1262.61425781 250.25 1262.61425781 250.25 1278.04101562 251.16015625 c 0,25,26
 1317.24902344 252.932617188 1317.24902344 252.932617188 1334.19433594 248.5 c 0,25,26
 1375.03515625 234.88671875 1375.03515625 234.88671875 1374.66894531 189.0234375 c 0,27,28
 1373.015625 163.3359375 1373.015625 163.3359375 1356.94433594 147 c 1,27,28
 1326.57128906 129.109375 1326.57128906 129.109375 1264.19433594 131.25 c 1,29,-1
 1040.19433594 131.25 l 1,30,-1
 352.444335938 131.25 l 1,31,-1
 145.944335938 131.25 l 2,32,33
 137.748046875 131.25 137.748046875 131.25 119.440429688 130.16796875 c 0,34,35
 68.03515625 127.762695312 68.03515625 127.762695312 47.9443359375 134.75 c 0,34,35
 5.705078125 147.950195312 5.705078125 147.950195312 8.1318359375 194.46875 c 1,36,37
 13.220703125 239.756835938 13.220703125 239.756835938 54.9443359375 250.25 c 1,18,19
EndSplineSet
EndChar

StartChar: greater
Encoding: 62 62 33
Width: 1112
VWidth: 1750
GlyphClass: 2
Flags: W
LayerCount: 2
Fore
SplineSet
909.68359375 511 m 1,0,1
 881.524414062 522.915039062 881.524414062 522.915039062 787.18359375 572.25 c 1,2,-1
 549.18359375 691.25 l 1,3,-1
 305.93359375 812 l 1,4,-1
 118.68359375 906.5 l 2,5,6
 109.974609375 910.854492188 109.974609375 910.854492188 90.6494140625 919.319335938 c 0,7,8
 46.1484375 939.298828125 46.1484375 939.298828125 29.43359375 952 c 0,7,8
 -8.1005859375 985.030273438 -8.1005859375 985.030273438 20.0947265625 1027.95800781 c 1,9,10
 41.361328125 1056.89550781 41.361328125 1056.89550781 74.93359375 1057 c 1,9,10
 94.8525390625 1054.93066406 94.8525390625 1054.93066406 151.93359375 1023.75 c 1,11,-1
 305.93359375 946.75 l 1,12,-1
 851.93359375 673.75 l 1,13,-1
 1040.93359375 579.25 l 2,14,15
 1092.32226562 553.555664062 1092.32226562 553.555664062 1100.93945312 529.674804688 c 0,16,17
 1103.13769531 522.3046875 1103.13769531 522.3046875 1103.93359375 516.25 c 0,16,17
 1107.50878906 475.131835938 1107.50878906 475.131835938 1051.17089844 446.159179688 c 0,18,19
 1047.17578125 444.127929688 1047.17578125 444.127929688 1044.43359375 442.75 c 2,18,-1
 857.18359375 350 l 1,19,-1
 304.18359375 73.5 l 1,20,-1
 150.18359375 -3.5 l 1,21,22
 90.5888671875 -35.58984375 90.5888671875 -35.58984375 73.18359375 -36.75 c 0,23,24
 28.5888671875 -38.1884765625 28.5888671875 -38.1884765625 13.49609375 5.05078125 c 1,25,26
 2.689453125 42.0771484375 2.689453125 42.0771484375 29.43359375 68.25 c 0,25,26
 41.1689453125 79.0830078125 41.1689453125 79.0830078125 108.293945312 109.640625 c 0,27,28
 113.725585938 112.180664062 113.725585938 112.180664062 116.93359375 113.75 c 2,27,-1
 297.18359375 204.75 l 1,28,-1
 538.68359375 325.5 l 1,29,-1
 783.68359375 448 l 1,30,31
 909.68359375 511 l 1,0,1
EndSplineSet
EndChar

StartChar: bracketleft
Encoding: 91 91 62
Width: 444
VWidth: 1750
GlyphClass: 2
Flags: W
LayerCount: 2
Fore
SplineSet
219.267578125 -182 m 1,0,1
 289.267578125 -182 l 1,2,3
 329.893554688 -184.90234375 329.893554688 -184.90234375 339.676757812 -227.43359375 c 0,4,5
 345.586914062 -260.234375 345.586914062 -260.234375 326.017578125 -283.5 c 1,4,5
 306.546875 -300.97265625 306.546875 -300.97265625 266.517578125 -301 c 2,6,7
 151.017578125 -301 l 1,8,9
 124.676757812 -293.78125 124.676757812 -293.78125 112.517578125 -278.25 c 1,10,11
 98.1708984375 -249.982421875 98.1708984375 -249.982421875 100.267578125 -178.5 c 1,12,-1
 100.267578125 54.25 l 1,13,-1
 100.267578125 952 l 1,14,-1
 100.267578125 1211 l 2,15,16
 100.267578125 1276.41992188 100.267578125 1276.41992188 107.693359375 1291.11328125 c 0,17,18
 114.649414062 1302.44433594 114.649414062 1302.44433594 123.017578125 1309 c 0,17,18
 140.541992188 1321.22265625 140.541992188 1321.22265625 173.767578125 1321.25 c 2,19,-1
 263.017578125 1321.25 l 2,20,21
 307.07421875 1319.93847656 307.07421875 1319.93847656 324.267578125 1305.5 c 0,22,23
 357.09765625 1274.31152344 357.09765625 1274.31152344 334.396484375 1232.06835938 c 1,24,25
 318.344726562 1206.33496094 318.344726562 1206.33496094 291.017578125 1202.25 c 0,24,25
 286.185546875 1202.00976562 286.185546875 1202.00976562 219.267578125 1202.25 c 1,26,-1
 219.267578125 -182 l 1,0,1
EndSplineSet
EndChar

StartChar: backslash
Encoding: 92 92 63
Width: 671
VWidth: 1750
GlyphClass: 2
Flags: W
LayerCount: 2
Fore
SplineSet
-16.712890625 1321.25 m 0,0,1
 29.5849609375 1328.65722656 29.5849609375 1328.65722656 59.9140625 1266.1796875 c 0,2,3
 61.3720703125 1263.14160156 61.3720703125 1263.14160156 62.037109375 1261.75 c 0,2,3
 108.0859375 1162.61816406 108.0859375 1162.61816406 163.537109375 1034.25 c 0,4,5
 231.447265625 879.380859375 231.447265625 879.380859375 372.716796875 572.862304688 c 0,6,7
 530.09765625 231.280273438 530.09765625 231.280273438 604.537109375 59.5 c 0,6,7
 619.643554688 24.6884765625 619.643554688 24.6884765625 653.369140625 -44.5654296875 c 0,8,9
 709.826171875 -161.013671875 709.826171875 -161.013671875 730.537109375 -220.5 c 0,8,9
 745.94921875 -262.333007812 745.94921875 -262.333007812 711.150390625 -289.006835938 c 0,10,11
 699.90625 -296.546875 699.90625 -296.546875 688.537109375 -299.25 c 0,10,11
 642.766601562 -310.235351562 642.766601562 -310.235351562 612.990234375 -249.88671875 c 0,12,13
 611.033203125 -245.858398438 611.033203125 -245.858398438 609.787109375 -243.25 c 0,12,13
 572.280273438 -166.245117188 572.280273438 -166.245117188 506.537109375 -14 c 0,14,15
 412.198242188 200.307617188 412.198242188 200.307617188 270.287109375 505.75 c 0,16,17
 243.268554688 565.19140625 243.268554688 565.19140625 190.291992188 684.552734375 c 0,18,19
 105.796875 874.827148438 105.796875 874.827148438 62.037109375 967.75 c 0,18,19
 45.0537109375 1003.94824219 45.0537109375 1003.94824219 -18.462890625 1148 c 0,20,21
 -60.462890625 1242.5 -60.462890625 1242.5 -60.462890625 1242.5 c 1,22,23
 -75.73828125 1283.96191406 -75.73828125 1283.96191406 -39.5888671875 1311.00683594 c 0,24,25
 -28.1337890625 1318.54492188 -28.1337890625 1318.54492188 -16.712890625 1321.25 c 0,0,1
EndSplineSet
EndChar

StartChar: bracketright
Encoding: 93 93 64
Width: 544
VWidth: 1750
GlyphClass: 2
Flags: W
LayerCount: 2
Fore
SplineSet
224.409179688 1202.25 m 1,0,1
 154.409179688 1202.25 l 1,2,3
 113.783203125 1205.15234375 113.783203125 1205.15234375 104 1247.68359375 c 0,4,5
 98.08984375 1280.484375 98.08984375 1280.484375 117.659179688 1303.75 c 1,4,5
 140.83984375 1326.93066406 140.83984375 1326.93066406 228.784179688 1321.96875 c 0,6,7
 241.520507812 1321.25 241.520507812 1321.25 248.909179688 1321.25 c 2,6,7
 296.159179688 1321.25 l 1,8,9
 319.530273438 1314.00292969 319.530273438 1314.00292969 332.909179688 1296.75 c 1,10,11
 346.654296875 1265.52832031 346.654296875 1265.52832031 343.409179688 1197 c 1,12,-1
 343.409179688 964.25 l 1,13,-1
 343.409179688 68.25 l 1,14,-1
 343.409179688 -192.5 l 2,15,16
 343.409179688 -255.286132812 343.409179688 -255.286132812 336.026367188 -270.265625 c 0,17,18
 328.55859375 -282.881835938 328.55859375 -282.881835938 318.909179688 -290.5 c 0,17,18
 301.212890625 -300.978515625 301.212890625 -300.978515625 268.159179688 -301 c 2,19,-1
 180.659179688 -301 l 2,20,21
 136.602539062 -299.688476562 136.602539062 -299.688476562 119.409179688 -285.25 c 0,22,23
 86.5791015625 -254.061523438 86.5791015625 -254.061523438 109.280273438 -211.818359375 c 1,24,25
 125.33203125 -186.084960938 125.33203125 -186.084960938 152.659179688 -182 c 0,24,25
 157.491210938 -181.759765625 157.491210938 -181.759765625 224.409179688 -182 c 1,26,-1
 224.409179688 1202.25 l 1,0,1
EndSplineSet
EndChar

StartChar: bar
Encoding: 124 124 95
Width: 388
VWidth: 1750
GlyphClass: 2
Flags: W
LayerCount: 2
Fore
SplineSet
181.4609375 1321.25 m 1,0,1
 226.494140625 1328.75488281 226.494140625 1328.75488281 247.470703125 1289.75390625 c 0,2,3
 251.42578125 1281.31445312 251.42578125 1281.31445312 253.2109375 1274 c 0,2,3
 253.634765625 1269.29101562 253.634765625 1269.29101562 253.2109375 1193.5 c 2,4,-1
 253.2109375 1032.5 l 1,5,-1
 253.2109375 50.75 l 1,6,-1
 253.2109375 -215.25 l 1,7,8
 250.478515625 -292.115234375 250.478515625 -292.115234375 204.2109375 -301 c 1,9,10
 155.568359375 -306.120117188 155.568359375 -306.120117188 137.865234375 -263.794921875 c 0,11,12
 135.451171875 -257.173828125 135.451171875 -257.173828125 134.2109375 -252 c 0,11,12
 133.7890625 -247.079101562 133.7890625 -247.079101562 134.2109375 -171.5 c 2,13,-1
 134.2109375 -10.5 l 1,14,-1
 134.2109375 969.5 l 1,15,-1
 134.2109375 1233.75 l 1,16,17
 136.7890625 1310.58398438 136.7890625 1310.58398438 181.4609375 1321.25 c 1,0,1
EndSplineSet
EndChar

StartChar: guillemotleft
Encoding: 171 171 175
Width: 1041
VWidth: 1750
GlyphClass: 2
Flags: W
LayerCount: 2
Fore
SplineSet
383.001953125 750.75 m 0,0,1
 415.42578125 758.856445312 415.42578125 758.856445312 428.552734375 739.201171875 c 1,2,3
 433.0390625 728.890625 433.0390625 728.890625 428.501953125 717.5 c 0,2,3
 423.3984375 707.29296875 423.3984375 707.29296875 386.165039062 679.112304688 c 0,4,5
 381.665039062 675.55078125 381.665039062 675.55078125 379.501953125 673.75 c 0,4,5
 346.130859375 641.984375 346.130859375 641.984375 316.501953125 595 c 0,6,7
 207.56640625 413.440429688 207.56640625 413.440429688 247.58203125 191.814453125 c 0,8,9
 257.297851562 139.763671875 257.297851562 139.763671875 274.501953125 92.75 c 0,8,9
 306.456054688 7.2236328125 306.456054688 7.2236328125 370.751953125 -63 c 0,10,11
 379.438476562 -72.65234375 379.438476562 -72.65234375 399.841796875 -88.6328125 c 0,12,13
 416.188476562 -101.436523438 416.188476562 -101.436523438 423.251953125 -108.5 c 0,12,13
 439.421875 -127.365234375 439.421875 -127.365234375 423.208007812 -143.947265625 c 0,14,15
 419.029296875 -147.185546875 419.029296875 -147.185546875 416.251953125 -148.75 c 0,14,15
 386.100585938 -158.982421875 386.100585938 -158.982421875 328.751953125 -119 c 0,16,17
 222.641601562 -47.7734375 222.641601562 -47.7734375 159.001953125 70 c 0,18,19
 58.44140625 258.772460938 58.44140625 258.772460938 129.272460938 462.634765625 c 0,20,21
 164.939453125 562.739257812 164.939453125 562.739257812 236.001953125 640.5 c 0,20,21
 276.20703125 684.567382812 276.20703125 684.567382812 335.751953125 724.5 c 1,22,23
 365.59375 746.881835938 365.59375 746.881835938 383.001953125 750.75 c 0,0,1
792.501953125 750.75 m 0,24,25
 824.92578125 758.856445312 824.92578125 758.856445312 838.052734375 739.201171875 c 1,26,27
 842.5390625 728.890625 842.5390625 728.890625 838.001953125 717.5 c 0,26,27
 832.8984375 707.29296875 832.8984375 707.29296875 795.665039062 679.112304688 c 0,28,29
 791.165039062 675.55078125 791.165039062 675.55078125 789.001953125 673.75 c 0,28,29
 755.630859375 641.984375 755.630859375 641.984375 726.001953125 595 c 0,30,31
 617.06640625 413.440429688 617.06640625 413.440429688 657.08203125 191.814453125 c 0,32,33
 666.797851562 139.763671875 666.797851562 139.763671875 684.001953125 92.75 c 0,32,33
 715.956054688 7.2236328125 715.956054688 7.2236328125 780.251953125 -63 c 0,34,35
 788.938476562 -72.65234375 788.938476562 -72.65234375 809.341796875 -88.6328125 c 0,36,37
 825.688476562 -101.436523438 825.688476562 -101.436523438 832.751953125 -108.5 c 0,36,37
 848.921875 -127.365234375 848.921875 -127.365234375 832.708007812 -143.947265625 c 0,38,39
 828.529296875 -147.185546875 828.529296875 -147.185546875 825.751953125 -148.75 c 0,38,39
 795.600585938 -158.982421875 795.600585938 -158.982421875 738.251953125 -119 c 0,40,41
 632.141601562 -47.7734375 632.141601562 -47.7734375 568.501953125 70 c 0,42,43
 467.94140625 258.772460938 467.94140625 258.772460938 538.772460938 462.634765625 c 0,44,45
 574.439453125 562.739257812 574.439453125 562.739257812 645.501953125 640.5 c 0,44,45
 685.70703125 684.567382812 685.70703125 684.567382812 745.251953125 724.5 c 0,46,47
 775.559570312 746.337890625 775.559570312 746.337890625 792.501953125 750.75 c 0,24,25
EndSplineSet
EndChar

StartChar: guillemotright
Encoding: 187 187 176
Width: 1040
VWidth: 1750
GlyphClass: 2
Flags: W
LayerCount: 2
Fore
SplineSet
118.936523438 750.75 m 0,0,1
 146.936523438 759.5 146.936523438 759.5 195.353515625 726.118164062 c 2,2,-1
 197.686523438 724.5 l 2,2,3
 283.604492188 666.123046875 283.604492188 666.123046875 344.686523438 579.25 c 0,4,5
 465.146484375 404.3359375 465.146484375 404.3359375 416.153320312 192.3046875 c 0,6,7
 387.172851562 70.939453125 387.172851562 70.939453125 307.936523438 -24.5 c 0,6,7
 263.548828125 -77.6806640625 263.548828125 -77.6806640625 194.186523438 -124.25 c 0,8,9
 156.62109375 -148.337890625 156.62109375 -148.337890625 141.686523438 -150.5 c 0,10,11
 110.181640625 -153.125 110.181640625 -153.125 102.170898438 -134 c 0,12,13
 98.154296875 -124.41015625 98.154296875 -124.41015625 106.686523438 -112 c 0,12,13
 111.09375 -104.654296875 111.09375 -104.654296875 147.321289062 -75.6220703125 c 0,14,15
 152.831054688 -70.9375 152.831054688 -70.9375 155.686523438 -68.25 c 0,14,15
 189.841796875 -33.3642578125 189.841796875 -33.3642578125 222.186523438 19.25 c 0,16,17
 326.313476562 197.467773438 326.313476562 197.467773438 280.571289062 422.456054688 c 0,18,19
 267.274414062 486.012695312 267.274414062 486.012695312 243.186523438 542.5 c 0,18,19
 212.643554688 612.688476562 212.643554688 612.688476562 159.186523438 666.75 c 0,20,21
 152.481445312 673.455078125 152.481445312 673.455078125 136.481445312 685.63671875 c 0,22,23
 114.564453125 702.975585938 114.564453125 702.975585938 106.686523438 712.25 c 0,22,23
 92.265625 731.477539062 92.265625 731.477539062 108.944335938 745.939453125 c 0,24,25
 114.415039062 749.420898438 114.415039062 749.420898438 118.936523438 750.75 c 0,0,1
528.436523438 750.75 m 0,24,25
 556.436523438 759.5 556.436523438 759.5 604.853515625 726.118164062 c 2,26,-1
 607.186523438 724.5 l 2,26,27
 693.104492188 666.123046875 693.104492188 666.123046875 754.186523438 579.25 c 0,28,29
 874.646484375 404.3359375 874.646484375 404.3359375 825.653320312 192.3046875 c 0,30,31
 796.672851562 70.939453125 796.672851562 70.939453125 717.436523438 -24.5 c 0,30,31
 673.048828125 -77.6806640625 673.048828125 -77.6806640625 603.686523438 -124.25 c 0,32,33
 566.12109375 -148.337890625 566.12109375 -148.337890625 551.186523438 -150.5 c 0,34,35
 519.681640625 -153.125 519.681640625 -153.125 511.670898438 -134 c 1,36,37
 509.3671875 -123.15234375 509.3671875 -123.15234375 516.186523438 -112 c 0,36,37
 520.59375 -104.654296875 520.59375 -104.654296875 556.821289062 -75.6220703125 c 0,38,39
 561.818359375 -71.6181640625 561.818359375 -71.6181640625 565.186523438 -68.25 c 0,38,39
 599.341796875 -33.3642578125 599.341796875 -33.3642578125 631.686523438 19.25 c 0,40,41
 735.813476562 197.467773438 735.813476562 197.467773438 690.071289062 422.456054688 c 0,42,43
 676.774414062 486.012695312 676.774414062 486.012695312 652.686523438 542.5 c 0,42,43
 622.143554688 612.688476562 622.143554688 612.688476562 568.686523438 666.75 c 0,44,45
 561.981445312 673.455078125 561.981445312 673.455078125 545.981445312 685.63671875 c 0,46,47
 524.064453125 702.975585938 524.064453125 702.975585938 516.186523438 712.25 c 0,46,47
 501.765625 731.477539062 501.765625 731.477539062 518.444335938 745.939453125 c 0,48,49
 523.915039062 749.420898438 523.915039062 749.420898438 528.436523438 750.75 c 0,24,25
EndSplineSet
EndChar

StartChar: endash
Encoding: 8211 8211 183
Width: 997
VWidth: 1750
GlyphClass: 3
Flags: W
LayerCount: 2
Fore
SplineSet
24.0537109375 623 m 0,0,1
 37.4677734375 625.8203125 37.4677734375 625.8203125 104.553710938 624.75 c 2,2,-1
 269.053710938 624.75 l 1,3,-1
 788.803710938 624.75 l 1,4,-1
 907.803710938 624.75 l 2,5,6
 961.965820312 624.309570312 961.965820312 624.309570312 967.303710938 623 c 0,7,8
 997.733398438 617.629882812 997.733398438 617.629882812 996.30078125 584.665039062 c 0,9,10
 995.623046875 569.069335938 995.623046875 569.069335938 984.803710938 558.25 c 1,9,10
 968.556640625 546.6328125 968.556640625 546.6328125 916.553710938 547.75 c 2,11,-1
 752.053710938 547.75 l 1,12,-1
 246.303710938 547.75 l 1,13,-1
 95.8037109375 547.75 l 2,14,15
 32.8935546875 547.75 32.8935546875 547.75 28.751953125 548.735351562 c 0,16,17
 23.6435546875 550.169921875 23.6435546875 550.169921875 20.5537109375 551.25 c 0,16,17
 -10.1484375 560.4609375 -10.1484375 560.4609375 -3.962890625 594.159179688 c 1,18,19
 3.02734375 617.301757812 3.02734375 617.301757812 24.0537109375 623 c 0,0,1
EndSplineSet
Ligature2: "gsub_ligature_dfl_liga_arab_FAR_Lookup_02_Subtable_01" hyphen hyphen
Ligature2: "gsub_ligature_dfl_liga_arab_FAR_Lookup_02_Subtable_01" uni2010 uni2010
Ligature2: "gsub_ligature_dfl_liga_arab_FAR_Lookup_02_Subtable_01" uni2010 hyphen
EndChar

StartChar: emdash
Encoding: 8212 8212 184
Width: 2721
VWidth: 1750
GlyphClass: 3
Flags: W
LayerCount: 2
Fore
SplineSet
275.961914062 344.75 m 0,0,1
 280.724609375 345.028320312 280.724609375 345.028320312 337.211914062 344.75 c 2,2,-1
 456.211914062 344.75 l 1,3,-1
 823.711914062 344.75 l 1,4,-1
 1957.71191406 344.75 l 1,5,-1
 2370.71191406 344.75 l 2,6,7
 2436.6875 344.75 2436.6875 344.75 2439.93261719 344.048828125 c 0,8,9
 2445.7890625 342.530273438 2445.7890625 342.530273438 2449.46191406 341.25 c 0,8,9
 2478.11035156 330.231445312 2478.11035156 330.231445312 2473.2578125 298.90234375 c 0,10,11
 2470.98339844 289.745117188 2470.98339844 289.745117188 2466.96191406 283.5 c 0,10,11
 2454.47265625 267.793945312 2454.47265625 267.793945312 2421.46191406 267.75 c 2,12,-1
 2330.46191406 267.75 l 1,13,-1
 1929.71191406 267.75 l 1,14,-1
 781.711914062 267.75 l 1,15,-1
 429.961914062 267.75 l 1,16,-1
 321.461914062 267.75 l 2,17,18
 273.271484375 268.24609375 273.271484375 268.24609375 268.961914062 269.5 c 0,19,20
 235.256835938 279.330078125 235.256835938 279.330078125 242.1796875 312.513671875 c 1,21,22
 250.3515625 338.59375 250.3515625 338.59375 275.961914062 344.75 c 0,0,1
EndSplineSet
Ligature2: "gsub_ligature_dfl_liga_arab_FAR_Lookup_02_Subtable_01" hyphen uni2010
Ligature2: "gsub_ligature_dfl_liga_arab_FAR_Lookup_02_Subtable_01" hyphen hyphen
Ligature2: "gsub_ligature_dfl_liga_arab_FAR_Lookup_02_Subtable_01" endash uni2010
Ligature2: "gsub_ligature_dfl_liga_arab_FAR_Lookup_02_Subtable_01" endash hyphen
Ligature2: "gsub_ligature_dfl_liga_arab_FAR_Lookup_02_Subtable_01" uni2010 uni2010
Ligature2: "gsub_ligature_dfl_liga_arab_FAR_Lookup_02_Subtable_01" uni2010 hyphen
EndChar

StartChar: quoteleft
Encoding: 8216 8216 187
Width: 699
VWidth: 1750
GlyphClass: 2
Flags: W
LayerCount: 2
Fore
SplineSet
257.5625 1193.5 m 1,0,1
 276.955078125 1119.1484375 276.955078125 1119.1484375 348.5625 1067.5 c 0,2,3
 354.415039062 1063.59863281 354.415039062 1063.59863281 371.302734375 1056.61621094 c 0,4,5
 401.463867188 1044.14746094 401.463867188 1044.14746094 408.0625 1034.25 c 0,4,5
 425.510742188 1012.04296875 425.510742188 1012.04296875 396.471679688 992.067382812 c 0,6,7
 379.998046875 982.307617188 379.998046875 982.307617188 366.0625 985.25 c 0,6,7
 261.249023438 1019.515625 261.249023438 1019.515625 210.208007812 1133.60839844 c 0,8,9
 197.454101562 1163.02246094 197.454101562 1163.02246094 191.0625 1191.75 c 0,8,9
 173.047851562 1278.99902344 173.047851562 1278.99902344 208.5625 1331.75 c 0,10,11
 249.858398438 1391.39941406 249.858398438 1391.39941406 327.270507812 1403.86425781 c 0,12,13
 346.4609375 1406.53125 346.4609375 1406.53125 362.5625 1405.25 c 0,12,13
 364.340820312 1404.75292969 364.340820312 1404.75292969 402.8125 1393 c 1,14,15
 448.838867188 1375.27734375 448.838867188 1375.27734375 457.0625 1366.75 c 0,16,17
 507.932617188 1310.01074219 507.932617188 1310.01074219 484.639648438 1233.70117188 c 0,18,19
 474.1171875 1202.54101562 474.1171875 1202.54101562 453.5625 1181.25 c 0,18,19
 405.615234375 1133.30273438 405.615234375 1133.30273438 331.211914062 1148.40234375 c 0,20,21
 317.1953125 1151.24707031 317.1953125 1151.24707031 304.8125 1156.75 c 0,20,21
 279.430664062 1169.31542969 279.430664062 1169.31542969 257.5625 1193.5 c 1,0,1
EndSplineSet
EndChar

StartChar: guilsinglleft
Encoding: 8249 8249 195
Width: 566
GlyphClass: 2
Flags: W
LayerCount: 2
Fore
SplineSet
350 70 m 1,0,1
 363 48 363 48 363 35 c 0,2,3
 363 26 363 26 352 26 c 0,4,5
 343 26 343 26 326 33 c 1,6,7
 273 73 273 73 230 128 c 128,-1,8
 187 183 187 183 155 255 c 0,9,10
 126 321 126 321 113.5 385 c 128,-1,11
 101 449 101 449 100 513 c 1,12,13
 100 656 100 656 164 783 c 1,14,15
 231 904 231 904 327 958 c 1,16,17
 354 969 354 969 358 969 c 0,18,19
 366 969 366 969 366 963 c 0,20,21
 366 953 366 953 343 912 c 1,22,23
 224 746 224 746 224 513 c 0,24,25
 224 249 224 249 350 70 c 1,0,1
EndSplineSet
EndChar

StartChar: guilsinglright
Encoding: 8250 8250 196
Width: 569
GlyphClass: 2
Flags: W
LayerCount: 2
Fore
SplineSet
115 70 m 1,0,1
 244 249 244 249 244 513 c 0,2,3
 244 751 244 751 122 913 c 1,4,5
 100 954 100 954 100 963 c 0,6,7
 100 969 100 969 108 969 c 0,8,9
 110 969 110 969 118 966.5 c 128,-1,10
 126 964 126 964 137 958 c 0,11,12
 188 931 188 931 228.5 887 c 128,-1,13
 269 843 269 843 301 783 c 0,14,15
 336 718 336 718 352 650.5 c 128,-1,16
 368 583 368 583 369 513 c 0,17,18
 369 450 369 450 353.5 385 c 128,-1,19
 338 320 338 320 309 255 c 0,20,21
 279 188 279 188 235 130 c 128,-1,22
 191 72 191 72 138 33 c 1,23,24
 124 26 124 26 113 26 c 0,25,26
 101 26 101 26 101 35 c 0,27,28
 101 47 101 47 115 70 c 1,0,1
EndSplineSet
EndChar

StartChar: uni2010
Encoding: 8208 8208 244
AltUni2: 00e907.ffffffff.0 002011.ffffffff.0
Width: 1121
VWidth: 1750
GlyphClass: 2
Flags: W
LayerCount: 2
Fore
SplineSet
181.5 229.25 m 1,0,1
 195.092773438 230.565429688 195.092773438 230.565429688 286.5 229.25 c 2,2,-1
 500 229.25 l 1,3,-1
 792.25 229.25 l 2,4,5
 807.872070312 229.25 807.872070312 229.25 840.012695312 230.787109375 c 0,6,7
 906.385742188 233.631835938 906.385742188 233.631835938 937.5 229.25 c 1,6,7
 972.139648438 206.639648438 972.139648438 206.639648438 970.75 148.75 c 0,8,9
 969.000976562 110.286132812 969.000976562 110.286132812 953.25 98 c 1,10,11
 939.120117188 90.5546875 939.120117188 90.5546875 893.75 91 c 2,12,-1
 762.5 91 l 1,13,-1
 351.25 91 l 1,14,-1
 234 91 l 2,15,16
 181.622070312 91.57421875 181.622070312 91.57421875 172.75 94.5 c 0,17,18
 150.045898438 106.95703125 150.045898438 106.95703125 150 150.5 c 0,19,20
 150 203.940429688 150 203.940429688 159.411132812 216.052734375 c 0,21,22
 168.861328125 225.750976562 168.861328125 225.750976562 181.5 229.25 c 1,0,1
EndSplineSet
EndChar

StartChar: multiply
Encoding: 215 215 245
Width: 978
VWidth: 1750
GlyphClass: 2
Flags: W
LayerCount: 2
Fore
SplineSet
404.859375 511 m 1,0,1
 380.681640625 528.125976562 380.681640625 528.125976562 307.64453125 605.934570312 c 0,2,3
 298.81640625 615.236328125 298.81640625 615.236328125 292.859375 621.25 c 2,2,-1
 70.609375 843.5 l 2,3,4
 43.0751953125 872.1171875 43.0751953125 872.1171875 37.359375 883.75 c 0,5,6
 21.189453125 927.640625 21.189453125 927.640625 57.390625 954.685546875 c 0,7,8
 67.6015625 961.376953125 67.6015625 961.376953125 77.609375 964.25 c 0,7,8
 119.7265625 975.481445312 119.7265625 975.481445312 177.6796875 910.3046875 c 0,9,10
 197.309570312 888.3984375 197.309570312 888.3984375 201.859375 883.75 c 2,9,-1
 490.609375 595 l 1,10,11
 506.036132812 617.625976562 506.036132812 617.625976562 576.369140625 683.125 c 0,12,13
 585.961914062 692.166015625 585.961914062 692.166015625 592.109375 698.25 c 2,12,-1
 796.859375 903 l 2,13,14
 848.475585938 954.616210938 848.475585938 954.616210938 868.461914062 962.869140625 c 0,15,16
 901.0625 976.331054688 901.0625 976.331054688 928.109375 950.25 c 0,15,16
 972.54296875 907.403320312 972.54296875 907.403320312 902.478515625 836.916992188 c 0,17,18
 898.967773438 833.384765625 898.967773438 833.384765625 892.1484375 826.69140625 c 0,19,20
 886.323242188 820.948242188 886.323242188 820.948242188 884.359375 819 c 2,17,-1
 677.859375 612.5 l 2,18,19
 667.458984375 602.099609375 667.458984375 602.099609375 646.90234375 579.478515625 c 0,20,21
 600.271484375 528.94921875 600.271484375 528.94921875 574.609375 511 c 1,20,-1
 574.609375 509.25 l 1,21,22
 597.235351562 493.823242188 597.235351562 493.823242188 662.734375 423.490234375 c 0,23,24
 671.775390625 413.897460938 671.775390625 413.897460938 677.859375 407.75 c 2,23,-1
 882.609375 203 l 2,24,25
 934.225585938 151.383789062 934.225585938 151.383789062 942.478515625 131.397460938 c 0,26,27
 953.834960938 98.06640625 953.834960938 98.06640625 929.859375 71.75 c 0,26,27
 887.012695312 27.31640625 887.012695312 27.31640625 816.526367188 97.380859375 c 0,28,29
 812.994140625 100.891601562 812.994140625 100.891601562 806.30078125 107.7109375 c 0,30,31
 800.557617188 113.536132812 800.557617188 113.536132812 798.609375 115.5 c 2,28,-1
 592.109375 322 l 2,29,30
 581.708984375 332.400390625 581.708984375 332.400390625 559.087890625 352.95703125 c 0,31,32
 508.55859375 399.587890625 508.55859375 399.587890625 490.609375 425.25 c 1,31,-1
 488.859375 425.25 l 1,32,33
 473.432617188 402.624023438 473.432617188 402.624023438 403.099609375 337.125 c 0,34,35
 393.506835938 328.083984375 393.506835938 328.083984375 387.359375 322 c 2,34,-1
 180.859375 115.5 l 2,35,36
 126.3671875 61.0078125 126.3671875 61.0078125 101.020507812 54.7275390625 c 0,37,38
 72.7724609375 47.7294921875 72.7724609375 47.7294921875 49.609375 71.75 c 0,37,38
 39.109375 82.25 39.109375 82.25 34.734375 92.75 c 0,39,40
 30.359375 103.25 30.359375 103.25 32.984375 114.625 c 0,41,42
 35.609375 126 35.609375 126 37.359375 133 c 0,43,44
 39.109375 140 39.109375 140 49.609375 153.125 c 0,45,46
 60.109375 166.25 60.109375 166.25 63.609375 170.625 c 0,47,48
 67.109375 175 67.109375 175 81.984375 189 c 2,49,-1
 96.859375 203 l 1,39,-1
 301.609375 407.75 l 2,40,41
 312.009765625 418.150390625 312.009765625 418.150390625 332.56640625 440.771484375 c 0,42,43
 379.197265625 491.30078125 379.197265625 491.30078125 404.859375 509.25 c 1,42,-1
 404.859375 511 l 1,0,1
EndSplineSet
EndChar

StartChar: afii57451
Encoding: 1611 1611 311
AltUni2: 00fe70.ffffffff.0
Width: 16
VWidth: 1750
GlyphClass: 2
Flags: HW
AnchorPoint: "GposMark2BaseAnchorHamzaErabAbove_01_01" 188.806 1552.2 mark 0
AnchorPoint: "GposMark2BaseAnchorHamzaErabBelow_01_01" 188.806 2039.67 mark 0
AnchorPoint: "GposMark2BaseAnchorClassErabAbove_01_02" 188.806 1552.2 mark 0
AnchorPoint: "GposMark2MarkAnchorHamzaErabAbove_01_01" 188.806 1552.2 mark 0
AnchorPoint: "GposMark2MarkAnchorHamzaErabBelow_01_01" 188.806 2039.67 mark 0
AnchorPoint: "GposMark2MarkAnchorShaddaErabAbove_01_02" 188.806 1552.2 mark 0
AnchorPoint: "GposMark2MarkAnchorShaddaErabBelow_01_02" 188.806 2039.67 mark 0
LayerCount: 2
Fore
SplineSet
371.2421875 2030 m 0,0,1
 411.28515625 2039.66503906 411.28515625 2039.66503906 429.227539062 1999.89648438 c 0,2,3
 445.442382812 1963.95605469 445.442382812 1963.95605469 416.7421875 1939 c 0,4,5
 401.512695312 1925.94628906 401.512695312 1925.94628906 325.428710938 1903.66601562 c 0,6,7
 319.078125 1901.74511719 319.078125 1901.74511719 315.2421875 1900.5 c 0,8,9
 278.4921875 1888.25 278.4921875 1888.25 204.1171875 1863.75 c 0,10,11
 129.176757812 1839.05664062 129.176757812 1839.05664062 92.9921875 1827 c 0,12,13
 85.28125 1824.15917969 85.28125 1824.15917969 68.16796875 1817.00390625 c 0,14,15
 5.83203125 1791.74511719 5.83203125 1791.74511719 -20.7578125 1793.75 c 0,16,17
 -61.330078125 1799.15917969 -61.330078125 1799.15917969 -64.7353515625 1840.84082031 c 0,18,19
 -67.830078125 1878.71386719 -67.830078125 1878.71386719 -34.7578125 1895.25 c 0,20,21
 -15.60546875 1903.69921875 -15.60546875 1903.69921875 133.587890625 1951.42285156 c 0,22,23
 145.408203125 1955.24121094 145.408203125 1955.24121094 154.2421875 1958.25 c 0,24,25
 178.7421875 1966.125 178.7421875 1966.125 226.8671875 1982.75 c 0,26,27
 275.602539062 1999.54394531 275.602539062 1999.54394531 299.4921875 2007.25 c 0,28,29
 307.3203125 2009.65820312 307.3203125 2009.65820312 323.526367188 2015.77050781 c 0,30,31
 355.76171875 2027.52734375 355.76171875 2027.52734375 371.2421875 2030 c 0,0,1
371.2421875 1792 m 0,32,33
 411.28515625 1801.66503906 411.28515625 1801.66503906 429.227539062 1761.89648438 c 0,34,35
 445.442382812 1725.95605469 445.442382812 1725.95605469 416.7421875 1701 c 0,36,37
 404.296875 1690.46875 404.296875 1690.46875 341.342773438 1672.26269531 c 0,38,39
 332.78125 1669.65527344 332.78125 1669.65527344 327.4921875 1667.75 c 0,40,41
 280.569335938 1649.71484375 280.569335938 1649.71484375 92.9921875 1587.25 c 0,42,43
 83.1376953125 1584.13769531 83.1376953125 1584.13769531 60.79296875 1574.94824219 c 0,44,45
 3.5556640625 1552.20117188 3.5556640625 1552.20117188 -20.7578125 1554 c 0,46,47
 -61.330078125 1559.40917969 -61.330078125 1559.40917969 -64.7353515625 1601.09082031 c 0,48,49
 -67.830078125 1638.96386719 -67.830078125 1638.96386719 -34.7578125 1655.5 c 0,50,51
 -23.3232421875 1660.51074219 -23.3232421875 1660.51074219 35.2421875 1678.25 c 1,52,53
 104.549804688 1704.41992188 104.549804688 1704.41992188 189.2421875 1730.75 c 0,54,55
 206.297851562 1736.76953125 206.297851562 1736.76953125 240.799804688 1749.99902344 c 0,56,57
 328.135742188 1783.16796875 328.135742188 1783.16796875 371.2421875 1792 c 0,32,33
EndSplineSet
EndChar

StartChar: afii57452
Encoding: 1612 1612 312
AltUni2: 00fe72.ffffffff.0
Width: 65
VWidth: 1750
GlyphClass: 2
Flags: HW
AnchorPoint: "GposMark2BaseAnchorHamzaErabAbove_01_01" 177.078 1555.33 mark 0
AnchorPoint: "GposMark2BaseAnchorHamzaErabBelow_01_01" 177.078 2150.35 mark 0
AnchorPoint: "GposMark2BaseAnchorClassErabAbove_01_02" 177.078 1555.33 mark 0
AnchorPoint: "GposMark2MarkAnchorHamzaErabAbove_01_01" 177.078 1555.33 mark 0
AnchorPoint: "GposMark2MarkAnchorHamzaErabBelow_01_01" 177.078 2150.35 mark 0
AnchorPoint: "GposMark2MarkAnchorShaddaErabAbove_01_02" 177.078 1555.33 mark 0
AnchorPoint: "GposMark2MarkAnchorShaddaErabBelow_01_02" 177.078 2150.35 mark 0
LayerCount: 2
Fore
SplineSet
232.361328125 1760.5 m 1,0,1
 186.876953125 1777.7890625 186.876953125 1777.7890625 146.611328125 1834 c 1,2,3
 110.99609375 1890.75195312 110.99609375 1890.75195312 108.111328125 1937.25 c 1,4,5
 106.465820312 2039.31152344 106.465820312 2039.31152344 158.861328125 2093 c 0,6,7
 214.361328125 2150.35058594 214.361328125 2150.35058594 300.866210938 2147.91796875 c 0,8,9
 349.162109375 2146.55957031 349.162109375 2146.55957031 381.111328125 2121 c 0,10,11
 443.276367188 2071.86425781 443.276367188 2071.86425781 444.111328125 1970.5 c 0,12,13
 444.111328125 1918 444.111328125 1918 418.5390625 1829.37109375 c 2,14,-1
 417.861328125 1827 l 1,15,16
 456.298828125 1824.15234375 456.298828125 1824.15234375 465.321289062 1784.74414062 c 1,17,18
 471.022460938 1750.29101562 471.022460938 1750.29101562 444.111328125 1730.75 c 1,19,20
 425.5390625 1720.08007812 425.5390625 1720.08007812 377.611328125 1720.25 c 0,21,22
 349.815429688 1719.41210938 349.815429688 1719.41210938 347.861328125 1718.5 c 0,23,24
 334.653320312 1710.57519531 334.653320312 1710.57519531 310.6640625 1689.203125 c 0,25,26
 285.734375 1667.47949219 285.734375 1667.47949219 272.611328125 1659 c 0,27,28
 198.641601562 1615.93359375 198.641601562 1615.93359375 52.111328125 1575 c 0,29,30
 -12.50390625 1555.33496094 -12.50390625 1555.33496094 -23.017578125 1555.36328125 c 0,31,32
 -55.3310546875 1558.41503906 -55.3310546875 1558.41503906 -66.888671875 1589 c 0,33,34
 -77.85546875 1617.78710938 -77.85546875 1617.78710938 -42.26171875 1666.12695312 c 0,35,36
 -33.8994140625 1677.48339844 -33.8994140625 1677.48339844 -30.138671875 1683.5 c 0,37,38
 22.1201171875 1777.45703125 22.1201171875 1777.45703125 8.361328125 1844.5 c 1,39,40
 -3.1064453125 1840.67773438 -3.1064453125 1840.67773438 -23.373046875 1814.70800781 c 0,41,42
 -37.1533203125 1799.38378906 -37.1533203125 1799.38378906 -49.388671875 1795.5 c 0,43,44
 -89.099609375 1784.15429688 -89.099609375 1784.15429688 -109.256835938 1819.82519531 c 0,45,46
 -116.8671875 1835.47460938 -116.8671875 1835.47460938 -115.888671875 1851.5 c 0,47,48
 -112.760742188 1873.32617188 -112.760742188 1873.32617188 -91.388671875 1902.25 c 1,49,50
 -44.8798828125 1956.51074219 -44.8798828125 1956.51074219 22.5888671875 1949.39453125 c 0,51,52
 58.0341796875 1944.34472656 58.0341796875 1944.34472656 81.861328125 1921.5 c 1,53,54
 127.506835938 1871.34960938 127.506835938 1871.34960938 118.611328125 1790.25 c 1,55,56
 107.098632812 1724.28125 107.098632812 1724.28125 94.111328125 1697.5 c 1,57,-1
 178.111328125 1729 l 1,58,-1
 232.361328125 1758.75 l 1,59,-1
 232.361328125 1760.5 l 1,0,1
307.611328125 1841 m 1,60,61
 330.94140625 1896.66210938 330.94140625 1896.66210938 333.861328125 1916.25 c 0,62,63
 340.583007812 1952.40527344 340.583007812 1952.40527344 339.111328125 1972.25 c 0,64,65
 333.74609375 2021.67675781 333.74609375 2021.67675781 316.361328125 2038.75 c 1,66,67
 305.934570312 2043.60839844 305.934570312 2043.60839844 290.111328125 2040.5 c 0,68,69
 249.1640625 2035.83496094 249.1640625 2035.83496094 228.861328125 2012.5 c 1,70,71
 193.375976562 1965.18554688 193.375976562 1965.18554688 227.883789062 1903.65820312 c 0,72,73
 238.717773438 1885.83300781 238.717773438 1885.83300781 251.611328125 1874.25 c 0,74,75
 278.560546875 1851.09179688 278.560546875 1851.09179688 307.611328125 1841 c 1,60,61
EndSplineSet
EndChar

StartChar: afii57453
Encoding: 1613 1613 313
AltUni2: 00fe74.ffffffff.0
Width: 13
VWidth: 1750
GlyphClass: 2
Flags: HW
AnchorPoint: "GposMark2BaseAnchorClassErabBelow_01_02" -35.3184 -133.835 mark 0
LayerCount: 2
Fore
SplineSet
148.2421875 -143.5 m 0,0,1
 188.28515625 -133.834960938 188.28515625 -133.834960938 206.227539062 -173.603515625 c 1,2,3
 220.193359375 -209.631835938 220.193359375 -209.631835938 193.7421875 -234.5 c 0,4,5
 181.296875 -245.03125 181.296875 -245.03125 118.342773438 -263.237304688 c 0,6,7
 109.78125 -265.844726562 109.78125 -265.844726562 104.4921875 -267.75 c 0,8,9
 57.5693359375 -285.78515625 57.5693359375 -285.78515625 -130.0078125 -348.25 c 0,10,11
 -139.862304688 -351.362304688 -139.862304688 -351.362304688 -162.20703125 -360.551757812 c 0,12,13
 -219.130859375 -383.962890625 -219.130859375 -383.962890625 -243.7578125 -381.5 c 0,14,15
 -284.330078125 -376.090820312 -284.330078125 -376.090820312 -287.735351562 -334.409179688 c 0,16,17
 -290.830078125 -296.536132812 -290.830078125 -296.536132812 -257.7578125 -280 c 0,18,19
 -246.323242188 -274.989257812 -246.323242188 -274.989257812 -187.7578125 -257.25 c 1,20,21
 -118.450195312 -231.080078125 -118.450195312 -231.080078125 -33.7578125 -204.75 c 0,22,23
 -16.7021484375 -198.73046875 -16.7021484375 -198.73046875 17.7998046875 -185.500976562 c 0,24,25
 105.135742188 -152.33203125 105.135742188 -152.33203125 148.2421875 -143.5 c 0,0,1
148.2421875 -383.25 m 0,26,27
 188.28515625 -373.584960938 188.28515625 -373.584960938 206.227539062 -413.353515625 c 1,28,29
 220.193359375 -449.381835938 220.193359375 -449.381835938 193.7421875 -474.25 c 0,30,31
 178.512695312 -487.303710938 178.512695312 -487.303710938 102.428710938 -509.583984375 c 0,32,33
 96.078125 -511.504882812 96.078125 -511.504882812 92.2421875 -512.75 c 0,34,35
 55.4921875 -525 55.4921875 -525 -18.8828125 -549.5 c 0,36,37
 -93.8232421875 -574.193359375 -93.8232421875 -574.193359375 -130.0078125 -586.25 c 0,38,39
 -137.71875 -589.090820312 -137.71875 -589.090820312 -154.83203125 -596.24609375 c 0,40,41
 -217.16796875 -621.504882812 -217.16796875 -621.504882812 -243.7578125 -619.5 c 0,42,43
 -284.330078125 -614.090820312 -284.330078125 -614.090820312 -287.735351562 -572.409179688 c 1,44,45
 -288.6171875 -535.053710938 -288.6171875 -535.053710938 -257.7578125 -518 c 1,46,47
 -238.60546875 -509.55078125 -238.60546875 -509.55078125 -89.412109375 -461.827148438 c 0,48,49
 -77.591796875 -458.008789062 -77.591796875 -458.008789062 -68.7578125 -455 c 0,50,51
 -44.2578125 -447.125 -44.2578125 -447.125 3.8671875 -430.5 c 0,52,53
 52.6025390625 -413.706054688 52.6025390625 -413.706054688 76.4921875 -406 c 0,54,55
 84.3203125 -403.591796875 84.3203125 -403.591796875 100.526367188 -397.479492188 c 0,56,57
 132.76171875 -385.72265625 132.76171875 -385.72265625 148.2421875 -383.25 c 0,26,27
EndSplineSet
EndChar

StartChar: afii57454
Encoding: 1614 1614 314
AltUni2: 00fe76.ffffffff.0
Width: 27
VWidth: 1750
GlyphClass: 2
Flags: HW
AnchorPoint: "GposMark2BaseAnchorHamzaErabAbove_01_01" 160.806 1552.2 mark 0
AnchorPoint: "GposMark2BaseAnchorHamzaErabBelow_01_01" 160.806 1801.67 mark 0
AnchorPoint: "GposMark2BaseAnchorClassErabAbove_01_02" 160.806 1552.2 mark 0
AnchorPoint: "GposMark2MarkAnchorHamzaErabAbove_01_01" 160.806 1552.2 mark 0
AnchorPoint: "GposMark2MarkAnchorHamzaErabBelow_01_01" 160.806 1801.67 mark 0
AnchorPoint: "GposMark2MarkAnchorShaddaErabAbove_01_02" 160.806 1552.2 mark 0
AnchorPoint: "GposMark2MarkAnchorShaddaErabBelow_01_02" 160.806 1801.67 mark 0
LayerCount: 2
Fore
SplineSet
343.2421875 1792 m 0,0,1
 383.28515625 1801.66503906 383.28515625 1801.66503906 401.227539062 1761.89648438 c 0,2,3
 417.442382812 1725.95605469 417.442382812 1725.95605469 388.7421875 1701 c 0,4,5
 376.296875 1690.46875 376.296875 1690.46875 313.342773438 1672.26269531 c 0,6,7
 304.78125 1669.65527344 304.78125 1669.65527344 299.4921875 1667.75 c 0,8,9
 252.569335938 1649.71484375 252.569335938 1649.71484375 64.9921875 1587.25 c 0,10,11
 55.1376953125 1584.13769531 55.1376953125 1584.13769531 32.79296875 1574.94824219 c 0,12,13
 -24.4443359375 1552.20117188 -24.4443359375 1552.20117188 -48.7578125 1554 c 0,14,15
 -89.330078125 1559.40917969 -89.330078125 1559.40917969 -92.7353515625 1601.09082031 c 0,16,17
 -95.830078125 1638.96386719 -95.830078125 1638.96386719 -62.7578125 1655.5 c 0,18,19
 -51.3232421875 1660.51074219 -51.3232421875 1660.51074219 7.2421875 1678.25 c 1,20,21
 76.5498046875 1704.41992188 76.5498046875 1704.41992188 161.2421875 1730.75 c 0,22,23
 178.297851562 1736.76953125 178.297851562 1736.76953125 212.799804688 1749.99902344 c 0,24,25
 300.135742188 1783.16796875 300.135742188 1783.16796875 343.2421875 1792 c 0,0,1
EndSplineSet
EndChar

StartChar: afii57455
Encoding: 1615 1615 315
AltUni2: 00fe78.ffffffff.0
Width: -11
VWidth: 1750
GlyphClass: 2
Flags: HW
AnchorPoint: "GposMark2BaseAnchorHamzaErabAbove_01_01" 98.0166 1544.67 mark 0
AnchorPoint: "GposMark2BaseAnchorHamzaErabBelow_01_01" 98.0166 2151.18 mark 0
AnchorPoint: "GposMark2BaseAnchorClassErabAbove_01_02" 98.0166 1544.67 mark 0
AnchorPoint: "GposMark2MarkAnchorHamzaErabAbove_01_01" 98.0166 1544.67 mark 0
AnchorPoint: "GposMark2MarkAnchorHamzaErabBelow_01_01" 98.0166 2151.18 mark 0
AnchorPoint: "GposMark2MarkAnchorShaddaErabAbove_01_02" 98.0166 1544.67 mark 0
AnchorPoint: "GposMark2MarkAnchorShaddaErabBelow_01_02" 98.0166 2151.18 mark 0
LayerCount: 2
Fore
SplineSet
115.369140625 1758.75 m 1,0,1
 45.2841796875 1807.88574219 45.2841796875 1807.88574219 20.869140625 1849.75 c 0,2,3
 -32.4345703125 1937.90625 -32.4345703125 1937.90625 2.8330078125 2031.79101562 c 0,4,5
 17.740234375 2068.90722656 17.740234375 2068.90722656 43.619140625 2094.75 c 0,6,7
 102.22265625 2151.18359375 102.22265625 2151.18359375 186.133789062 2148.7265625 c 0,8,9
 218.795898438 2147.015625 218.795898438 2147.015625 243.119140625 2135 c 0,10,11
 288.829101562 2110.34960938 288.829101562 2110.34960938 309.619140625 2056.25 c 0,12,13
 325.259765625 2015.37304688 325.259765625 2015.37304688 325.369140625 1947.75 c 0,14,15
 324.612304688 1885.20117188 324.612304688 1885.20117188 297.369140625 1827 c 1,16,17
 337.66015625 1825.61035156 337.66015625 1825.61035156 348.096679688 1785.60546875 c 1,18,19
 355.299804688 1749.08691406 355.299804688 1749.08691406 325.369140625 1729 c 1,20,21
 307.2421875 1720.07421875 307.2421875 1720.07421875 257.119140625 1720.25 c 2,22,-1
 230.869140625 1720.25 l 2,23,24
 229.66796875 1719.56347656 229.66796875 1719.56347656 204.694335938 1695.46972656 c 0,25,26
 202.001953125 1693.04589844 202.001953125 1693.04589844 201.119140625 1692.25 c 0,27,28
 172.08203125 1669.31054688 172.08203125 1669.31054688 145.119140625 1652 c 0,29,30
 67.294921875 1604.63964844 67.294921875 1604.63964844 -80.630859375 1557.5 c 0,31,32
 -120.55078125 1544.66894531 -120.55078125 1544.66894531 -142.609375 1581.05859375 c 1,33,34
 -159.266601562 1612.45800781 -159.266601562 1612.45800781 -138.380859375 1639.75 c 0,35,36
 -127.415039062 1652.39453125 -127.415039062 1652.39453125 -96.380859375 1662.5 c 0,37,38
 -81.505859375 1668.625 -81.505859375 1668.625 -51.755859375 1679.125 c 0,39,40
 -21.4228515625 1689.9296875 -21.4228515625 1689.9296875 -7.130859375 1695.75 c 0,41,42
 -1.0859375 1698.16796875 -1.0859375 1698.16796875 92.43359375 1747.40136719 c 0,43,44
 105.505859375 1754.16699219 105.505859375 1754.16699219 115.369140625 1758.75 c 1,0,1
180.119140625 2042.25 m 1,45,46
 144.690429688 2037.81542969 144.690429688 2037.81542969 129.369140625 2028.25 c 0,47,48
 82.0849609375 1997.41210938 82.0849609375 1997.41210938 99.0068359375 1932.65234375 c 0,49,50
 102.799804688 1918.13574219 102.799804688 1918.13574219 110.119140625 1905.75 c 0,51,52
 128.494140625 1871.625 128.494140625 1871.625 162.619140625 1853.25 c 0,53,54
 178.62109375 1843.87792969 178.62109375 1843.87792969 187.119140625 1844.5 c 0,55,56
 192.369140625 1844.5 192.369140625 1844.5 195.869140625 1852.375 c 128,-1,57
 199.369140625 1860.25 199.369140625 1860.25 203.744140625 1873.375 c 2,58,-1
 208.119140625 1886.5 l 2,59,60
 228.978515625 1952.13867188 228.978515625 1952.13867188 215.119140625 2005.5 c 1,61,62
 201.978515625 2042.04199219 201.978515625 2042.04199219 180.119140625 2042.25 c 1,45,46
EndSplineSet
EndChar

StartChar: afii57456
Encoding: 1616 1616 316
AltUni2: 00fe7a.ffffffff.0
Width: 24
VWidth: 1750
GlyphClass: 2
Flags: HW
AnchorPoint: "GposMark2BaseAnchorClassErabBelow_01_02" -29.3184 -133.835 mark 0
LayerCount: 2
Fore
SplineSet
154.2421875 -143.5 m 0,0,1
 194.28515625 -133.834960938 194.28515625 -133.834960938 212.227539062 -173.603515625 c 1,2,3
 226.193359375 -209.631835938 226.193359375 -209.631835938 199.7421875 -234.5 c 0,4,5
 187.296875 -245.03125 187.296875 -245.03125 124.342773438 -263.237304688 c 0,6,7
 115.78125 -265.844726562 115.78125 -265.844726562 110.4921875 -267.75 c 0,8,9
 63.5693359375 -285.78515625 63.5693359375 -285.78515625 -124.0078125 -348.25 c 0,10,11
 -133.862304688 -351.362304688 -133.862304688 -351.362304688 -156.20703125 -360.551757812 c 0,12,13
 -213.130859375 -383.962890625 -213.130859375 -383.962890625 -237.7578125 -381.5 c 0,14,15
 -278.330078125 -376.090820312 -278.330078125 -376.090820312 -281.735351562 -334.409179688 c 0,16,17
 -284.830078125 -296.536132812 -284.830078125 -296.536132812 -251.7578125 -280 c 0,18,19
 -240.323242188 -274.989257812 -240.323242188 -274.989257812 -181.7578125 -257.25 c 1,20,21
 -112.450195312 -231.080078125 -112.450195312 -231.080078125 -27.7578125 -204.75 c 0,22,23
 -10.7021484375 -198.73046875 -10.7021484375 -198.73046875 23.7998046875 -185.500976562 c 0,24,25
 111.135742188 -152.33203125 111.135742188 -152.33203125 154.2421875 -143.5 c 0,0,1
EndSplineSet
EndChar

StartChar: afii57457
Encoding: 1617 1617 317
AltUni2: 00fe7c.ffffffff.0
Width: 90
VWidth: 1750
GlyphClass: 2
Flags: HW
AnchorPoint: "GposMark2BaseAnchorHamzaErabAbove_01_01" 199.333 1534.36 mark 0
AnchorPoint: "GposMark2BaseAnchorHamzaErabBelow_01_01" 199.333 1967.51 mark 0
AnchorPoint: "GposMark2BaseAnchorClassErabAbove_01_02" 199.333 1534.36 mark 0
AnchorPoint: "GposMark2MarkAnchorHamzaErabAbove_01_01" 199.333 1534.36 mark 0
AnchorPoint: "GposMark2MarkAnchorHamzaErabBelow_01_01" 199.333 1967.51 mark 0
AnchorPoint: "GposMark2MarkAnchorShaddaErabAbove_01_02" 199.333 2117.51 basemark 0
AnchorPoint: "GposMark2MarkAnchorShaddaErabBelow_01_02" 199.333 1384.36 basemark 0
LayerCount: 2
Fore
SplineSet
204.25 1678.25 m 1,0,1
 186.857421875 1610.16503906 186.857421875 1610.16503906 148.25 1575 c 1,2,3
 97.4462890625 1534.35742188 97.4462890625 1534.35742188 31.9267578125 1560.484375 c 0,4,5
 9.3134765625 1570.42578125 9.3134765625 1570.42578125 -5.75 1585.5 c 0,6,7
 -52.6826171875 1634.24121094 -52.6826171875 1634.24121094 -53 1743 c 0,8,9
 -52.6669921875 1787.64550781 -52.6669921875 1787.64550781 -51.25 1795.5 c 0,10,11
 -45.2744140625 1819.40234375 -45.2744140625 1819.40234375 -13.9130859375 1816.29003906 c 0,12,13
 -4.98046875 1815.40332031 -4.98046875 1815.40332031 1.25 1811.25 c 0,14,15
 8.0205078125 1806.4140625 8.0205078125 1806.4140625 12.6005859375 1781.86425781 c 0,16,17
 13.26171875 1779.01171875 13.26171875 1779.01171875 13.5 1778 c 0,18,19
 17.4189453125 1763.00097656 17.4189453125 1763.00097656 36.25 1750 c 1,20,21
 91.693359375 1718.81347656 91.693359375 1718.81347656 140.59765625 1789.54589844 c 0,22,23
 153.758789062 1809.44238281 153.758789062 1809.44238281 160.5 1828.75 c 0,24,25
 161.772460938 1833.41601562 161.772460938 1833.41601562 163.32421875 1844.85253906 c 0,26,27
 170.794921875 1882.5390625 170.794921875 1882.5390625 188.5 1886.5 c 1,28,29
 221.23828125 1887.85839844 221.23828125 1887.85839844 228.75 1869 c 0,30,31
 230.240234375 1864.52929688 230.240234375 1864.52929688 231.311523438 1856.26855469 c 0,32,33
 233.44921875 1844.55859375 233.44921875 1844.55859375 235.75 1839.25 c 0,34,35
 260.012695312 1804.99511719 260.012695312 1804.99511719 307.5 1816.5 c 1,36,37
 357.9453125 1830.91308594 357.9453125 1830.91308594 377.40625 1893.90429688 c 0,38,39
 378.606445312 1898.07910156 378.606445312 1898.07910156 379.25 1900.5 c 0,40,41
 380.358398438 1904.93261719 380.358398438 1904.93261719 381.911132812 1915.81835938 c 0,42,43
 386.223632812 1941.09667969 386.223632812 1941.09667969 391.5 1949.5 c 0,44,45
 405.004882812 1967.50585938 405.004882812 1967.50585938 432.668945312 1957.71289062 c 0,46,47
 440.498046875 1953.70898438 440.498046875 1953.70898438 444 1949.5 c 0,48,49
 451.665039062 1938.37304688 451.665039062 1938.37304688 447.5 1914.5 c 0,50,51
 446.625 1902.25 446.625 1902.25 444.875 1876.875 c 0,52,53
 443.083984375 1850.96777344 443.083984375 1850.96777344 442.25 1839.25 c 0,54,55
 433.888671875 1723.78222656 433.888671875 1723.78222656 402 1676.5 c 1,56,57
 365.625 1618.72851562 365.625 1618.72851562 293.9296875 1625.078125 c 0,58,59
 273.772460938 1627.43457031 273.772460938 1627.43457031 256.75 1634.5 c 0,60,61
 234 1645 234 1645 204.25 1678.25 c 1,0,1
EndSplineSet
EndChar

StartChar: afii57458
Encoding: 1618 1618 318
AltUni2: 00fe7e.ffffffff.0
Width: -12
VWidth: 1750
GlyphClass: 2
Flags: HW
AnchorPoint: "GposMark2BaseAnchorHamzaErabAbove_01_01" 132.533 1542.81 mark 0
AnchorPoint: "GposMark2BaseAnchorHamzaErabBelow_01_01" 132.533 2093.55 mark 0
AnchorPoint: "GposMark2BaseAnchorClassErabAbove_01_02" 132.533 1542.81 mark 0
AnchorPoint: "GposMark2MarkAnchorHamzaErabAbove_01_01" 132.533 1542.81 mark 0
AnchorPoint: "GposMark2MarkAnchorHamzaErabBelow_01_01" 132.533 2093.55 mark 0
AnchorPoint: "GposMark2MarkAnchorShaddaErabAbove_01_02" 132.533 1542.81 mark 0
AnchorPoint: "GposMark2MarkAnchorShaddaErabBelow_01_02" 132.533 2093.55 mark 0
LayerCount: 2
Fore
SplineSet
141.34375 2080.75 m 1,0,1
 232.750976562 2093.546875 232.750976562 2093.546875 281.66015625 1999.87988281 c 0,2,3
 295.95703125 1971.390625 295.95703125 1971.390625 302.34375 1940.75 c 0,4,5
 330.407226562 1800.43261719 330.407226562 1800.43261719 254.317382812 1662.31835938 c 0,6,7
 249.896484375 1654.45019531 249.896484375 1654.45019531 246.34375 1648.5 c 0,8,9
 197.6484375 1564.77734375 197.6484375 1564.77734375 122.09375 1554 c 1,10,11
 26.9716796875 1542.80957031 26.9716796875 1542.80957031 -20.7978515625 1642.73046875 c 0,12,13
 -33.0693359375 1669.43359375 -33.0693359375 1669.43359375 -38.90625 1697.5 c 0,14,15
 -65.3408203125 1829.671875 -65.3408203125 1829.671875 6.734375 1967.140625 c 0,16,17
 13.9130859375 1980.54589844 13.9130859375 1980.54589844 20.59375 1991.5 c 0,18,19
 71.546875 2067.95703125 71.546875 2067.95703125 141.34375 2080.75 c 1,0,1
139.59375 1923.25 m 0,20,21
 115.546875 1917.81152344 115.546875 1917.81152344 90.59375 1890 c 1,22,23
 41.962890625 1827.14941406 41.962890625 1827.14941406 52.09375 1757 c 0,24,25
 60.1533203125 1700.58398438 60.1533203125 1700.58398438 102.428710938 1691.23535156 c 0,26,27
 111.815429688 1689.15917969 111.815429688 1689.15917969 122.09375 1690.5 c 0,28,29
 179.52734375 1699.81347656 179.52734375 1699.81347656 201.571289062 1783.69140625 c 0,30,31
 211.6484375 1824.546875 211.6484375 1824.546875 206.09375 1856.75 c 0,32,33
 196.650390625 1919.70507812 196.650390625 1919.70507812 151.668945312 1923.5625 c 0,34,35
 144.862304688 1923.77832031 144.862304688 1923.77832031 139.59375 1923.25 c 0,20,21
EndSplineSet
EndChar

StartChar: uni0653
Encoding: 1619 1619 319
Width: 105
VWidth: 1750
GlyphClass: 2
Flags: HW
AnchorPoint: "GposMark2BaseAnchorHamzaErabAbove_01_01" 236.447 1585.48 mark 0
AnchorPoint: "GposMark2BaseAnchorHamzaErabBelow_01_01" 236.447 1883.91 mark 0
AnchorPoint: "GposMark2BaseAnchorClassErabAbove_01_02" 236.447 1585.48 mark 0
AnchorPoint: "GposMark2MarkAnchorHamzaErabAbove_01_01" 236.447 1585.48 mark 0
AnchorPoint: "GposMark2MarkAnchorHamzaErabBelow_01_01" 236.447 1883.91 mark 0
AnchorPoint: "GposMark2MarkAnchorShaddaErabAbove_01_02" 236.447 1585.48 mark 0
AnchorPoint: "GposMark2MarkAnchorShaddaErabBelow_01_02" 236.447 1883.91 mark 0
LayerCount: 2
Fore
SplineSet
35.5625 1881.25 m 0,0,1
 65.3701171875 1883.91210938 65.3701171875 1883.91210938 133.5625 1863.75 c 0,2,3
 148.66015625 1859.51171875 148.66015625 1859.51171875 270.504882812 1809.77636719 c 0,4,5
 366.16015625 1771.72460938 366.16015625 1771.72460938 432.8125 1779.75 c 1,6,7
 500.434570312 1792.06152344 500.434570312 1792.06152344 546.5625 1832.25 c 0,8,9
 550.963867188 1835.91796875 550.963867188 1835.91796875 559.862304688 1844.73242188 c 0,10,11
 595.1640625 1879.69921875 595.1640625 1879.69921875 620.0625 1867.25 c 0,12,13
 665.120117188 1842.81054688 665.120117188 1842.81054688 616.5625 1755.25 c 0,14,15
 549.79296875 1637.11914062 549.79296875 1637.11914062 419.202148438 1605.3359375 c 0,16,17
 408.54296875 1602.86035156 408.54296875 1602.86035156 399.5625 1601.25 c 0,18,19
 305.579101562 1585.48144531 305.579101562 1585.48144531 168.5625 1636.25 c 1,20,21
 42.0380859375 1678.16796875 42.0380859375 1678.16796875 -1.1875 1680 c 1,22,23
 -45.6240234375 1679.09667969 -45.6240234375 1679.09667969 -81.6875 1659 c 0,24,25
 -86.55078125 1655.87402344 -86.55078125 1655.87402344 -95.7939453125 1648.98339844 c 0,26,27
 -132.84375 1624.10449219 -132.84375 1624.10449219 -156.9375 1636.25 c 1,28,29
 -192.225585938 1658.44042969 -192.225585938 1658.44042969 -162.1875 1739.5 c 0,30,31
 -116.990234375 1858.93164062 -116.990234375 1858.93164062 35.5625 1881.25 c 0,0,1
EndSplineSet
EndChar

StartChar: uni0654
Encoding: 1620 1620 320
Width: 107
VWidth: 1750
GlyphClass: 2
Flags: HW
AnchorPoint: "GposMark2BaseAnchorClassErabAbove_01_02" 205.042 1551.98 mark 0
AnchorPoint: "GposMark2MarkAnchorHamzaErabAbove_01_01" 205.042 2225.69 basemark 0
AnchorPoint: "GposMark2MarkAnchorHamzaErabBelow_01_01" 205.042 1401.98 basemark 0
LayerCount: 2
Fore
SplineSet
253.967773438 2066.75 m 0,0,1
 311.203125 2075.69335938 311.203125 2075.69335938 352.860351562 2037.08300781 c 1,2,3
 383.909179688 2005.55761719 383.909179688 2005.55761719 372.967773438 1965.25 c 0,4,5
 369.963867188 1954.86914062 369.963867188 1954.86914062 355.467773438 1940.75 c 0,6,7
 351.706054688 1936.98828125 351.706054688 1936.98828125 343.056640625 1926.88574219 c 0,8,9
 310.400390625 1890.79589844 310.400390625 1890.79589844 292.467773438 1888.25 c 0,10,11
 282.893554688 1887.45214844 282.893554688 1887.45214844 253.956054688 1905.90429688 c 0,12,13
 244.405273438 1911.21386719 244.405273438 1911.21386719 238.217773438 1912.75 c 0,14,15
 192.141601562 1924.6953125 192.141601562 1924.6953125 163.267578125 1878.75390625 c 0,16,17
 149.543945312 1854.88867188 149.543945312 1854.88867188 150.717773438 1830.5 c 1,18,19
 154.087890625 1806.25390625 154.087890625 1806.25390625 213.717773438 1786.75 c 0,20,21
 231.331054688 1782.05371094 231.331054688 1782.05371094 281.674804688 1792.95898438 c 0,22,23
 284.46875 1793.54199219 284.46875 1793.54199219 285.467773438 1793.75 c 0,24,25
 287.459960938 1794.03125 287.459960938 1794.03125 365.967773438 1804.25 c 0,26,27
 418.102539062 1811.44824219 418.102539062 1811.44824219 434.217773438 1793.75 c 1,28,29
 448.116210938 1775.68164062 448.116210938 1775.68164062 416.291992188 1720.32910156 c 0,30,31
 412.967773438 1714.36914062 412.967773438 1714.36914062 411.467773438 1711.5 c 0,32,33
 402.91015625 1693.45800781 402.91015625 1693.45800781 393.967773438 1687 c 0,34,35
 386.877929688 1683.26074219 386.877929688 1683.26074219 358.967773438 1680 c 0,36,37
 349.342773438 1678.25 349.342773438 1678.25 329.217773438 1674.75 c 0,38,39
 308.573242188 1671.14746094 308.573242188 1671.14746094 299.467773438 1669.5 c 0,40,41
 216.88671875 1649.18164062 216.88671875 1649.18164062 131.467773438 1613.5 c 0,42,43
 113.600585938 1605.52050781 113.600585938 1605.52050781 61.4677734375 1573.25 c 0,44,45
 33.5009765625 1555.62304688 33.5009765625 1555.62304688 24.7177734375 1554 c 0,46,47
 -1.4970703125 1551.98339844 -1.4970703125 1551.98339844 -8.8818359375 1577.83007812 c 0,48,49
 -10.7099609375 1587.86132812 -10.7099609375 1587.86132812 -8.5322265625 1596 c 0,50,51
 -4.876953125 1606.84667969 -4.876953125 1606.84667969 15.9677734375 1631 c 0,52,53
 31.251953125 1649.18359375 31.251953125 1649.18359375 29.9677734375 1653.75 c 0,54,55
 28.95703125 1656.10839844 28.95703125 1656.10839844 7.728515625 1680.12109375 c 0,56,57
 4.9169921875 1683.65234375 4.9169921875 1683.65234375 3.7177734375 1685.25 c 0,58,59
 -32.01953125 1735.76855469 -32.01953125 1735.76855469 -34.7822265625 1774.5 c 0,60,61
 -38.033203125 1829.95117188 -38.033203125 1829.95117188 7.2177734375 1895.25 c 0,62,63
 83.7431640625 2006.3359375 83.7431640625 2006.3359375 198.969726562 2051.38183594 c 0,64,65
 227.827148438 2062.27050781 227.827148438 2062.27050781 253.967773438 2066.75 c 0,0,1
EndSplineSet
EndChar

StartChar: uni0655
Encoding: 1621 1621 321
Width: 108
VWidth: 1750
GlyphClass: 2
Flags: HW
AnchorPoint: "GposMark2BaseAnchorClassErabBelow_01_02" -14.9585 -136.307 mark 0
LayerCount: 2
Fore
SplineSet
33.9677734375 -145.25 m 0,0,1
 91.203125 -136.306640625 91.203125 -136.306640625 132.860351562 -174.916992188 c 1,2,3
 163.909179688 -206.442382812 163.909179688 -206.442382812 152.967773438 -246.75 c 0,4,5
 149.963867188 -257.130859375 149.963867188 -257.130859375 135.467773438 -271.25 c 0,6,7
 131.706054688 -275.01171875 131.706054688 -275.01171875 123.056640625 -285.114257812 c 0,8,9
 90.400390625 -321.204101562 90.400390625 -321.204101562 72.4677734375 -323.75 c 0,10,11
 62.8935546875 -324.547851562 62.8935546875 -324.547851562 33.9560546875 -306.095703125 c 0,12,13
 24.4052734375 -300.786132812 24.4052734375 -300.786132812 18.2177734375 -299.25 c 0,14,15
 -27.8583984375 -287.3046875 -27.8583984375 -287.3046875 -56.732421875 -333.24609375 c 0,16,17
 -70.4560546875 -357.111328125 -70.4560546875 -357.111328125 -69.2822265625 -381.5 c 1,18,19
 -65.912109375 -405.74609375 -65.912109375 -405.74609375 -6.2822265625 -425.25 c 0,20,21
 11.3310546875 -429.946289062 11.3310546875 -429.946289062 61.6748046875 -419.041015625 c 0,22,23
 64.46875 -418.458007812 64.46875 -418.458007812 65.4677734375 -418.25 c 0,24,25
 67.4599609375 -417.96875 67.4599609375 -417.96875 145.967773438 -407.75 c 0,26,27
 198.102539062 -400.551757812 198.102539062 -400.551757812 214.217773438 -418.25 c 1,28,29
 228.116210938 -436.318359375 228.116210938 -436.318359375 196.291992188 -491.670898438 c 0,30,31
 192.967773438 -497.630859375 192.967773438 -497.630859375 191.467773438 -500.5 c 0,32,33
 182.91015625 -518.541992188 182.91015625 -518.541992188 173.967773438 -525 c 0,34,35
 166.877929688 -528.739257812 166.877929688 -528.739257812 138.967773438 -532 c 0,36,37
 129.342773438 -533.75 129.342773438 -533.75 109.217773438 -537.25 c 0,38,39
 88.5732421875 -540.852539062 88.5732421875 -540.852539062 79.4677734375 -542.5 c 0,40,41
 -3.11328125 -562.818359375 -3.11328125 -562.818359375 -88.5322265625 -598.5 c 0,42,43
 -106.399414062 -606.479492188 -106.399414062 -606.479492188 -158.532226562 -638.75 c 0,44,45
 -186.499023438 -656.376953125 -186.499023438 -656.376953125 -195.282226562 -658 c 0,46,47
 -221.497070312 -660.016601562 -221.497070312 -660.016601562 -228.881835938 -634.169921875 c 0,48,49
 -230.709960938 -624.138671875 -230.709960938 -624.138671875 -228.532226562 -616 c 0,50,51
 -224.876953125 -605.153320312 -224.876953125 -605.153320312 -204.032226562 -581 c 0,52,53
 -188.748046875 -562.81640625 -188.748046875 -562.81640625 -190.032226562 -558.25 c 0,54,55
 -191.04296875 -555.891601562 -191.04296875 -555.891601562 -212.271484375 -531.87890625 c 0,56,57
 -215.083007812 -528.34765625 -215.083007812 -528.34765625 -216.282226562 -526.75 c 0,58,59
 -252.01953125 -476.231445312 -252.01953125 -476.231445312 -254.782226562 -437.5 c 0,60,61
 -258.033203125 -382.048828125 -258.033203125 -382.048828125 -212.782226562 -316.75 c 0,62,63
 -136.256835938 -205.6640625 -136.256835938 -205.6640625 -21.0302734375 -160.618164062 c 0,64,65
 7.8271484375 -149.729492188 7.8271484375 -149.729492188 33.9677734375 -145.25 c 0,0,1
EndSplineSet
EndChar

StartChar: uni0656
Encoding: 1622 1622 322
Width: 35
VWidth: 1750
GlyphClass: 2
Flags: HW
AnchorPoint: "GposMark2BaseAnchorClassErabBelow_01_02" -43.5049 -94.084 mark 0
LayerCount: 2
Fore
SplineSet
-4.955078125 -98 m 0,0,1
 16.8486328125 -94.083984375 16.8486328125 -94.083984375 24.794921875 -113.75 c 1,2,3
 27.3994140625 -133.883789062 27.3994140625 -133.883789062 24.794921875 -213.5 c 1,4,-1
 24.794921875 -572.25 l 2,5,6
 24.68359375 -577.225585938 24.68359375 -577.225585938 19.544921875 -656.25 c 1,7,8
 13.6708984375 -681.669921875 13.6708984375 -681.669921875 2.044921875 -686 c 0,9,10
 -17.02734375 -691.548828125 -17.02734375 -691.548828125 -39.955078125 -665 c 0,11,12
 -83.0791015625 -614.053710938 -83.0791015625 -614.053710938 -90.705078125 -563.5 c 0,13,14
 -90.95703125 -560.833007812 -90.95703125 -560.833007812 -106.455078125 -357 c 0,15,16
 -106.958007812 -348.94921875 -106.958007812 -348.94921875 -109.16015625 -331.092773438 c 0,17,18
 -114.409179688 -283.8984375 -114.409179688 -283.8984375 -109.955078125 -264.25 c 0,19,20
 -106.79296875 -248.4375 -106.79296875 -248.4375 -69.13671875 -190.140625 c 0,21,22
 -67.080078125 -186.891601562 -67.080078125 -186.891601562 -66.205078125 -185.5 c 0,23,24
 -41.22265625 -142.916992188 -41.22265625 -142.916992188 -27.705078125 -122.5 c 0,25,26
 -14.5556640625 -100.711914062 -14.5556640625 -100.711914062 -4.955078125 -98 c 0,0,1
EndSplineSet
EndChar

StartChar: uni0670
Encoding: 1648 1648 326
Width: 35
VWidth: 1750
GlyphClass: 2
Flags: HW
AnchorPoint: "GposMark2BaseAnchorHamzaErabAbove_01_01" 123.495 1550.2 mark 0
AnchorPoint: "GposMark2BaseAnchorHamzaErabBelow_01_01" 123.495 2147.67 mark 0
AnchorPoint: "GposMark2BaseAnchorClassErabAbove_01_02" 123.495 1550.2 mark 0
AnchorPoint: "GposMark2MarkAnchorHamzaErabAbove_01_01" 123.495 1550.2 mark 0
AnchorPoint: "GposMark2MarkAnchorHamzaErabBelow_01_01" 123.495 2147.67 mark 0
AnchorPoint: "GposMark2MarkAnchorShaddaErabAbove_01_02" 123.495 1550.2 mark 0
AnchorPoint: "GposMark2MarkAnchorShaddaErabBelow_01_02" 123.495 2147.67 mark 0
LayerCount: 2
Fore
SplineSet
162.044921875 2143.75 m 0,0,1
 183.848632812 2147.66601562 183.848632812 2147.66601562 191.794921875 2128 c 1,2,3
 194.399414062 2107.86621094 194.399414062 2107.86621094 191.794921875 2028.25 c 1,4,-1
 191.794921875 1669.5 l 2,5,6
 191.68359375 1664.52441406 191.68359375 1664.52441406 186.544921875 1585.5 c 1,7,8
 180.670898438 1560.08007812 180.670898438 1560.08007812 169.044921875 1555.75 c 0,9,10
 149.97265625 1550.20117188 149.97265625 1550.20117188 127.044921875 1576.75 c 0,11,12
 83.9208984375 1627.69628906 83.9208984375 1627.69628906 76.294921875 1678.25 c 0,13,14
 76.04296875 1680.91699219 76.04296875 1680.91699219 60.544921875 1884.75 c 0,15,16
 60.0419921875 1892.80078125 60.0419921875 1892.80078125 57.83984375 1910.65722656 c 0,17,18
 52.5908203125 1957.8515625 52.5908203125 1957.8515625 57.044921875 1977.5 c 0,19,20
 60.20703125 1993.3125 60.20703125 1993.3125 97.86328125 2051.609375 c 0,21,22
 99.919921875 2054.85839844 99.919921875 2054.85839844 100.794921875 2056.25 c 0,23,24
 125.77734375 2098.83300781 125.77734375 2098.83300781 139.294921875 2119.25 c 0,25,26
 152.444335938 2141.03808594 152.444335938 2141.03808594 162.044921875 2143.75 c 0,0,1
EndSplineSet
EndChar

StartChar: uni0674
Encoding: 1652 1652 327
Width: 110
GlyphClass: 2
Flags: HW
AnchorPoint: "GposMark2BaseAnchorClassErabAbove_01_02" 359.5 1014 mark 0
AnchorPoint: "GposMark2MarkAnchorHamzaErabAbove_01_01" 359.5 1579 basemark 0
AnchorPoint: "GposMark2MarkAnchorHamzaErabBelow_01_01" 359.5 864 basemark 0
LayerCount: 2
Fore
SplineSet
533 1178 m 2,0,1
 528 1160 528 1160 521 1145 c 128,-1,2
 514 1130 514 1130 509 1129 c 0,3,4
 461 1118 461 1118 421 1109 c 128,-1,5
 381 1100 381 1100 363 1095 c 0,6,7
 317 1082 317 1082 274 1062 c 128,-1,8
 231 1042 231 1042 196 1018 c 1,9,10
 192 1014 192 1014 188 1014 c 0,11,12
 185 1014 185 1014 180 1018 c 128,-1,13
 175 1022 175 1022 175 1025 c 256,14,15
 175 1028 175 1028 180 1032 c 1,16,-1
 180 1031 l 1,17,18
 191 1051 191 1051 217 1076 c 128,-1,19
 243 1101 243 1101 283 1136 c 1,20,21
 195 1171 195 1171 195 1233 c 0,22,23
 195 1282 195 1282 269 1355 c 1,24,25
 346 1429 346 1429 410 1429 c 0,26,27
 421 1429 421 1429 433.5 1425.5 c 128,-1,28
 446 1422 446 1422 456 1415.5 c 128,-1,29
 466 1409 466 1409 472.5 1400.5 c 128,-1,30
 479 1392 479 1392 479 1382 c 0,31,32
 479 1368 479 1368 475.5 1353.5 c 128,-1,33
 472 1339 472 1339 466 1327 c 128,-1,34
 460 1315 460 1315 452.5 1307.5 c 128,-1,35
 445 1300 445 1300 437 1300 c 0,36,37
 433 1300 433 1300 425.5 1307.5 c 128,-1,38
 418 1315 418 1315 408 1323.5 c 128,-1,39
 398 1332 398 1332 385.5 1339.5 c 128,-1,40
 373 1347 373 1347 359 1347 c 256,41,42
 345 1347 345 1347 329 1339.5 c 128,-1,43
 313 1332 313 1332 299 1321.5 c 128,-1,44
 285 1311 285 1311 276 1299 c 128,-1,45
 267 1287 267 1287 267 1277 c 0,46,47
 267 1259 267 1259 279 1244 c 128,-1,48
 291 1229 291 1229 309.5 1218 c 128,-1,49
 328 1207 328 1207 352 1201 c 128,-1,50
 376 1195 376 1195 400 1195 c 0,51,52
 403 1195 403 1195 424 1200 c 128,-1,53
 445 1205 445 1205 470 1210.5 c 128,-1,54
 495 1216 495 1216 517 1221 c 128,-1,55
 539 1226 539 1226 544 1226 c 1,56,-1
 533 1178 l 2,0,1
EndSplineSet
EndChar

StartChar: afii57388
Encoding: 1548 1548 329
Width: 605
VWidth: 1750
GlyphClass: 2
Flags: W
LayerCount: 2
Fore
SplineSet
171.985351562 222.25 m 1,0,1
 225.618164062 273.966796875 225.618164062 273.966796875 301.048828125 256.31640625 c 0,2,3
 336.23046875 246.943359375 336.23046875 246.943359375 359.235351562 224 c 0,2,3
 410.611328125 170.966796875 410.611328125 170.966796875 391.962890625 93.724609375 c 0,4,5
 378.322265625 43.953125 378.322265625 43.953125 339.985351562 19.25 c 1,4,5
 270.341796875 -21.576171875 270.341796875 -21.576171875 201.77734375 15.7216796875 c 0,6,7
 187.70703125 23.9580078125 187.70703125 23.9580078125 177.235351562 33.25 c 0,6,7
 141.3828125 65.7353515625 141.3828125 65.7353515625 122.985351562 122.5 c 0,8,9
 66.994140625 302.138671875 66.994140625 302.138671875 176.127929688 527.879882812 c 0,10,11
 178.845703125 533.447265625 178.845703125 533.447265625 180.735351562 537.25 c 0,10,11
 223.829101562 621.903320312 223.829101562 621.903320312 264.735351562 661.5 c 0,12,13
 286.651367188 681.423828125 286.651367188 681.423828125 310.627929688 654.056640625 c 0,14,15
 316.71484375 645.857421875 316.71484375 645.857421875 318.985351562 638.75 c 0,14,15
 320.735351562 630 320.735351562 630 318.110351562 623.875 c 0,16,17
 315.485351562 617.75 315.485351562 617.75 306.735351562 607.25 c 2,18,-1
 297.985351562 596.75 l 2,16,17
 263.666992188 553.231445312 263.666992188 553.231445312 241.985351562 512.75 c 0,18,19
 172.396484375 376.866210938 172.396484375 376.866210938 171.985351562 222.25 c 1,0,1
EndSplineSet
EndChar

StartChar: afii57403
Encoding: 1563 1563 334
Width: 583
VWidth: 1750
GlyphClass: 2
Flags: W
LayerCount: 2
Fore
SplineSet
170.544921875 698.25 m 1,0,1
 221.302734375 721.02734375 221.302734375 721.02734375 259.794921875 717.5 c 0,2,3
 334.690429688 710.1328125 334.690429688 710.1328125 363.666992188 636.2734375 c 0,4,5
 394.620117188 557.376953125 394.620117188 557.376953125 340.704101562 497.63671875 c 0,6,7
 337.059570312 493.79296875 337.059570312 493.79296875 335.044921875 491.75 c 0,4,5
 300.985351562 461.939453125 300.985351562 461.939453125 252.794921875 458.5 c 0,6,7
 154.96484375 452.385742188 154.96484375 452.385742188 120.208007812 576.319335938 c 0,8,9
 116.830078125 588.875976562 116.830078125 588.875976562 114.544921875 600.25 c 0,8,9
 76.1513671875 790.3515625 76.1513671875 790.3515625 177.544921875 1029 c 1,10,11
 216.845703125 1114.7578125 216.845703125 1114.7578125 242.294921875 1141 c 0,12,13
 261.75390625 1160.45898438 261.75390625 1160.45898438 286.065429688 1134.703125 c 0,14,15
 292.41796875 1126.74804688 292.41796875 1126.74804688 294.794921875 1120 c 0,14,15
 297.520507812 1107.40234375 297.520507812 1107.40234375 280.794921875 1079.75 c 0,16,17
 254.26171875 1035.234375 254.26171875 1035.234375 235.294921875 997.5 c 1,18,19
 170.544921875 845.478515625 170.544921875 845.478515625 170.544921875 698.25 c 1,0,1
231.794921875 259 m 0,20,21
 256.725585938 261 256.725585938 261 277.294921875 253.75 c 1,22,23
 350.131835938 236.127929688 350.131835938 236.127929688 368.431640625 161.126953125 c 0,24,25
 387.576171875 82.66015625 387.576171875 82.66015625 329.7890625 32.08203125 c 0,26,27
 320.615234375 24.5302734375 320.615234375 24.5302734375 312.294921875 19.25 c 0,24,25
 290.849609375 5.8759765625 290.849609375 5.8759765625 259.794921875 0 c 1,26,27
 178.04296875 -10.0791015625 178.04296875 -10.0791015625 134.626953125 62.859375 c 0,28,29
 92.01171875 134.450195312 92.01171875 134.450195312 133.448242188 199.188476562 c 0,30,31
 147.166992188 218.931640625 147.166992188 218.931640625 165.294921875 232.75 c 0,28,29
 191.525390625 252.915039062 191.525390625 252.915039062 231.794921875 259 c 0,20,21
EndSplineSet
EndChar

StartChar: afii57407
Encoding: 1567 1567 335
Width: 1042
VWidth: 1750
GlyphClass: 2
Flags: W
LayerCount: 2
Fore
SplineSet
697.44921875 1225 m 1,0,1
 640.495117188 1271.7265625 640.495117188 1271.7265625 541.69921875 1281 c 0,2,3
 535.239257812 1281.92285156 535.239257812 1281.92285156 524.469726562 1287.5546875 c 0,4,5
 514.4765625 1292.20703125 514.4765625 1292.20703125 510.19921875 1293.25 c 0,4,5
 444.135742188 1297.80566406 444.135742188 1297.80566406 385.034179688 1240.33691406 c 0,6,7
 375.114257812 1230.20800781 375.114257812 1230.20800781 368.44921875 1221.5 c 0,6,7
 333.7734375 1169.81738281 333.7734375 1169.81738281 333.44921875 1086.75 c 0,8,9
 333.44921875 1016.41601562 333.44921875 1016.41601562 403.991210938 938.298828125 c 0,10,11
 457.875 878.295898438 457.875 878.295898438 468.19921875 864.5 c 0,10,11
 559.001953125 734.344726562 559.001953125 734.344726562 583.69921875 567 c 0,12,13
 585.705078125 549.907226562 585.705078125 549.907226562 585.44921875 442.75 c 0,14,15
 584.526367188 402.5859375 584.526367188 402.5859375 580.19921875 395.5 c 1,16,17
 566.759765625 383.586914062 566.759765625 383.586914062 524.19921875 388.5 c 1,18,19
 501.600585938 401.138671875 501.600585938 401.138671875 504.94921875 463.75 c 1,20,21
 503.959960938 601.313476562 503.959960938 601.313476562 448.94921875 694.75 c 0,22,23
 390.911132812 790.418945312 390.911132812 790.418945312 291.44921875 859.25 c 0,24,25
 276.622070312 869.92578125 276.622070312 869.92578125 245.840820312 888.81640625 c 0,26,27
 185.954101562 926.286132812 185.954101562 926.286132812 161.94921875 952 c 0,26,27
 83.7001953125 1037.8828125 83.7001953125 1037.8828125 111.111328125 1149.45019531 c 0,28,29
 123.590820312 1196.61328125 123.590820312 1196.61328125 153.19921875 1233.75 c 0,28,29
 186.864257812 1273.81054688 186.864257812 1273.81054688 233.69921875 1300.25 c 0,30,31
 323.0625 1348.1171875 323.0625 1348.1171875 482.19921875 1358 c 0,32,33
 503.349609375 1358.58203125 503.349609375 1358.58203125 511.94921875 1361.5 c 0,34,35
 516.883789062 1362.91015625 516.883789062 1362.91015625 524.375976562 1367.37109375 c 0,36,37
 536.350585938 1373.25292969 536.350585938 1373.25292969 543.44921875 1373.75 c 0,36,37
 654.513671875 1381.32226562 654.513671875 1381.32226562 748.341796875 1296.17578125 c 0,38,39
 752.669921875 1292.15820312 752.669921875 1292.15820312 755.19921875 1289.75 c 0,38,39
 779.987304688 1260.98828125 779.987304688 1260.98828125 790.19921875 1246 c 0,40,41
 844.45703125 1162.67578125 844.45703125 1162.67578125 831.610351562 1076.31542969 c 1,42,43
 818.870117188 1006.41308594 818.870117188 1006.41308594 758.69921875 981.75 c 1,42,43
 726.456054688 971.60546875 726.456054688 971.60546875 709.69921875 971.25 c 0,44,45
 687.603515625 971.826171875 687.603515625 971.826171875 662.44921875 980 c 0,46,47
 588.14453125 1004.76855469 588.14453125 1004.76855469 581.826171875 1085.25 c 0,48,49
 575.708007812 1163.16699219 575.708007812 1163.16699219 634.55859375 1204.41015625 c 0,50,51
 663.173828125 1223.12207031 663.173828125 1223.12207031 697.44921875 1225 c 1,0,1
532.94921875 259 m 0,48,49
 614.658203125 269.750976562 614.658203125 269.750976562 655.587890625 195.0234375 c 0,50,51
 695.126953125 122.833984375 695.126953125 122.833984375 655.171875 58.47265625 c 0,52,53
 640.328125 34.5625 640.328125 34.5625 615.19921875 19.25 c 0,50,51
 591.432617188 5.759765625 591.432617188 5.759765625 560.94921875 0 c 1,52,53
 480.172851562 -10.0966796875 480.172851562 -10.0966796875 436.508789062 62.859375 c 0,54,55
 393.576171875 134.594726562 393.576171875 134.594726562 434.676757812 199.188476562 c 0,56,57
 448.330078125 218.934570312 448.330078125 218.934570312 466.44921875 232.75 c 0,54,55
 496.276367188 253.326171875 496.276367188 253.326171875 532.94921875 259 c 0,48,49
EndSplineSet
EndChar

StartChar: afii57409
Encoding: 1569 1569 336
AltUni2: 00fe80.ffffffff.0
Width: 741
VWidth: 1750
GlyphClass: 2
Flags: HW
AnchorPoint: "GposMark2BaseAnchorHamzaErabAbove_01_01" 280.662 790.938 basechar 0
AnchorPoint: "GposMark2BaseAnchorHamzaErabBelow_01_01" 280.662 -159.009 basechar 0
LayerCount: 2
Fore
SplineSet
86.46484375 119 m 1,0,1
 68.8720703125 128.962890625 68.8720703125 128.962890625 42.71484375 162.75 c 0,2,3
 -31.6591796875 262.256835938 -31.6591796875 262.256835938 23.46484375 362.25 c 0,4,5
 99.46484375 500.000976562 99.46484375 500.000976562 267.66796875 590.741210938 c 0,6,7
 277.6796875 596.076171875 277.6796875 596.076171875 285.96484375 600.25 c 0,8,9
 367.33984375 640.9375 367.33984375 640.9375 422.46484375 637 c 0,10,11
 477.114257812 633.474609375 477.114257812 633.474609375 506.438476562 582.283203125 c 0,12,13
 522.7421875 551.329101562 522.7421875 551.329101562 516.96484375 521.5 c 0,14,15
 513.104492188 500.912109375 513.104492188 500.912109375 465.127929688 457.0234375 c 0,16,17
 460.561523438 452.846679688 460.561523438 452.846679688 457.46484375 449.75 c 0,18,19
 433.190429688 426.413085938 433.190429688 426.413085938 431.21484375 425.25 c 0,20,21
 413.220703125 416.852539062 413.220703125 416.852539062 376.61328125 437.771484375 c 0,22,23
 367.990234375 442.395507812 367.990234375 442.395507812 362.96484375 444.5 c 0,24,25
 322.986328125 458.98046875 322.986328125 458.98046875 280.71484375 435.75 c 0,26,27
 243.336914062 414.724609375 243.336914062 414.724609375 228.172851562 362.83984375 c 0,28,29
 224.482421875 348.377929688 224.482421875 348.377929688 224.71484375 337.75 c 0,30,31
 228.137695312 305.21484375 228.137695312 305.21484375 305.21484375 287 c 0,32,33
 326.748046875 281.333007812 326.748046875 281.333007812 388.811523438 293.779296875 c 0,34,35
 395.442382812 295.041015625 395.442382812 295.041015625 399.71484375 295.75 c 0,36,37
 418.732421875 299.379882812 418.732421875 299.379882812 506.46484375 308 c 1,38,39
 570.802734375 310.372070312 570.802734375 310.372070312 583.46484375 281.75 c 0,40,41
 592.983398438 259.993164062 592.983398438 259.993164062 557.561523438 197.591796875 c 0,42,43
 553.78515625 190.76953125 553.78515625 190.76953125 551.96484375 187.25 c 0,44,45
 540.212890625 166.209960938 540.212890625 166.209960938 530.96484375 159.25 c 1,46,47
 523.0390625 155.985351562 523.0390625 155.985351562 483.71484375 152.25 c 0,48,49
 435.760742188 145.739257812 435.760742188 145.739257812 406.71484375 140 c 0,50,51
 258.532226562 107.8515625 258.532226562 107.8515625 166.96484375 52.5 c 0,52,53
 160.591796875 48.5166015625 160.591796875 48.5166015625 145.2265625 36.6220703125 c 0,54,55
 83.4921875 -9.0087890625 83.4921875 -9.0087890625 56.71484375 5.25 c 0,56,57
 14.3896484375 29.826171875 14.3896484375 29.826171875 63.498046875 89.9794921875 c 0,58,59
 83.6943359375 114.717773438 83.6943359375 114.717773438 86.46484375 119 c 1,0,1
EndSplineSet
EndChar

StartChar: afii57410
Encoding: 1570 1570 337
AltUni2: 00fe81.ffffffff.0
Width: 533
VWidth: 1750
GlyphClass: 2
Flags: W
LayerCount: 2
Fore
SplineSet
33.69140625 1597.75 m 0,0,1
 76.7822265625 1601.36914062 76.7822265625 1601.36914062 138.69140625 1582 c 0,2,3
 168.932617188 1572.65234375 168.932617188 1572.65234375 229.6875 1545.89160156 c 0,4,5
 356.131835938 1490.1953125 356.131835938 1490.1953125 423.418945312 1494.95019531 c 0,6,7
 430.716796875 1495.56835938 430.716796875 1495.56835938 436.19140625 1496.25 c 0,4,5
 504.690429688 1508.61425781 504.690429688 1508.61425781 551.69140625 1547 c 0,6,7
 555.76171875 1550.73144531 555.76171875 1550.73144531 563.991210938 1559.47167969 c 0,8,9
 601.306640625 1595.6484375 601.306640625 1595.6484375 626.94140625 1583.75 c 1,8,9
 671.999023438 1559.31054688 671.999023438 1559.31054688 623.44140625 1471.75 c 1,10,11
 546.786132812 1343.99023438 546.786132812 1343.99023438 412.619140625 1318.55273438 c 0,12,13
 409.530273438 1317.99023438 409.530273438 1317.99023438 408.19140625 1317.75 c 0,12,13
 310.946289062 1304.14257812 310.946289062 1304.14257812 171.94140625 1354.5 c 1,14,15
 59.67578125 1391.921875 59.67578125 1391.921875 39.7255859375 1395.19140625 c 0,16,17
 23.0439453125 1397.69921875 23.0439453125 1397.69921875 9.19140625 1398.25 c 0,16,17
 -36.767578125 1397.36621094 -36.767578125 1397.36621094 -73.05859375 1377.25 c 0,18,19
 -78.025390625 1374.05761719 -78.025390625 1374.05761719 -87.6435546875 1366.82910156 c 0,20,21
 -126.006835938 1340.68359375 -126.006835938 1340.68359375 -150.05859375 1352.75 c 1,20,21
 -181.55859375 1372 -181.55859375 1372 -157.752929688 1450.28125 c 2,22,-1
 -157.05859375 1452.5 l 1,22,23
 -117.422851562 1564.41308594 -117.422851562 1564.41308594 10.3828125 1593.45214844 c 0,24,25
 22.771484375 1596.12304688 22.771484375 1596.12304688 33.69140625 1597.75 c 0,0,1
250.69140625 1268.75 m 0,24,25
 286.453125 1277.1640625 286.453125 1277.1640625 296.2421875 1234.80859375 c 0,26,27
 297.48828125 1228.25097656 297.48828125 1228.25097656 297.94140625 1223.25 c 0,26,27
 299.1015625 1198.87890625 299.1015625 1198.87890625 300.651367188 1150.20117188 c 0,28,29
 303.892578125 1051.90234375 303.892578125 1051.90234375 308.44140625 1004.5 c 0,28,29
 311.874023438 969.028320312 311.874023438 969.028320312 315.30859375 740.083007812 c 0,30,31
 315.829101562 705.396484375 315.829101562 705.396484375 317.19140625 677.25 c 0,30,31
 330.178710938 401.0234375 330.178710938 401.0234375 322.44140625 236.25 c 0,32,33
 318.340820312 170.083984375 318.340820312 170.083984375 297.94140625 57.75 c 1,34,35
 287.114257812 10.830078125 287.114257812 10.830078125 268.240234375 2.41015625 c 0,36,37
 263.909179688 0.8017578125 263.909179688 0.8017578125 261.19140625 0 c 0,36,37
 219.610351562 -7.2314453125 219.610351562 -7.2314453125 208.431640625 51.111328125 c 0,38,39
 207.720703125 54.8251953125 207.720703125 54.8251953125 206.94140625 59.5 c 0,38,39
 202.56640625 96.25 202.56640625 96.25 194.69140625 168.875 c 0,40,41
 186.732421875 242.1015625 186.732421875 242.1015625 182.44140625 278.25 c 0,40,41
 172.911132812 360.556640625 172.911132812 360.556640625 148.630859375 759.559570312 c 0,42,43
 147.977539062 770.232421875 147.977539062 770.232421875 147.44140625 778.75 c 0,42,43
 140.025390625 896.548828125 140.025390625 896.548828125 135.19140625 948.5 c 0,44,45
 125.952148438 1038.77929688 125.952148438 1038.77929688 126.44140625 1050 c 0,46,47
 128.200195312 1061.80957031 128.200195312 1061.80957031 150.94140625 1106 c 0,48,49
 200.44140625 1204.84667969 200.44140625 1204.84667969 210.44140625 1223.25 c 0,50,51
 230.2734375 1259.609375 230.2734375 1259.609375 239.176757812 1264.75683594 c 0,52,53
 245.547851562 1267.66503906 245.547851562 1267.66503906 250.69140625 1268.75 c 0,24,25
EndSplineSet
AlternateSubs2: "gsub_alternate_dfl_aalt_arab_FAR_Lookup_01_Subtable_01" uniFE82 afii57410
Substitution2: "gsub_single_rtl_fina_arab_FAR_Lookup_01_Subtable_01" uniFE82
PairPos2: "gpos_pair_dfl_kern_arab_FAR_Lookup_01_Subtable_01" gafarabic dx=0 dy=0 dh=0 dv=0 dx=0 dy=0 dh=0 dv=0
EndChar

StartChar: uniFE82
Encoding: 65154 65154 338
Width: 656
VWidth: 1750
GlyphClass: 2
Flags: W
LayerCount: 2
Fore
SplineSet
33.69140625 1597.75 m 0,0,1
 76.7822265625 1601.36914062 76.7822265625 1601.36914062 138.69140625 1582 c 0,2,3
 168.932617188 1572.65234375 168.932617188 1572.65234375 229.6875 1545.89160156 c 0,4,5
 356.131835938 1490.1953125 356.131835938 1490.1953125 423.418945312 1494.95019531 c 0,6,7
 430.716796875 1495.56835938 430.716796875 1495.56835938 436.19140625 1496.25 c 0,4,5
 504.690429688 1508.61425781 504.690429688 1508.61425781 551.69140625 1547 c 0,6,7
 555.76171875 1550.73144531 555.76171875 1550.73144531 563.991210938 1559.47167969 c 0,8,9
 601.306640625 1595.6484375 601.306640625 1595.6484375 626.94140625 1583.75 c 1,8,9
 671.999023438 1559.31054688 671.999023438 1559.31054688 623.44140625 1471.75 c 1,10,11
 546.786132812 1343.99023438 546.786132812 1343.99023438 412.619140625 1318.55273438 c 0,12,13
 409.530273438 1317.99023438 409.530273438 1317.99023438 408.19140625 1317.75 c 0,12,13
 310.946289062 1304.14257812 310.946289062 1304.14257812 171.94140625 1354.5 c 1,14,15
 59.67578125 1391.921875 59.67578125 1391.921875 39.7255859375 1395.19140625 c 0,16,17
 23.0439453125 1397.69921875 23.0439453125 1397.69921875 9.19140625 1398.25 c 0,16,17
 -36.767578125 1397.36621094 -36.767578125 1397.36621094 -73.05859375 1377.25 c 0,18,19
 -78.025390625 1374.05761719 -78.025390625 1374.05761719 -87.6435546875 1366.82910156 c 0,20,21
 -126.006835938 1340.68359375 -126.006835938 1340.68359375 -150.05859375 1352.75 c 1,20,21
 -181.55859375 1372 -181.55859375 1372 -157.752929688 1450.28125 c 2,22,-1
 -157.05859375 1452.5 l 1,22,23
 -117.422851562 1564.41308594 -117.422851562 1564.41308594 10.3828125 1593.45214844 c 0,24,25
 22.771484375 1596.12304688 22.771484375 1596.12304688 33.69140625 1597.75 c 0,0,1
702.19140625 0 m 1,24,25
 443.663085938 1.17578125 443.663085938 1.17578125 289.19140625 117.25 c 0,26,27
 204.951171875 180.30078125 204.951171875 180.30078125 175.44140625 248.5 c 0,28,29
 153.30078125 301.083984375 153.30078125 301.083984375 153.033203125 428.569335938 c 0,30,31
 152.956054688 446.974609375 152.956054688 446.974609375 152.69140625 458.5 c 0,30,31
 151.915039062 501.995117188 151.915039062 501.995117188 147.6015625 589.71484375 c 0,32,33
 142.19140625 699.745117188 142.19140625 699.745117188 142.19140625 754.25 c 0,32,33
 142.053710938 868.030273438 142.053710938 868.030273438 135.19140625 953.75 c 0,34,35
 134.200195312 963.666015625 134.200195312 963.666015625 131.048828125 985.206054688 c 0,36,37
 122.678710938 1042.41601562 122.678710938 1042.41601562 126.44140625 1067.5 c 0,36,37
 129.33984375 1084.89160156 129.33984375 1084.89160156 166.666992188 1149.12890625 c 0,38,39
 171.146484375 1157.05371094 171.146484375 1157.05371094 173.69140625 1162 c 0,38,39
 179.81640625 1174.25 179.81640625 1174.25 192.06640625 1197.875 c 0,40,41
 204.615234375 1222.13671875 204.615234375 1222.13671875 210.44140625 1233.75 c 0,40,41
 230.069335938 1267.54492188 230.069335938 1267.54492188 250.69140625 1270.5 c 1,42,43
 293.404296875 1272.02539062 293.404296875 1272.02539062 291.373046875 1196.05078125 c 0,44,45
 290.951171875 1178.99023438 290.951171875 1178.99023438 290.94140625 1177.75 c 0,44,45
 290.94140625 1123.5 290.94140625 1123.5 294.44140625 1015 c 0,46,47
 297.904296875 905.916992188 297.904296875 905.916992188 297.94140625 852.25 c 0,46,47
 297.94140625 791 297.94140625 791 304.06640625 667.625 c 0,48,49
 310.133789062 543.677734375 310.133789062 543.677734375 310.19140625 483 c 0,48,49
 310.27734375 444.657226562 310.27734375 444.657226562 313.69140625 376.25 c 0,50,51
 314.68359375 339.413085938 314.68359375 339.413085938 318.94140625 332.5 c 0,52,53
 335.075195312 309.643554688 335.075195312 309.643554688 412.356445312 292.424804688 c 0,54,55
 422.19921875 290.151367188 422.19921875 290.151367188 427.44140625 288.75 c 0,54,55
 447.65234375 282.43359375 447.65234375 282.43359375 487.637695312 267.971679688 c 0,56,57
 558.534179688 242.329101562 558.534179688 242.329101562 595.44140625 234.5 c 0,56,57
 624.029296875 229.127929688 624.029296875 229.127929688 702.19140625 229.25 c 1,58,-1
 702.19140625 0 l 1,24,25
EndSplineSet
EndChar

StartChar: uniFE83
Encoding: 1571 1571 339
AltUni2: 00fe83.ffffffff.0
Width: 551
VWidth: 1750
GlyphClass: 2
Flags: W
LayerCount: 2
Fore
SplineSet
270.217773438 1410.5 m 1,0,1
 312.08203125 1409.5390625 312.08203125 1409.5390625 317.467773438 1354.5 c 1,2,3
 317.583007812 1270.63378906 317.583007812 1270.63378906 327.967773438 1114.75 c 0,4,5
 330.158203125 1084.52832031 330.158203125 1084.52832031 335.881835938 787.5 c 0,6,7
 336.268554688 768.3125 336.268554688 768.3125 336.717773438 752.5 c 0,6,7
 345.063476562 360.092773438 345.063476562 360.092773438 341.967773438 262.5 c 0,8,9
 340.162109375 202.682617188 340.162109375 202.682617188 317.467773438 63 c 0,10,11
 307.256835938 7.814453125 307.256835938 7.814453125 280.717773438 0 c 1,12,13
 237.65234375 -6.890625 237.65234375 -6.890625 228.518554688 50.4404296875 c 0,14,15
 227.358398438 58.2890625 227.358398438 58.2890625 226.467773438 66.5 c 0,14,15
 222.967773438 98.7001953125 222.967773438 98.7001953125 217.087890625 163.099609375 c 0,16,17
 208.146484375 260.283203125 208.146484375 260.283203125 201.967773438 308 c 0,16,17
 196.1796875 363.568359375 196.1796875 363.568359375 190.752929688 477.2734375 c 0,18,19
 187.943359375 535.629882812 187.943359375 535.629882812 186.217773438 563.5 c 0,18,19
 179.217773438 666.75 179.217773438 666.75 166.092773438 872.375 c 0,20,21
 152.922851562 1078.58984375 152.922851562 1078.58984375 145.967773438 1181.25 c 0,20,21
 145.379882812 1201.97167969 145.379882812 1201.97167969 168.717773438 1244.25 c 1,22,23
 207.653320312 1325.265625 207.653320312 1325.265625 229.967773438 1363.25 c 0,24,25
 249.994140625 1399.96484375 249.994140625 1399.96484375 252.873046875 1402.54101562 c 0,26,27
 261.536132812 1408.7421875 261.536132812 1408.7421875 270.217773438 1410.5 c 1,0,1
292.967773438 2021.25 m 0,0,1
 350.203125 2030.19335938 350.203125 2030.19335938 391.860351562 1991.58300781 c 1,2,3
 422.909179688 1960.05761719 422.909179688 1960.05761719 411.967773438 1919.75 c 0,2,3
 408.963867188 1909.36914062 408.963867188 1909.36914062 394.467773438 1895.25 c 0,4,5
 390.706054688 1891.48828125 390.706054688 1891.48828125 382.056640625 1881.38574219 c 0,6,7
 349.400390625 1845.29589844 349.400390625 1845.29589844 331.467773438 1842.75 c 0,6,7
 321.893554688 1841.95214844 321.893554688 1841.95214844 292.956054688 1860.40429688 c 0,8,9
 283.405273438 1865.71386719 283.405273438 1865.71386719 277.217773438 1867.25 c 0,8,9
 231.141601562 1879.1953125 231.141601562 1879.1953125 202.267578125 1833.25390625 c 0,10,11
 188.543945312 1809.38867188 188.543945312 1809.38867188 189.717773438 1785 c 1,10,11
 193.087890625 1760.75390625 193.087890625 1760.75390625 252.717773438 1741.25 c 0,12,13
 270.331054688 1736.55371094 270.331054688 1736.55371094 320.674804688 1747.45898438 c 0,14,15
 323.46875 1748.04199219 323.46875 1748.04199219 324.467773438 1748.25 c 0,14,15
 326.459960938 1748.53125 326.459960938 1748.53125 404.967773438 1758.75 c 0,16,17
 457.102539062 1765.94824219 457.102539062 1765.94824219 473.217773438 1748.25 c 1,18,19
 487.116210938 1730.18164062 487.116210938 1730.18164062 455.291992188 1674.82910156 c 0,20,21
 451.967773438 1668.86914062 451.967773438 1668.86914062 450.467773438 1666 c 0,20,21
 441.91015625 1647.95800781 441.91015625 1647.95800781 432.967773438 1641.5 c 0,22,23
 425.877929688 1637.76074219 425.877929688 1637.76074219 397.967773438 1634.5 c 0,24,25
 388.342773438 1632.75 388.342773438 1632.75 368.217773438 1629.25 c 0,26,27
 347.573242188 1625.64746094 347.573242188 1625.64746094 338.467773438 1624 c 0,26,27
 255.88671875 1603.68164062 255.88671875 1603.68164062 170.467773438 1568 c 0,28,29
 152.600585938 1560.02050781 152.600585938 1560.02050781 100.467773438 1527.75 c 0,30,31
 72.5009765625 1510.12304688 72.5009765625 1510.12304688 63.7177734375 1508.5 c 0,32,33
 37.5029296875 1506.48339844 37.5029296875 1506.48339844 30.1181640625 1532.33007812 c 0,34,35
 27.4833984375 1541.54785156 27.4833984375 1541.54785156 30.4677734375 1550.5 c 0,34,35
 34.123046875 1561.34667969 34.123046875 1561.34667969 54.9677734375 1585.5 c 0,36,37
 70.251953125 1603.68359375 70.251953125 1603.68359375 68.9677734375 1608.25 c 0,38,39
 67.95703125 1610.60839844 67.95703125 1610.60839844 46.728515625 1634.62109375 c 0,40,41
 43.9169921875 1638.15234375 43.9169921875 1638.15234375 42.7177734375 1639.75 c 0,40,41
 6.98046875 1690.26855469 6.98046875 1690.26855469 4.2177734375 1729 c 0,42,43
 0.966796875 1784.45117188 0.966796875 1784.45117188 46.2177734375 1849.75 c 0,44,45
 122.743164062 1960.8359375 122.743164062 1960.8359375 237.969726562 2005.88183594 c 0,46,47
 266.827148438 2016.77050781 266.827148438 2016.77050781 292.967773438 2021.25 c 0,0,1
EndSplineSet
AlternateSubs2: "gsub_alternate_dfl_aalt_arab_FAR_Lookup_01_Subtable_01" uniFE84 uniFE83
Substitution2: "gsub_single_rtl_fina_arab_FAR_Lookup_01_Subtable_01" uniFE84
EndChar

StartChar: uniFE84
Encoding: 65156 65156 340
Width: 455
VWidth: 1750
GlyphClass: 2
Flags: W
LayerCount: 2
Fore
SplineSet
454.647460938 0 m 1,0,1
 372.397460938 0 l 1,2,3
 255.23046875 22.025390625 255.23046875 22.025390625 153.647460938 138.25 c 0,4,5
 77.3564453125 225.420898438 77.3564453125 225.420898438 55.6474609375 299.25 c 0,6,7
 41.6513671875 349.986328125 41.6513671875 349.986328125 41.6474609375 446.25 c 0,8,9
 41.57421875 489.984375 41.57421875 489.984375 38.1474609375 572.25 c 0,10,11
 36.7470703125 626.150390625 36.7470703125 626.150390625 32.8271484375 733.950195312 c 0,12,13
 26.966796875 896.233398438 26.966796875 896.233398438 25.8974609375 976.5 c 0,12,13
 25.7744140625 1028.88574219 25.7744140625 1028.88574219 18.8974609375 1125.25 c 1,14,15
 11.046875 1187.33203125 11.046875 1187.33203125 13.6474609375 1209.25 c 0,16,17
 15.7041015625 1216.48242188 15.7041015625 1216.48242188 36.3974609375 1256.5 c 0,18,19
 47.78125 1277.51953125 47.78125 1277.51953125 67.8974609375 1317.75 c 0,20,21
 70.5693359375 1323.09472656 70.5693359375 1323.09472656 76.5732421875 1337.10644531 c 0,22,23
 109.372070312 1409.01855469 109.372070312 1409.01855469 137.897460938 1412.25 c 1,22,23
 176.935546875 1397.97851562 176.935546875 1397.97851562 178.147460938 1338.75 c 0,24,25
 178.147460938 1295 178.147460938 1295 179.897460938 1208.375 c 0,26,27
 181.624023438 1121.15136719 181.624023438 1121.15136719 181.647460938 1078 c 0,26,27
 181.647460938 992.2890625 181.647460938 992.2890625 188.74609375 821.841796875 c 0,28,29
 194.838867188 675.5390625 194.838867188 675.5390625 195.647460938 602 c 0,28,29
 195.798828125 480.706054688 195.798828125 480.706054688 200.897460938 421.75 c 0,30,31
 201.532226562 415.3984375 201.532226562 415.3984375 200.95703125 401.731445312 c 0,32,33
 200.635742188 377.221679688 200.635742188 377.221679688 204.397460938 367.5 c 0,32,33
 215.063476562 341.596679688 215.063476562 341.596679688 274.091796875 306.762695312 c 0,34,35
 276.923828125 305.079101562 276.923828125 305.079101562 277.897460938 304.5 c 0,34,35
 288.361328125 297.17578125 288.361328125 297.17578125 309.4296875 280.223632812 c 0,36,37
 360.669921875 239.9140625 360.669921875 239.9140625 388.147460938 231 c 0,36,37
 398.697265625 228.786132812 398.697265625 228.786132812 454.647460938 229.25 c 1,38,-1
 454.647460938 0 l 1,0,1
302.397460938 2016 m 0,0,1
 359.6328125 2024.94335938 359.6328125 2024.94335938 401.290039062 1986.33300781 c 1,2,3
 432.338867188 1954.80761719 432.338867188 1954.80761719 421.397460938 1914.5 c 0,2,3
 418.393554688 1904.11914062 418.393554688 1904.11914062 403.897460938 1890 c 0,4,5
 400.135742188 1886.23828125 400.135742188 1886.23828125 391.486328125 1876.13574219 c 0,6,7
 358.830078125 1840.04589844 358.830078125 1840.04589844 340.897460938 1837.5 c 0,6,7
 331.323242188 1836.70214844 331.323242188 1836.70214844 302.385742188 1855.15429688 c 0,8,9
 292.834960938 1860.46386719 292.834960938 1860.46386719 286.647460938 1862 c 0,8,9
 240.571289062 1873.9453125 240.571289062 1873.9453125 211.697265625 1828.00390625 c 0,10,11
 197.973632812 1804.13867188 197.973632812 1804.13867188 199.147460938 1779.75 c 1,10,11
 202.517578125 1755.50390625 202.517578125 1755.50390625 262.147460938 1736 c 0,12,13
 279.760742188 1731.30371094 279.760742188 1731.30371094 330.104492188 1742.20898438 c 0,14,15
 332.8984375 1742.79199219 332.8984375 1742.79199219 333.897460938 1743 c 0,14,15
 335.889648438 1743.28125 335.889648438 1743.28125 414.397460938 1753.5 c 0,16,17
 466.532226562 1760.69824219 466.532226562 1760.69824219 482.647460938 1743 c 1,18,19
 496.545898438 1724.93164062 496.545898438 1724.93164062 464.721679688 1669.57910156 c 0,20,21
 461.397460938 1663.61914062 461.397460938 1663.61914062 459.897460938 1660.75 c 0,20,21
 451.33984375 1642.70800781 451.33984375 1642.70800781 442.397460938 1636.25 c 0,22,23
 435.307617188 1632.51074219 435.307617188 1632.51074219 407.397460938 1629.25 c 0,24,25
 397.772460938 1627.5 397.772460938 1627.5 377.647460938 1624 c 0,26,27
 357.002929688 1620.39746094 357.002929688 1620.39746094 347.897460938 1618.75 c 0,26,27
 265.31640625 1598.43164062 265.31640625 1598.43164062 179.897460938 1562.75 c 0,28,29
 162.030273438 1554.77050781 162.030273438 1554.77050781 109.897460938 1522.5 c 0,30,31
 81.9306640625 1504.87304688 81.9306640625 1504.87304688 73.1474609375 1503.25 c 0,32,33
 46.9326171875 1501.23339844 46.9326171875 1501.23339844 39.5478515625 1527.08007812 c 0,34,35
 36.9130859375 1536.29785156 36.9130859375 1536.29785156 39.8974609375 1545.25 c 0,34,35
 43.552734375 1556.09667969 43.552734375 1556.09667969 64.3974609375 1580.25 c 0,36,37
 79.681640625 1598.43359375 79.681640625 1598.43359375 78.3974609375 1603 c 0,38,39
 77.38671875 1605.35839844 77.38671875 1605.35839844 56.158203125 1629.37109375 c 0,40,41
 53.3466796875 1632.90234375 53.3466796875 1632.90234375 52.1474609375 1634.5 c 0,40,41
 16.41015625 1685.01855469 16.41015625 1685.01855469 13.6474609375 1723.75 c 0,42,43
 10.396484375 1779.20117188 10.396484375 1779.20117188 55.6474609375 1844.5 c 0,44,45
 132.172851562 1955.5859375 132.172851562 1955.5859375 247.399414062 2000.63183594 c 0,46,47
 276.256835938 2011.52050781 276.256835938 2011.52050781 302.397460938 2016 c 0,0,1
EndSplineSet
EndChar

StartChar: uniFE85
Encoding: 1572 1572 341
AltUni2: 00fe85.ffffffff.0
Width: 905
VWidth: 1750
GlyphClass: 2
Flags: W
LayerCount: 2
Fore
SplineSet
606.762695312 43.75 m 1,0,1
 535.685546875 1.75 535.685546875 1.75 475.512695312 1.75 c 0,2,3
 449.543945312 2.2529296875 449.543945312 2.2529296875 421.262695312 10.5 c 0,4,5
 322.036132812 41.8349609375 322.036132812 41.8349609375 306.141601562 157.815429688 c 0,6,7
 300.803710938 201.036132812 300.803710938 201.036132812 309.262695312 243.25 c 0,6,7
 337.579101562 382.48046875 337.579101562 382.48046875 423.012695312 469 c 1,8,9
 505.709960938 548.73828125 505.709960938 548.73828125 592.762695312 500.5 c 0,10,11
 621.095703125 483.5 621.095703125 483.5 641.762695312 460.25 c 0,12,13
 754.166015625 338.321289062 754.166015625 338.321289062 745.251953125 121.0234375 c 0,14,15
 742.790039062 67.74609375 742.790039062 67.74609375 732.762695312 19.25 c 0,14,15
 669.875 -272.728515625 669.875 -272.728515625 498.32421875 -424.942382812 c 0,16,17
 412.625976562 -499.72265625 412.625976562 -499.72265625 311.012695312 -526.75 c 0,16,17
 207.704101562 -553.84765625 207.704101562 -553.84765625 27.0302734375 -484.232421875 c 0,18,19
 14.8271484375 -479.517578125 14.8271484375 -479.517578125 -7.4873046875 -470.75 c 0,18,19
 -13.6357421875 -468.217773438 -13.6357421875 -468.217773438 -29.197265625 -463.116210938 c 0,20,21
 -98.0771484375 -438.526367188 -98.0771484375 -438.526367188 -103.737304688 -409.5 c 1,20,21
 -106.629882812 -374.78515625 -106.629882812 -374.78515625 -77.6767578125 -364.100585938 c 0,22,23
 -73.2490234375 -362.813476562 -73.2490234375 -362.813476562 -70.4873046875 -362.25 c 0,22,23
 -65.5302734375 -361.873046875 -65.5302734375 -361.873046875 20.5126953125 -362.25 c 1,24,25
 70.1494140625 -360.202148438 70.1494140625 -360.202148438 155.262695312 -350 c 1,26,27
 407.575195312 -313.955078125 407.575195312 -313.955078125 533.528320312 -133.887695312 c 0,28,29
 542.122070312 -121.385742188 542.122070312 -121.385742188 549.012695312 -110.25 c 0,28,29
 605.955078125 -19.50390625 605.955078125 -19.50390625 606.762695312 43.75 c 1,0,1
549.012695312 229.25 m 1,30,31
 543.251953125 242.366210938 543.251953125 242.366210938 535.012695312 253.75 c 0,32,33
 513.51953125 278.32421875 513.51953125 278.32421875 501.762695312 280 c 1,34,35
 494.921875 278.552734375 494.921875 278.552734375 480.762695312 262.5 c 0,36,37
 452.38671875 226.384765625 452.38671875 226.384765625 470.465820312 208.6171875 c 1,38,39
 480.34765625 201.65234375 480.34765625 201.65234375 496.512695312 203 c 0,38,39
 506.783203125 205.538085938 506.783203125 205.538085938 519.262695312 211.75 c 0,40,41
 540.588867188 222.849609375 540.588867188 222.849609375 549.012695312 229.25 c 1,30,31
564.762695312 1137.5 m 0,0,1
 621.998046875 1146.44335938 621.998046875 1146.44335938 663.655273438 1107.83300781 c 1,2,3
 694.704101562 1076.30761719 694.704101562 1076.30761719 683.762695312 1036 c 0,2,3
 680.758789062 1025.61914062 680.758789062 1025.61914062 666.262695312 1011.5 c 0,4,5
 662.500976562 1007.73828125 662.500976562 1007.73828125 653.8515625 997.635742188 c 0,6,7
 621.1953125 961.545898438 621.1953125 961.545898438 603.262695312 959 c 0,6,7
 593.688476562 958.202148438 593.688476562 958.202148438 564.750976562 976.654296875 c 0,8,9
 555.200195312 981.963867188 555.200195312 981.963867188 549.012695312 983.5 c 0,8,9
 502.936523438 995.4453125 502.936523438 995.4453125 474.0625 949.50390625 c 0,10,11
 460.338867188 925.638671875 460.338867188 925.638671875 461.512695312 901.25 c 1,10,11
 464.8828125 877.00390625 464.8828125 877.00390625 524.512695312 857.5 c 0,12,13
 542.125976562 852.803710938 542.125976562 852.803710938 592.469726562 863.708984375 c 0,14,15
 595.263671875 864.291992188 595.263671875 864.291992188 596.262695312 864.5 c 0,14,15
 598.254882812 864.78125 598.254882812 864.78125 676.762695312 875 c 0,16,17
 728.897460938 882.198242188 728.897460938 882.198242188 745.012695312 864.5 c 1,18,19
 758.911132812 846.431640625 758.911132812 846.431640625 727.086914062 791.079101562 c 0,20,21
 723.762695312 785.119140625 723.762695312 785.119140625 722.262695312 782.25 c 0,20,21
 713.705078125 764.208007812 713.705078125 764.208007812 704.762695312 757.75 c 0,22,23
 697.672851562 754.010742188 697.672851562 754.010742188 669.762695312 750.75 c 0,24,25
 660.137695312 749 660.137695312 749 640.012695312 745.5 c 0,26,27
 619.368164062 741.897460938 619.368164062 741.897460938 610.262695312 740.25 c 0,26,27
 527.681640625 719.931640625 527.681640625 719.931640625 442.262695312 684.25 c 0,28,29
 424.395507812 676.270507812 424.395507812 676.270507812 372.262695312 644 c 0,30,31
 344.295898438 626.373046875 344.295898438 626.373046875 335.512695312 624.75 c 0,32,33
 309.297851562 622.733398438 309.297851562 622.733398438 301.913085938 648.580078125 c 0,34,35
 300.084960938 658.611328125 300.084960938 658.611328125 302.262695312 666.75 c 0,34,35
 305.91796875 677.596679688 305.91796875 677.596679688 326.762695312 701.75 c 0,36,37
 342.046875 719.93359375 342.046875 719.93359375 340.762695312 724.5 c 0,38,39
 339.751953125 726.858398438 339.751953125 726.858398438 318.5234375 750.87109375 c 0,40,41
 315.711914062 754.40234375 315.711914062 754.40234375 314.512695312 756 c 0,40,41
 278.775390625 806.518554688 278.775390625 806.518554688 276.012695312 845.25 c 0,42,43
 272.76171875 900.701171875 272.76171875 900.701171875 318.012695312 966 c 0,44,45
 394.538085938 1077.0859375 394.538085938 1077.0859375 509.764648438 1122.13183594 c 0,46,47
 538.622070312 1133.02050781 538.622070312 1133.02050781 564.762695312 1137.5 c 0,0,1
EndSplineSet
AlternateSubs2: "gsub_alternate_dfl_aalt_arab_FAR_Lookup_01_Subtable_01" uniFE86 uniFE85
Substitution2: "gsub_single_rtl_fina_arab_FAR_Lookup_01_Subtable_01" uniFE86
EndChar

StartChar: uniFE86
Encoding: 65158 65158 342
Width: 739
VWidth: 1750
GlyphClass: 2
Flags: W
LayerCount: 2
Fore
SplineSet
559.848632812 0 m 1,0,1
 441.874023438 0.5458984375 441.874023438 0.5458984375 393.598632812 15.75 c 0,2,3
 355.984375 27.96875 355.984375 27.96875 328.848632812 47.25 c 0,4,5
 303.674804688 66.9384765625 303.674804688 66.9384765625 290.348632812 84 c 0,6,7
 227.787109375 170.482421875 227.787109375 170.482421875 292.500976562 317.333007812 c 0,8,9
 297.473632812 328.512695312 297.473632812 328.512695312 302.598632812 339.5 c 0,8,9
 348.955078125 440.348632812 348.955078125 440.348632812 398.848632812 477.75 c 0,10,11
 472.49609375 534.40234375 472.49609375 534.40234375 563.336914062 483.645507812 c 0,12,13
 592.12109375 467.5625 592.12109375 467.5625 614.098632812 442.75 c 0,12,13
 641.598632812 409.666992188 641.598632812 409.666992188 661.348632812 362.25 c 0,14,15
 690.630859375 293.186523438 690.630859375 293.186523438 691.098632812 229.25 c 1,16,-1
 769.848632812 229.25 l 1,17,-1
 769.848632812 0 l 1,18,-1
 685.848632812 0 l 1,19,20
 681.46484375 -51.462890625 681.46484375 -51.462890625 654.348632812 -133 c 0,21,22
 577.538085938 -359.390625 577.538085938 -359.390625 393.17578125 -470.403320312 c 0,23,24
 316.060546875 -516.083007812 316.060546875 -516.083007812 230.848632812 -533.75 c 0,23,24
 146.965820312 -549.9375 146.965820312 -549.9375 -12.251953125 -488.651367188 c 0,25,26
 -58.2626953125 -470.971679688 -58.2626953125 -470.971679688 -68.4013671875 -467.25 c 0,25,26
 -129.313476562 -443.5625 -129.313476562 -443.5625 -136.44140625 -438.396484375 c 0,27,28
 -157.389648438 -420.75390625 -157.389648438 -420.75390625 -155.901367188 -399 c 1,27,28
 -143.6484375 -362.666015625 -143.6484375 -362.666015625 -89.4013671875 -362.25 c 0,29,30
 27.94140625 -361.963867188 27.94140625 -361.963867188 134.598632812 -344.75 c 0,31,32
 369.125 -305.662109375 369.125 -305.662109375 488.259765625 -156.8203125 c 0,33,34
 503.979492188 -136.760742188 503.979492188 -136.760742188 516.098632812 -117.25 c 0,33,34
 541.993164062 -70.880859375 541.993164062 -70.880859375 559.848632812 0 c 1,0,1
547.598632812 229.25 m 1,35,36
 533.544921875 277.434570312 533.544921875 277.434570312 482.1171875 294.911132812 c 0,37,38
 462.020507812 300.954101562 462.020507812 300.954101562 444.348632812 299.25 c 1,37,38
 412.670898438 292.352539062 412.670898438 292.352539062 393.598632812 262.5 c 0,39,40
 385.950195312 248.799804688 385.950195312 248.799804688 386.598632812 241.5 c 1,41,42
 389.944335938 236.280273438 389.944335938 236.280273438 423.348632812 231 c 0,43,44
 440.44140625 228.994140625 440.44140625 228.994140625 547.598632812 229.25 c 1,35,36
572.098632812 1132.25 m 0,0,1
 629.333984375 1141.19335938 629.333984375 1141.19335938 670.991210938 1102.58300781 c 1,2,3
 702.040039062 1071.05761719 702.040039062 1071.05761719 691.098632812 1030.75 c 0,2,3
 688.094726562 1020.36914062 688.094726562 1020.36914062 673.598632812 1006.25 c 0,4,5
 669.836914062 1002.48828125 669.836914062 1002.48828125 661.1875 992.385742188 c 0,6,7
 628.53125 956.295898438 628.53125 956.295898438 610.598632812 953.75 c 0,6,7
 601.024414062 952.952148438 601.024414062 952.952148438 572.086914062 971.404296875 c 0,8,9
 562.536132812 976.713867188 562.536132812 976.713867188 556.348632812 978.25 c 0,8,9
 510.272460938 990.1953125 510.272460938 990.1953125 481.3984375 944.25390625 c 0,10,11
 467.674804688 920.388671875 467.674804688 920.388671875 468.848632812 896 c 1,10,11
 472.21875 871.75390625 472.21875 871.75390625 531.848632812 852.25 c 0,12,13
 549.461914062 847.553710938 549.461914062 847.553710938 599.805664062 858.458984375 c 0,14,15
 602.599609375 859.041992188 602.599609375 859.041992188 603.598632812 859.25 c 0,14,15
 605.590820312 859.53125 605.590820312 859.53125 684.098632812 869.75 c 0,16,17
 736.233398438 876.948242188 736.233398438 876.948242188 752.348632812 859.25 c 1,18,19
 766.247070312 841.181640625 766.247070312 841.181640625 734.422851562 785.829101562 c 0,20,21
 731.098632812 779.869140625 731.098632812 779.869140625 729.598632812 777 c 0,20,21
 721.041015625 758.958007812 721.041015625 758.958007812 712.098632812 752.5 c 0,22,23
 705.008789062 748.760742188 705.008789062 748.760742188 677.098632812 745.5 c 0,24,25
 667.473632812 743.75 667.473632812 743.75 647.348632812 740.25 c 0,26,27
 626.704101562 736.647460938 626.704101562 736.647460938 617.598632812 735 c 0,26,27
 535.017578125 714.681640625 535.017578125 714.681640625 449.598632812 679 c 0,28,29
 431.731445312 671.020507812 431.731445312 671.020507812 379.598632812 638.75 c 0,30,31
 351.631835938 621.123046875 351.631835938 621.123046875 342.848632812 619.5 c 0,32,33
 316.633789062 617.483398438 316.633789062 617.483398438 309.249023438 643.330078125 c 0,34,35
 307.420898438 653.361328125 307.420898438 653.361328125 309.598632812 661.5 c 0,34,35
 313.25390625 672.346679688 313.25390625 672.346679688 334.098632812 696.5 c 0,36,37
 349.3828125 714.68359375 349.3828125 714.68359375 348.098632812 719.25 c 0,38,39
 347.087890625 721.608398438 347.087890625 721.608398438 325.859375 745.62109375 c 0,40,41
 323.047851562 749.15234375 323.047851562 749.15234375 321.848632812 750.75 c 0,40,41
 286.111328125 801.268554688 286.111328125 801.268554688 283.348632812 840 c 0,42,43
 280.09765625 895.451171875 280.09765625 895.451171875 325.348632812 960.75 c 0,44,45
 401.874023438 1071.8359375 401.874023438 1071.8359375 517.100585938 1116.88183594 c 0,46,47
 545.958007812 1127.77050781 545.958007812 1127.77050781 572.098632812 1132.25 c 0,0,1
EndSplineSet
EndChar

StartChar: uniFE87
Encoding: 1573 1573 343
AltUni2: 00fe87.ffffffff.0
Width: 555
VWidth: 1750
GlyphClass: 2
Flags: W
LayerCount: 2
Fore
SplineSet
328.217773438 1410.5 m 1,0,1
 370.08203125 1409.5390625 370.08203125 1409.5390625 375.467773438 1354.5 c 1,2,3
 375.583007812 1270.63378906 375.583007812 1270.63378906 385.967773438 1114.75 c 0,4,5
 388.158203125 1084.52832031 388.158203125 1084.52832031 393.881835938 787.5 c 0,6,7
 394.268554688 768.3125 394.268554688 768.3125 394.717773438 752.5 c 0,6,7
 403.063476562 360.092773438 403.063476562 360.092773438 399.967773438 262.5 c 0,8,9
 398.162109375 202.682617188 398.162109375 202.682617188 375.467773438 63 c 0,10,11
 365.256835938 7.814453125 365.256835938 7.814453125 338.717773438 0 c 1,12,13
 295.65234375 -6.890625 295.65234375 -6.890625 286.518554688 50.4404296875 c 0,14,15
 285.358398438 58.2890625 285.358398438 58.2890625 284.467773438 66.5 c 0,14,15
 280.967773438 98.7001953125 280.967773438 98.7001953125 275.087890625 163.099609375 c 0,16,17
 266.146484375 260.283203125 266.146484375 260.283203125 259.967773438 308 c 0,16,17
 254.1796875 363.568359375 254.1796875 363.568359375 248.752929688 477.2734375 c 0,18,19
 245.943359375 535.629882812 245.943359375 535.629882812 244.217773438 563.5 c 0,18,19
 237.217773438 666.75 237.217773438 666.75 224.092773438 872.375 c 0,20,21
 210.922851562 1078.58984375 210.922851562 1078.58984375 203.967773438 1181.25 c 0,20,21
 203.379882812 1201.97167969 203.379882812 1201.97167969 226.717773438 1244.25 c 1,22,23
 265.653320312 1325.265625 265.653320312 1325.265625 287.967773438 1363.25 c 0,24,25
 307.994140625 1399.96484375 307.994140625 1399.96484375 310.873046875 1402.54101562 c 0,26,27
 319.536132812 1408.7421875 319.536132812 1408.7421875 328.217773438 1410.5 c 1,0,1
350.967773438 -190.75 m 0,0,1
 408.203125 -181.806640625 408.203125 -181.806640625 449.860351562 -220.416992188 c 1,2,3
 480.909179688 -251.942382812 480.909179688 -251.942382812 469.967773438 -292.25 c 0,2,3
 466.963867188 -302.630859375 466.963867188 -302.630859375 452.467773438 -316.75 c 0,4,5
 448.706054688 -320.51171875 448.706054688 -320.51171875 440.056640625 -330.614257812 c 0,6,7
 407.400390625 -366.704101562 407.400390625 -366.704101562 389.467773438 -369.25 c 0,6,7
 379.893554688 -370.047851562 379.893554688 -370.047851562 350.956054688 -351.595703125 c 0,8,9
 341.405273438 -346.286132812 341.405273438 -346.286132812 335.217773438 -344.75 c 0,8,9
 289.141601562 -332.8046875 289.141601562 -332.8046875 260.267578125 -378.74609375 c 0,10,11
 246.543945312 -402.611328125 246.543945312 -402.611328125 247.717773438 -427 c 1,10,11
 251.087890625 -451.24609375 251.087890625 -451.24609375 310.717773438 -470.75 c 0,12,13
 328.331054688 -475.446289062 328.331054688 -475.446289062 378.674804688 -464.541015625 c 0,14,15
 381.46875 -463.958007812 381.46875 -463.958007812 382.467773438 -463.75 c 0,14,15
 384.459960938 -463.46875 384.459960938 -463.46875 462.967773438 -453.25 c 0,16,17
 515.102539062 -446.051757812 515.102539062 -446.051757812 531.217773438 -463.75 c 1,18,19
 545.116210938 -481.818359375 545.116210938 -481.818359375 513.291992188 -537.170898438 c 0,20,21
 509.967773438 -543.130859375 509.967773438 -543.130859375 508.467773438 -546 c 0,20,21
 499.91015625 -564.041992188 499.91015625 -564.041992188 490.967773438 -570.5 c 0,22,23
 483.877929688 -574.239257812 483.877929688 -574.239257812 455.967773438 -577.5 c 0,24,25
 446.342773438 -579.25 446.342773438 -579.25 426.217773438 -582.75 c 0,26,27
 405.573242188 -586.352539062 405.573242188 -586.352539062 396.467773438 -588 c 0,26,27
 313.88671875 -608.318359375 313.88671875 -608.318359375 228.467773438 -644 c 0,28,29
 210.600585938 -651.979492188 210.600585938 -651.979492188 158.467773438 -684.25 c 0,30,31
 130.500976562 -701.876953125 130.500976562 -701.876953125 121.717773438 -703.5 c 0,32,33
 95.5029296875 -705.516601562 95.5029296875 -705.516601562 88.1181640625 -679.669921875 c 0,34,35
 86.2900390625 -669.638671875 86.2900390625 -669.638671875 88.4677734375 -661.5 c 0,34,35
 92.123046875 -650.653320312 92.123046875 -650.653320312 112.967773438 -626.5 c 0,36,37
 128.251953125 -608.31640625 128.251953125 -608.31640625 126.967773438 -603.75 c 0,38,39
 125.95703125 -601.391601562 125.95703125 -601.391601562 104.728515625 -577.37890625 c 0,40,41
 101.916992188 -573.84765625 101.916992188 -573.84765625 100.717773438 -572.25 c 0,40,41
 64.98046875 -521.731445312 64.98046875 -521.731445312 62.2177734375 -483 c 0,42,43
 58.966796875 -427.548828125 58.966796875 -427.548828125 104.217773438 -362.25 c 0,44,45
 180.743164062 -251.1640625 180.743164062 -251.1640625 295.969726562 -206.118164062 c 0,46,47
 324.827148438 -195.229492188 324.827148438 -195.229492188 350.967773438 -190.75 c 0,0,1
EndSplineSet
AlternateSubs2: "gsub_alternate_dfl_aalt_arab_FAR_Lookup_01_Subtable_01" uniFE88 uniFE87
Substitution2: "gsub_single_rtl_fina_arab_FAR_Lookup_01_Subtable_01" uniFE88
EndChar

StartChar: uniFE88
Encoding: 65160 65160 344
Width: 640
VWidth: 1750
GlyphClass: 2
Flags: W
LayerCount: 2
Fore
SplineSet
671.967773438 0 m 1,0,1
 589.717773438 0 l 1,2,3
 472.55078125 22.025390625 472.55078125 22.025390625 370.967773438 138.25 c 0,4,5
 294.676757812 225.420898438 294.676757812 225.420898438 272.967773438 299.25 c 0,6,7
 258.971679688 349.986328125 258.971679688 349.986328125 258.967773438 446.25 c 0,8,9
 258.89453125 489.984375 258.89453125 489.984375 255.467773438 572.25 c 0,10,11
 254.067382812 626.150390625 254.067382812 626.150390625 250.147460938 733.950195312 c 0,12,13
 244.287109375 896.233398438 244.287109375 896.233398438 243.217773438 976.5 c 0,12,13
 243.094726562 1028.88574219 243.094726562 1028.88574219 236.217773438 1125.25 c 1,14,15
 228.3671875 1187.33203125 228.3671875 1187.33203125 230.967773438 1209.25 c 0,16,17
 233.024414062 1216.48242188 233.024414062 1216.48242188 253.717773438 1256.5 c 0,18,19
 265.1015625 1277.51953125 265.1015625 1277.51953125 285.217773438 1317.75 c 0,20,21
 287.889648438 1323.09472656 287.889648438 1323.09472656 293.893554688 1337.10644531 c 0,22,23
 326.692382812 1409.01855469 326.692382812 1409.01855469 355.217773438 1412.25 c 1,22,23
 394.255859375 1397.97851562 394.255859375 1397.97851562 395.467773438 1338.75 c 0,24,25
 395.467773438 1295 395.467773438 1295 397.217773438 1208.375 c 0,26,27
 398.944335938 1121.15136719 398.944335938 1121.15136719 398.967773438 1078 c 0,26,27
 398.967773438 992.2890625 398.967773438 992.2890625 406.06640625 821.841796875 c 0,28,29
 412.159179688 675.5390625 412.159179688 675.5390625 412.967773438 602 c 0,28,29
 413.119140625 480.706054688 413.119140625 480.706054688 418.217773438 421.75 c 0,30,31
 418.852539062 415.3984375 418.852539062 415.3984375 418.27734375 401.731445312 c 0,32,33
 417.956054688 377.221679688 417.956054688 377.221679688 421.717773438 367.5 c 0,32,33
 432.383789062 341.596679688 432.383789062 341.596679688 491.412109375 306.762695312 c 0,34,35
 494.244140625 305.079101562 494.244140625 305.079101562 495.217773438 304.5 c 0,34,35
 505.681640625 297.17578125 505.681640625 297.17578125 526.75 280.223632812 c 0,36,37
 577.990234375 239.9140625 577.990234375 239.9140625 605.467773438 231 c 0,36,37
 616.017578125 228.786132812 616.017578125 228.786132812 671.967773438 229.25 c 1,38,-1
 671.967773438 0 l 1,0,1
349.967773438 -145.25 m 0,0,1
 407.203125 -136.306640625 407.203125 -136.306640625 448.860351562 -174.916992188 c 1,2,3
 479.909179688 -206.442382812 479.909179688 -206.442382812 468.967773438 -246.75 c 0,2,3
 465.963867188 -257.130859375 465.963867188 -257.130859375 451.467773438 -271.25 c 0,4,5
 447.706054688 -275.01171875 447.706054688 -275.01171875 439.056640625 -285.114257812 c 0,6,7
 406.400390625 -321.204101562 406.400390625 -321.204101562 388.467773438 -323.75 c 0,6,7
 378.893554688 -324.547851562 378.893554688 -324.547851562 349.956054688 -306.095703125 c 0,8,9
 340.405273438 -300.786132812 340.405273438 -300.786132812 334.217773438 -299.25 c 0,8,9
 288.141601562 -287.3046875 288.141601562 -287.3046875 259.267578125 -333.24609375 c 0,10,11
 245.543945312 -357.111328125 245.543945312 -357.111328125 246.717773438 -381.5 c 1,10,11
 250.087890625 -405.74609375 250.087890625 -405.74609375 309.717773438 -425.25 c 0,12,13
 327.331054688 -429.946289062 327.331054688 -429.946289062 377.674804688 -419.041015625 c 0,14,15
 380.46875 -418.458007812 380.46875 -418.458007812 381.467773438 -418.25 c 0,14,15
 383.459960938 -417.96875 383.459960938 -417.96875 461.967773438 -407.75 c 0,16,17
 514.102539062 -400.551757812 514.102539062 -400.551757812 530.217773438 -418.25 c 1,18,19
 544.116210938 -436.318359375 544.116210938 -436.318359375 512.291992188 -491.670898438 c 0,20,21
 508.967773438 -497.630859375 508.967773438 -497.630859375 507.467773438 -500.5 c 0,20,21
 498.91015625 -518.541992188 498.91015625 -518.541992188 489.967773438 -525 c 0,22,23
 482.877929688 -528.739257812 482.877929688 -528.739257812 454.967773438 -532 c 0,24,25
 445.342773438 -533.75 445.342773438 -533.75 425.217773438 -537.25 c 0,26,27
 404.573242188 -540.852539062 404.573242188 -540.852539062 395.467773438 -542.5 c 0,26,27
 312.88671875 -562.818359375 312.88671875 -562.818359375 227.467773438 -598.5 c 0,28,29
 209.600585938 -606.479492188 209.600585938 -606.479492188 157.467773438 -638.75 c 0,30,31
 129.500976562 -656.376953125 129.500976562 -656.376953125 120.717773438 -658 c 0,32,33
 94.5029296875 -660.016601562 94.5029296875 -660.016601562 87.1181640625 -634.169921875 c 0,34,35
 85.2900390625 -624.138671875 85.2900390625 -624.138671875 87.4677734375 -616 c 0,34,35
 91.123046875 -605.153320312 91.123046875 -605.153320312 111.967773438 -581 c 0,36,37
 127.251953125 -562.81640625 127.251953125 -562.81640625 125.967773438 -558.25 c 0,38,39
 124.95703125 -555.891601562 124.95703125 -555.891601562 103.728515625 -531.87890625 c 0,40,41
 100.916992188 -528.34765625 100.916992188 -528.34765625 99.7177734375 -526.75 c 0,40,41
 63.98046875 -476.231445312 63.98046875 -476.231445312 61.2177734375 -437.5 c 0,42,43
 57.966796875 -382.048828125 57.966796875 -382.048828125 103.217773438 -316.75 c 0,44,45
 179.743164062 -205.6640625 179.743164062 -205.6640625 294.969726562 -160.618164062 c 0,46,47
 323.827148438 -149.729492188 323.827148438 -149.729492188 349.967773438 -145.25 c 0,0,1
EndSplineSet
EndChar

StartChar: uniFE89
Encoding: 1574 1574 345
AltUni2: 00fe89.ffffffff.0
Width: 1557
VWidth: 1750
GlyphClass: 2
Flags: W
LayerCount: 2
Fore
SplineSet
1232.71777344 806.75 m 1,0,1
 1326.56738281 818.481445312 1326.56738281 818.481445312 1376.09179688 736.958007812 c 0,2,3
 1383.4375 724.271484375 1383.4375 724.271484375 1388.46777344 712.25 c 0,2,3
 1408.75195312 663.568359375 1408.75195312 663.568359375 1395.46777344 637 c 0,4,5
 1390.67480469 629.233398438 1390.67480469 629.233398438 1341.21777344 561.75 c 0,6,7
 1319.94140625 533.381835938 1319.94140625 533.381835938 1302.71777344 530.25 c 1,8,9
 1281.70800781 530.299804688 1281.70800781 530.299804688 1258.96777344 556.5 c 0,10,11
 1230.93847656 586.12890625 1230.93847656 586.12890625 1204.71777344 591.5 c 1,12,13
 1162.02929688 595.479492188 1162.02929688 595.479492188 1110.21777344 577.5 c 0,14,15
 1005.03710938 541.5 1005.03710938 541.5 935.217773438 472.5 c 0,16,17
 888.44921875 424.248046875 888.44921875 424.248046875 879.217773438 393.75 c 0,18,19
 861.56640625 327.06640625 861.56640625 327.06640625 920.430664062 272.418945312 c 0,20,21
 939.544921875 255.619140625 939.544921875 255.619140625 959.717773438 246.75 c 0,20,21
 984.321289062 237.159179688 984.321289062 237.159179688 1099.0546875 217.0703125 c 0,22,23
 1210.80566406 197.50390625 1210.80566406 197.50390625 1251.66992188 133.303710938 c 0,24,25
 1255.94921875 126.296875 1255.94921875 126.296875 1258.96777344 120.75 c 0,22,23
 1319.671875 8.8271484375 1319.671875 8.8271484375 1204.89160156 -122.541015625 c 0,24,25
 1184.41601562 -145.483398438 1184.41601562 -145.483398438 1162.71777344 -164.5 c 0,24,25
 939.274414062 -361.2265625 939.274414062 -361.2265625 614.83203125 -406.08984375 c 0,26,27
 592.1484375 -409.158203125 592.1484375 -409.158203125 571.217773438 -411.25 c 0,26,27
 245.751953125 -442.932617188 245.751953125 -442.932617188 91.7353515625 -297.755859375 c 0,28,29
 46.26171875 -253.727539062 46.26171875 -253.727539062 19.9677734375 -197.75 c 0,28,29
 -74.9169921875 11.8798828125 -74.9169921875 11.8798828125 80.5498046875 301.004882812 c 0,30,31
 84.818359375 308.880859375 84.818359375 308.880859375 88.2177734375 315 c 0,30,31
 115.416015625 364.034179688 115.416015625 364.034179688 151.217773438 416.5 c 0,32,33
 175.05078125 449.091796875 175.05078125 449.091796875 191.467773438 453.25 c 0,34,35
 221.991210938 460.431640625 221.991210938 460.431640625 237.767578125 431.663085938 c 0,36,37
 244.911132812 415.686523438 244.911132812 415.686523438 240.467773438 400.75 c 0,36,37
 236.58203125 392.012695312 236.58203125 392.012695312 215.967773438 364 c 1,38,39
 196.501953125 334.450195312 196.501953125 334.450195312 177.467773438 299.25 c 0,40,41
 94.046875 132.408203125 94.046875 132.408203125 148.37109375 4.287109375 c 0,42,43
 160.60546875 -23.2353515625 160.60546875 -23.2353515625 177.467773438 -45.5 c 0,42,43
 248.486328125 -136.439453125 248.486328125 -136.439453125 410.217773438 -162.75 c 0,44,45
 674.60546875 -207.288085938 674.60546875 -207.288085938 935.217773438 -117.25 c 0,46,47
 999.55859375 -94.6474609375 999.55859375 -94.6474609375 1064.71777344 -59.5 c 0,48,49
 1106.47363281 -38.037109375 1106.47363281 -38.037109375 1125.96777344 -21 c 1,50,51
 1133.00878906 -11.16015625 1133.00878906 -11.16015625 1113.71777344 3.5 c 1,52,53
 1097.99023438 12.6943359375 1097.99023438 12.6943359375 1041.96777344 21 c 0,54,55
 1024.89355469 23.75390625 1024.89355469 23.75390625 987.478515625 28.390625 c 0,56,57
 833.020507812 47.533203125 833.020507812 47.533203125 776.233398438 89.658203125 c 0,58,59
 739.189453125 118.677734375 739.189453125 118.677734375 721.717773438 159.25 c 1,56,57
 683.737304688 260.202148438 683.737304688 260.202148438 765.467773438 400.75 c 0,58,59
 870.642578125 577.85546875 870.642578125 577.85546875 1047.21777344 715.75 c 0,60,61
 1149.34082031 793.5859375 1149.34082031 793.5859375 1232.71777344 806.75 c 1,0,1
236.967773438 1155 m 0,0,1
 294.203125 1163.94335938 294.203125 1163.94335938 335.860351562 1125.33300781 c 1,2,3
 366.909179688 1093.80761719 366.909179688 1093.80761719 355.967773438 1053.5 c 0,2,3
 352.963867188 1043.11914062 352.963867188 1043.11914062 338.467773438 1029 c 0,4,5
 334.706054688 1025.23828125 334.706054688 1025.23828125 326.056640625 1015.13574219 c 0,6,7
 293.400390625 979.045898438 293.400390625 979.045898438 275.467773438 976.5 c 0,6,7
 265.893554688 975.702148438 265.893554688 975.702148438 236.956054688 994.154296875 c 0,8,9
 227.405273438 999.463867188 227.405273438 999.463867188 221.217773438 1001 c 0,8,9
 175.141601562 1012.9453125 175.141601562 1012.9453125 146.267578125 967.00390625 c 0,10,11
 132.543945312 943.138671875 132.543945312 943.138671875 133.717773438 918.75 c 1,10,11
 137.087890625 894.50390625 137.087890625 894.50390625 196.717773438 875 c 0,12,13
 214.331054688 870.303710938 214.331054688 870.303710938 264.674804688 881.208984375 c 0,14,15
 267.46875 881.791992188 267.46875 881.791992188 268.467773438 882 c 0,14,15
 270.459960938 882.28125 270.459960938 882.28125 348.967773438 892.5 c 0,16,17
 401.102539062 899.698242188 401.102539062 899.698242188 417.217773438 882 c 1,18,19
 431.116210938 863.931640625 431.116210938 863.931640625 399.291992188 808.579101562 c 0,20,21
 395.967773438 802.619140625 395.967773438 802.619140625 394.467773438 799.75 c 0,20,21
 385.91015625 781.708007812 385.91015625 781.708007812 376.967773438 775.25 c 0,22,23
 369.877929688 771.510742188 369.877929688 771.510742188 341.967773438 768.25 c 0,24,25
 332.342773438 766.5 332.342773438 766.5 312.217773438 763 c 0,26,27
 291.573242188 759.397460938 291.573242188 759.397460938 282.467773438 757.75 c 0,26,27
 199.88671875 737.431640625 199.88671875 737.431640625 114.467773438 701.75 c 0,28,29
 96.6005859375 693.770507812 96.6005859375 693.770507812 44.4677734375 661.5 c 0,30,31
 16.5009765625 643.873046875 16.5009765625 643.873046875 7.7177734375 642.25 c 0,32,33
 -18.4970703125 640.233398438 -18.4970703125 640.233398438 -25.8818359375 666.080078125 c 0,34,35
 -27.7099609375 676.111328125 -27.7099609375 676.111328125 -25.5322265625 684.25 c 0,34,35
 -21.876953125 695.096679688 -21.876953125 695.096679688 -1.0322265625 719.25 c 0,36,37
 14.251953125 737.43359375 14.251953125 737.43359375 12.9677734375 742 c 0,38,39
 11.95703125 744.358398438 11.95703125 744.358398438 -9.271484375 768.37109375 c 0,40,41
 -12.0830078125 771.90234375 -12.0830078125 771.90234375 -13.2822265625 773.5 c 0,40,41
 -49.01953125 824.018554688 -49.01953125 824.018554688 -51.7822265625 862.75 c 0,42,43
 -55.033203125 918.201171875 -55.033203125 918.201171875 -9.7822265625 983.5 c 0,44,45
 66.7431640625 1094.5859375 66.7431640625 1094.5859375 181.969726562 1139.63183594 c 0,46,47
 210.827148438 1150.52050781 210.827148438 1150.52050781 236.967773438 1155 c 0,0,1
EndSplineSet
AlternateSubs2: "gsub_alternate_dfl_aalt_arab_FAR_Lookup_01_Subtable_01" uniFE8A uniFE8B uniFE89 uniFE8C
Substitution2: "gsub_single_rtl_fina_arab_FAR_Lookup_01_Subtable_01" uniFE8A
Substitution2: "gsub_single_rtl_init_arab_FAR_Lookup_01_Subtable_01" uniFE8B
Substitution2: "gsub_single_rtl_medi_arab_FAR_Lookup_01_Subtable_01" uniFE8C
EndChar

StartChar: uniFE8A
Encoding: 65162 65162 346
Width: 1248
VWidth: 1750
GlyphClass: 2
Flags: W
LayerCount: 2
Fore
SplineSet
1047.54589844 -332.5 m 1,0,1
 1022.10058594 -315.537109375 1022.10058594 -315.537109375 979.295898438 -316.75 c 0,2,3
 956.358398438 -316.612304688 956.358398438 -316.612304688 912.795898438 -313.25 c 1,4,5
 726.2265625 -289.456054688 726.2265625 -289.456054688 657.295898438 -196 c 0,6,7
 594.162109375 -110.684570312 594.162109375 -110.684570312 671.793945312 6.701171875 c 0,8,9
 697.344726562 44.2509765625 697.344726562 44.2509765625 729.045898438 71.75 c 0,8,9
 883.520507812 204.380859375 883.520507812 204.380859375 1058.04589844 227.5 c 0,10,11
 1093.29394531 231.798828125 1093.29394531 231.798828125 1259.64160156 229.39453125 c 0,12,13
 1269.66992188 229.25 1269.66992188 229.25 1278.54589844 229.25 c 1,12,-1
 1278.54589844 0 l 1,13,14
 1248.72753906 0 1248.72753906 0 1188.06054688 1.69921875 c 0,15,16
 1032.9453125 5.73828125 1032.9453125 5.73828125 958.295898438 -5.25 c 1,15,16
 869.666015625 -16.0263671875 869.666015625 -16.0263671875 853.295898438 -57.75 c 0,17,18
 848.045898438 -68.25 848.045898438 -68.25 865.373046875 -82.4765625 c 2,19,-1
 867.295898438 -84 l 2,19,20
 870.795898438 -85.75 870.795898438 -85.75 873.420898438 -87.5 c 0,21,22
 876.045898438 -89.25 876.045898438 -89.25 879.545898438 -91 c 0,23,24
 883.045898438 -92.75 883.045898438 -92.75 886.545898438 -94.5 c 0,25,26
 890.045898438 -96.25 890.045898438 -96.25 892.670898438 -97.125 c 0,27,28
 895.295898438 -98 895.295898438 -98 900.545898438 -99.75 c 0,29,30
 905.795898438 -101.5 905.795898438 -101.5 907.545898438 -101.5 c 0,31,32
 909.295898438 -101.5 909.295898438 -101.5 914.545898438 -103.25 c 0,33,34
 919.795898438 -105 919.795898438 -105 921.545898438 -105 c 0,35,36
 923.295898438 -105 923.295898438 -105 929.420898438 -106.75 c 2,37,-1
 935.545898438 -108.5 l 1,21,22
 1058.31640625 -133.053710938 1058.31640625 -133.053710938 1092.24316406 -149.9609375 c 0,23,24
 1158.70605469 -185.436523438 1158.70605469 -185.436523438 1175.29589844 -253.75 c 1,23,24
 1201.45214844 -378.208984375 1201.45214844 -378.208984375 1042.29589844 -511 c 0,25,26
 1008.47949219 -541.05859375 1008.47949219 -541.05859375 989.795898438 -551.25 c 0,27,28
 984.545898438 -553.875 984.545898438 -553.875 974.045898438 -557.375 c 0,29,30
 962.962890625 -561.330078125 962.962890625 -561.330078125 958.295898438 -563.5 c 0,29,30
 714.985351562 -708.985351562 714.985351562 -708.985351562 386.145507812 -681.21484375 c 0,31,32
 383.469726562 -680.98828125 383.469726562 -680.98828125 380.795898438 -680.75 c 0,31,32
 63.8876953125 -651.270507812 63.8876953125 -651.270507812 -18.0947265625 -479.962890625 c 0,33,34
 -19.0380859375 -477.991210938 -19.0380859375 -477.991210938 -19.9541015625 -476 c 0,33,34
 -38.0087890625 -436.252929688 -38.0087890625 -436.252929688 -46.2041015625 -393.75 c 0,35,36
 -56.8427734375 -335.639648438 -56.8427734375 -335.639648438 -47.9541015625 -257.25 c 0,37,38
 -28.3330078125 -99.7705078125 -28.3330078125 -99.7705078125 81.5458984375 71.75 c 0,39,40
 84.802734375 76.6357421875 84.802734375 76.6357421875 92.408203125 89.5712890625 c 0,41,42
 134.2109375 160.673828125 134.2109375 160.673828125 165.545898438 159.25 c 0,41,42
 197.234375 157.26953125 197.234375 157.26953125 204.23046875 125.451171875 c 0,43,44
 206.073242188 112.344726562 206.073242188 112.344726562 202.295898438 101.5 c 0,43,44
 199.21875 94.576171875 199.21875 94.576171875 155.463867188 28.3349609375 c 0,45,46
 148.771484375 17.9375 148.771484375 17.9375 144.545898438 10.5 c 0,45,46
 54.169921875 -164.01953125 54.169921875 -164.01953125 115.979492188 -287.784179688 c 0,47,48
 123.811523438 -302.778320312 123.811523438 -302.778320312 132.295898438 -315 c 0,47,48
 194.311523438 -398.903320312 194.311523438 -398.903320312 372.322265625 -427.549804688 c 0,49,50
 381.973632812 -429.086914062 381.973632812 -429.086914062 391.295898438 -430.5 c 0,49,50
 668.8203125 -479.295898438 668.8203125 -479.295898438 879.545898438 -413 c 0,51,52
 933.399414062 -395.563476562 933.399414062 -395.563476562 989.795898438 -367.5 c 0,53,54
 998.045898438 -363 998.045898438 -363 1014.54589844 -352.071289062 c 0,55,56
 1037.12890625 -337.458007812 1037.12890625 -337.458007812 1047.54589844 -332.5 c 1,0,1
237.295898438 838.25 m 0,0,1
 294.53125 847.193359375 294.53125 847.193359375 336.188476562 808.583007812 c 1,2,3
 367.237304688 777.057617188 367.237304688 777.057617188 356.295898438 736.75 c 0,2,3
 353.291992188 726.369140625 353.291992188 726.369140625 338.795898438 712.25 c 0,4,5
 335.034179688 708.48828125 335.034179688 708.48828125 326.384765625 698.385742188 c 0,6,7
 293.728515625 662.295898438 293.728515625 662.295898438 275.795898438 659.75 c 0,6,7
 266.221679688 658.952148438 266.221679688 658.952148438 237.284179688 677.404296875 c 0,8,9
 228.544921875 682.977539062 228.544921875 682.977539062 221.545898438 684.25 c 0,8,9
 175.469726562 696.1953125 175.469726562 696.1953125 146.595703125 650.25390625 c 0,10,11
 132.872070312 626.388671875 132.872070312 626.388671875 134.045898438 602 c 1,10,11
 137.416015625 577.75390625 137.416015625 577.75390625 197.045898438 558.25 c 0,12,13
 214.659179688 553.553710938 214.659179688 553.553710938 265.002929688 564.458984375 c 0,14,15
 267.796875 565.041992188 267.796875 565.041992188 268.795898438 565.25 c 0,14,15
 270.788085938 565.53125 270.788085938 565.53125 349.295898438 575.75 c 0,16,17
 401.430664062 582.948242188 401.430664062 582.948242188 417.545898438 565.25 c 1,18,19
 431.444335938 547.181640625 431.444335938 547.181640625 399.620117188 491.829101562 c 0,20,21
 396.295898438 485.869140625 396.295898438 485.869140625 394.795898438 483 c 0,20,21
 386.23828125 464.958007812 386.23828125 464.958007812 377.295898438 458.5 c 0,22,23
 370.206054688 454.760742188 370.206054688 454.760742188 342.295898438 451.5 c 0,24,25
 332.670898438 449.75 332.670898438 449.75 312.545898438 446.25 c 0,26,27
 291.901367188 442.647460938 291.901367188 442.647460938 282.795898438 441 c 0,26,27
 200.21484375 420.681640625 200.21484375 420.681640625 114.795898438 385 c 0,28,29
 96.9287109375 377.020507812 96.9287109375 377.020507812 44.7958984375 344.75 c 0,30,31
 16.8291015625 327.123046875 16.8291015625 327.123046875 8.0458984375 325.5 c 0,32,33
 -18.1689453125 323.483398438 -18.1689453125 323.483398438 -25.5537109375 349.330078125 c 0,34,35
 -27.3818359375 359.361328125 -27.3818359375 359.361328125 -25.2041015625 367.5 c 0,34,35
 -21.548828125 378.346679688 -21.548828125 378.346679688 -0.7041015625 402.5 c 0,36,37
 14.580078125 420.68359375 14.580078125 420.68359375 13.2958984375 425.25 c 0,38,39
 12.28515625 427.608398438 12.28515625 427.608398438 -8.943359375 451.62109375 c 0,40,41
 -11.7548828125 455.15234375 -11.7548828125 455.15234375 -12.9541015625 456.75 c 0,40,41
 -48.69140625 507.268554688 -48.69140625 507.268554688 -51.4541015625 546 c 0,42,43
 -54.705078125 601.451171875 -54.705078125 601.451171875 -9.4541015625 666.75 c 0,44,45
 67.0712890625 777.8359375 67.0712890625 777.8359375 182.297851562 822.881835938 c 0,46,47
 210.315429688 833.834960938 210.315429688 833.834960938 237.295898438 838.25 c 0,0,1
EndSplineSet
EndChar

StartChar: uniFE8B
Encoding: 65163 65163 347
Width: 659
VWidth: 1750
GlyphClass: 2
Flags: W
LayerCount: 2
Fore
SplineSet
351.25 1230.25 m 0,0,1
 408.485351562 1239.19335938 408.485351562 1239.19335938 450.142578125 1200.58300781 c 1,2,3
 481.19140625 1169.05761719 481.19140625 1169.05761719 470.25 1128.75 c 0,2,3
 467.24609375 1118.36914062 467.24609375 1118.36914062 452.75 1104.25 c 0,4,5
 448.98828125 1100.48828125 448.98828125 1100.48828125 440.338867188 1090.38574219 c 0,6,7
 407.682617188 1054.29589844 407.682617188 1054.29589844 389.75 1051.75 c 0,6,7
 380.17578125 1050.95214844 380.17578125 1050.95214844 351.23828125 1069.40429688 c 0,8,9
 341.6875 1074.71386719 341.6875 1074.71386719 335.5 1076.25 c 0,8,9
 289.423828125 1088.1953125 289.423828125 1088.1953125 260.549804688 1042.25390625 c 0,10,11
 246.826171875 1018.38867188 246.826171875 1018.38867188 248 994 c 1,10,11
 251.370117188 969.75390625 251.370117188 969.75390625 311 950.25 c 0,12,13
 328.61328125 945.553710938 328.61328125 945.553710938 378.95703125 956.458984375 c 0,14,15
 381.750976562 957.041992188 381.750976562 957.041992188 382.75 957.25 c 0,14,15
 384.7421875 957.53125 384.7421875 957.53125 463.25 967.75 c 0,16,17
 515.384765625 974.948242188 515.384765625 974.948242188 531.5 957.25 c 1,18,19
 545.3984375 939.181640625 545.3984375 939.181640625 513.57421875 883.829101562 c 0,20,21
 510.25 877.869140625 510.25 877.869140625 508.75 875 c 0,20,21
 500.192382812 856.958007812 500.192382812 856.958007812 491.25 850.5 c 0,22,23
 484.16015625 846.760742188 484.16015625 846.760742188 456.25 843.5 c 0,24,25
 446.625 841.75 446.625 841.75 426.5 838.25 c 0,26,27
 405.85546875 834.647460938 405.85546875 834.647460938 396.75 833 c 0,26,27
 314.168945312 812.681640625 314.168945312 812.681640625 228.75 777 c 0,28,29
 210.8828125 769.020507812 210.8828125 769.020507812 158.75 736.75 c 0,30,31
 130.783203125 719.123046875 130.783203125 719.123046875 122 717.5 c 0,32,33
 95.78515625 715.483398438 95.78515625 715.483398438 88.400390625 741.330078125 c 0,34,35
 86.572265625 751.361328125 86.572265625 751.361328125 88.75 759.5 c 0,34,35
 92.4052734375 770.346679688 92.4052734375 770.346679688 113.25 794.5 c 0,36,37
 128.534179688 812.68359375 128.534179688 812.68359375 127.25 817.25 c 0,38,39
 126.239257812 819.608398438 126.239257812 819.608398438 105.010742188 843.62109375 c 0,40,41
 102.19921875 847.15234375 102.19921875 847.15234375 101 848.75 c 0,40,41
 65.2626953125 899.268554688 65.2626953125 899.268554688 62.5 938 c 0,42,43
 59.2490234375 993.451171875 59.2490234375 993.451171875 104.5 1058.75 c 0,44,45
 181.025390625 1169.8359375 181.025390625 1169.8359375 296.251953125 1214.88183594 c 0,46,47
 325.109375 1225.77050781 325.109375 1225.77050781 351.25 1230.25 c 0,0,1
-32 229.25 m 1,46,47
 185.51171875 229.362304688 185.51171875 229.362304688 211.25 231 c 0,48,49
 278.325195312 235.471679688 278.325195312 235.471679688 293.712890625 247.383789062 c 0,50,51
 297.166992188 250.473632812 297.166992188 250.473632812 298.75 252 c 0,50,51
 307.737304688 266.501953125 307.737304688 266.501953125 304 297.5 c 0,52,53
 298.646484375 334.404296875 298.646484375 334.404296875 276 374.5 c 0,54,55
 274.072265625 378.998046875 274.072265625 378.998046875 268.787109375 387.544921875 c 0,56,57
 259.987304688 403.229492188 259.987304688 403.229492188 258.5 411.25 c 0,56,57
 253.09765625 434.2109375 253.09765625 434.2109375 293.55859375 498.895507812 c 0,58,59
 297.021484375 504.553710938 297.021484375 504.553710938 298.75 507.5 c 0,58,59
 322.666015625 555.333007812 322.666015625 555.333007812 337.749023438 563.224609375 c 0,60,61
 348.32421875 567.560546875 348.32421875 567.560546875 358.25 567 c 0,60,61
 393.313476562 560.420898438 393.313476562 560.420898438 424.75 470.75 c 1,62,63
 487.75 317.03125 487.75 317.03125 423.3828125 173.66796875 c 0,64,65
 414.708007812 154.345703125 414.708007812 154.345703125 403.75 136.5 c 0,64,65
 384.232421875 104.357421875 384.232421875 104.357421875 358.25 80.5 c 0,66,67
 271.576171875 -0.58203125 271.576171875 -0.58203125 97.580078125 -1.7705078125 c 0,68,69
 74.5400390625 -1.927734375 74.5400390625 -1.927734375 28.2109375 -0.896484375 c 0,70,71
 -12.6376953125 -0.025390625 -12.6376953125 -0.025390625 -32 0 c 1,68,-1
 -32 229.25 l 1,46,47
EndSplineSet
EndChar

StartChar: uniFE8C
Encoding: 65164 65164 348
Width: 574
VWidth: 1750
GlyphClass: 2
Flags: W
LayerCount: 2
Fore
SplineSet
328.5 1230.25 m 0,0,1
 385.735351562 1239.19335938 385.735351562 1239.19335938 427.392578125 1200.58300781 c 1,2,3
 458.44140625 1169.05761719 458.44140625 1169.05761719 447.5 1128.75 c 0,2,3
 444.49609375 1118.36914062 444.49609375 1118.36914062 430 1104.25 c 0,4,5
 426.23828125 1100.48828125 426.23828125 1100.48828125 417.588867188 1090.38574219 c 0,6,7
 384.932617188 1054.29589844 384.932617188 1054.29589844 367 1051.75 c 0,6,7
 357.42578125 1050.95214844 357.42578125 1050.95214844 328.48828125 1069.40429688 c 0,8,9
 318.9375 1074.71386719 318.9375 1074.71386719 312.75 1076.25 c 0,8,9
 266.673828125 1088.1953125 266.673828125 1088.1953125 237.799804688 1042.25390625 c 0,10,11
 224.076171875 1018.38867188 224.076171875 1018.38867188 225.25 994 c 1,10,11
 228.620117188 969.75390625 228.620117188 969.75390625 288.25 950.25 c 0,12,13
 305.86328125 945.553710938 305.86328125 945.553710938 356.20703125 956.458984375 c 0,14,15
 359.000976562 957.041992188 359.000976562 957.041992188 360 957.25 c 0,14,15
 361.9921875 957.53125 361.9921875 957.53125 440.5 967.75 c 0,16,17
 492.634765625 974.948242188 492.634765625 974.948242188 508.75 957.25 c 1,18,19
 522.6484375 939.181640625 522.6484375 939.181640625 490.82421875 883.829101562 c 0,20,21
 487.5 877.869140625 487.5 877.869140625 486 875 c 0,20,21
 477.442382812 856.958007812 477.442382812 856.958007812 468.5 850.5 c 0,22,23
 461.41015625 846.760742188 461.41015625 846.760742188 433.5 843.5 c 0,24,25
 423.875 841.75 423.875 841.75 403.75 838.25 c 0,26,27
 383.10546875 834.647460938 383.10546875 834.647460938 374 833 c 0,26,27
 291.418945312 812.681640625 291.418945312 812.681640625 206 777 c 0,28,29
 188.1328125 769.020507812 188.1328125 769.020507812 136 736.75 c 0,30,31
 108.033203125 719.123046875 108.033203125 719.123046875 99.25 717.5 c 0,32,33
 73.03515625 715.483398438 73.03515625 715.483398438 65.650390625 741.330078125 c 0,34,35
 63.822265625 751.361328125 63.822265625 751.361328125 66 759.5 c 0,34,35
 69.6552734375 770.346679688 69.6552734375 770.346679688 90.5 794.5 c 0,36,37
 105.784179688 812.68359375 105.784179688 812.68359375 104.5 817.25 c 0,38,39
 103.489257812 819.608398438 103.489257812 819.608398438 82.2607421875 843.62109375 c 0,40,41
 79.44921875 847.15234375 79.44921875 847.15234375 78.25 848.75 c 0,40,41
 42.5126953125 899.268554688 42.5126953125 899.268554688 39.75 938 c 0,42,43
 36.4990234375 993.451171875 36.4990234375 993.451171875 81.75 1058.75 c 0,44,45
 158.275390625 1169.8359375 158.275390625 1169.8359375 273.501953125 1214.88183594 c 0,46,47
 302.359375 1225.77050781 302.359375 1225.77050781 328.5 1230.25 c 0,0,1
-32 229.25 m 1,46,47
 131.682617188 229.25 131.682617188 229.25 202.044921875 264.796875 c 0,48,49
 221.838867188 275.221679688 221.838867188 275.221679688 237.5 287 c 0,48,49
 262.81640625 309.310546875 262.81640625 309.310546875 269 320.25 c 0,50,51
 273.52734375 330.310546875 273.52734375 330.310546875 278.9375 357.6640625 c 0,52,53
 291.538085938 421.37109375 291.538085938 421.37109375 319.362304688 428.91796875 c 0,54,55
 326.274414062 430.30859375 326.274414062 430.30859375 332 430.5 c 0,52,53
 365.201171875 430.5 365.201171875 430.5 374.700195312 385.612304688 c 0,54,55
 375.237304688 383.073242188 375.237304688 383.073242188 376.244140625 377.994140625 c 0,56,57
 378.309570312 367.961914062 378.309570312 367.961914062 379.25 364 c 0,54,55
 391.46875 326.385742188 391.46875 326.385742188 410.75 299.25 c 1,56,57
 466.692382812 232.119140625 466.692382812 232.119140625 584.87890625 229.456054688 c 0,58,59
 595.083007812 229.264648438 595.083007812 229.264648438 605 229.25 c 1,58,-1
 605 0 l 1,59,60
 448.62109375 1.0966796875 448.62109375 1.0966796875 363.5 57.75 c 1,61,62
 310.624023438 95.85546875 310.624023438 95.85546875 298.75 122.5 c 1,63,64
 261.505859375 81.869140625 261.505859375 81.869140625 239.25 64.75 c 0,65,66
 145.756835938 0.34765625 145.756835938 0.34765625 -32 0 c 1,67,-1
 -32 229.25 l 1,46,47
EndSplineSet
EndChar

StartChar: alefarabic
Encoding: 1575 1575 349
AltUni2: 00fe8d.ffffffff.0
Width: 457
VWidth: 1750
GlyphClass: 2
Flags: HW
AnchorPoint: "GposMark2BaseAnchorClassErabAbove_01_02" 203.269 1560.5 basechar 0
AnchorPoint: "GposMark2BaseAnchorClassErabBelow_01_02" 203.269 -156.891 basechar 0
LayerCount: 2
Fore
SplineSet
228.264648438 1410.5 m 1,0,1
 270.12890625 1409.5390625 270.12890625 1409.5390625 275.514648438 1354.5 c 1,2,3
 275.629882812 1270.63378906 275.629882812 1270.63378906 286.014648438 1114.75 c 0,4,5
 288.205078125 1084.52832031 288.205078125 1084.52832031 293.928710938 787.5 c 0,6,7
 294.315429688 768.3125 294.315429688 768.3125 294.764648438 752.5 c 0,8,9
 303.110351562 360.092773438 303.110351562 360.092773438 300.014648438 262.5 c 0,10,11
 298.208984375 202.682617188 298.208984375 202.682617188 275.514648438 63 c 0,12,13
 265.303710938 7.814453125 265.303710938 7.814453125 238.764648438 0 c 1,14,15
 195.69921875 -6.890625 195.69921875 -6.890625 186.565429688 50.4404296875 c 0,16,17
 185.405273438 58.2890625 185.405273438 58.2890625 184.514648438 66.5 c 0,18,19
 181.014648438 98.7001953125 181.014648438 98.7001953125 175.134765625 163.099609375 c 0,20,21
 166.193359375 260.283203125 166.193359375 260.283203125 160.014648438 308 c 0,22,23
 154.2265625 363.568359375 154.2265625 363.568359375 148.799804688 477.2734375 c 0,24,25
 145.990234375 535.629882812 145.990234375 535.629882812 144.264648438 563.5 c 0,26,27
 137.264648438 666.75 137.264648438 666.75 124.139648438 872.375 c 0,28,29
 110.969726562 1078.58984375 110.969726562 1078.58984375 104.014648438 1181.25 c 0,30,31
 103.426757812 1201.97167969 103.426757812 1201.97167969 126.764648438 1244.25 c 1,32,33
 165.700195312 1325.265625 165.700195312 1325.265625 188.014648438 1363.25 c 0,34,35
 208.041015625 1399.96484375 208.041015625 1399.96484375 210.919921875 1402.54101562 c 0,36,37
 219.583007812 1408.7421875 219.583007812 1408.7421875 228.264648438 1410.5 c 1,0,1
EndSplineSet
AlternateSubs2: "gsub_alternate_dfl_aalt_arab_FAR_Lookup_01_Subtable_01" uniFE8E alefarabic
Substitution2: "gsub_single_rtl_fina_arab_FAR_Lookup_01_Subtable_01" uniFE8E
PairPos2: "gpos_pair_dfl_kern_arab_FAR_Lookup_01_Subtable_01" gafarabic dx=0 dy=0 dh=0 dv=0 dx=0 dy=0 dh=0 dv=0
EndChar

StartChar: uniFE8E
Encoding: 65166 65166 350
Width: 514
VWidth: 1750
GlyphClass: 2
Flags: HW
AnchorPoint: "GposMark2BaseAnchorClassErabAbove_01_02" 323.847 1562.25 basechar 0
AnchorPoint: "GposMark2BaseAnchorClassErabBelow_01_02" 323.847 -150 basechar 0
LayerCount: 2
Fore
SplineSet
545.647460938 0 m 1,0,1
 463.397460938 0 l 1,2,3
 346.23046875 22.025390625 346.23046875 22.025390625 244.647460938 138.25 c 0,4,5
 168.356445312 225.420898438 168.356445312 225.420898438 146.647460938 299.25 c 0,6,7
 132.651367188 349.986328125 132.651367188 349.986328125 132.647460938 446.25 c 0,8,9
 132.57421875 489.984375 132.57421875 489.984375 129.147460938 572.25 c 0,10,11
 127.747070312 626.150390625 127.747070312 626.150390625 123.827148438 733.950195312 c 0,12,13
 117.966796875 896.233398438 117.966796875 896.233398438 116.897460938 976.5 c 0,14,15
 116.774414062 1028.88574219 116.774414062 1028.88574219 109.897460938 1125.25 c 1,16,17
 102.046875 1187.33203125 102.046875 1187.33203125 104.647460938 1209.25 c 0,18,19
 106.704101562 1216.48242188 106.704101562 1216.48242188 127.397460938 1256.5 c 0,20,21
 138.78125 1277.51953125 138.78125 1277.51953125 158.897460938 1317.75 c 0,22,23
 161.569335938 1323.09472656 161.569335938 1323.09472656 167.573242188 1337.10644531 c 0,24,25
 200.372070312 1409.01855469 200.372070312 1409.01855469 228.897460938 1412.25 c 1,26,27
 267.935546875 1397.97851562 267.935546875 1397.97851562 269.147460938 1338.75 c 0,28,29
 269.147460938 1295 269.147460938 1295 270.897460938 1208.375 c 0,30,31
 272.624023438 1121.15136719 272.624023438 1121.15136719 272.647460938 1078 c 0,32,33
 272.647460938 992.2890625 272.647460938 992.2890625 279.74609375 821.841796875 c 0,34,35
 285.838867188 675.5390625 285.838867188 675.5390625 286.647460938 602 c 0,36,37
 286.798828125 480.706054688 286.798828125 480.706054688 291.897460938 421.75 c 0,38,39
 292.532226562 415.3984375 292.532226562 415.3984375 291.95703125 401.731445312 c 0,40,41
 291.635742188 377.221679688 291.635742188 377.221679688 295.397460938 367.5 c 0,42,43
 306.063476562 341.596679688 306.063476562 341.596679688 365.091796875 306.762695312 c 0,44,45
 367.923828125 305.079101562 367.923828125 305.079101562 368.897460938 304.5 c 0,46,47
 379.361328125 297.17578125 379.361328125 297.17578125 400.4296875 280.223632812 c 0,48,49
 451.669921875 239.9140625 451.669921875 239.9140625 479.147460938 231 c 0,50,51
 489.697265625 228.786132812 489.697265625 228.786132812 545.647460938 229.25 c 1,52,-1
 545.647460938 0 l 1,0,1
EndSplineSet
PairPos2: "gpos_pair_dfl_kern_arab_FAR_Lookup_01_Subtable_01" gafarabic dx=0 dy=0 dh=0 dv=0 dx=0 dy=0 dh=0 dv=0
EndChar

StartChar: afii57416
Encoding: 1576 1576 351
AltUni2: 00fe8f.ffffffff.0
Width: 1608
VWidth: 1750
GlyphClass: 2
Flags: HW
AnchorPoint: "GposMark2BaseAnchorClassErabAbove_01_02" 711.08 893.75 basechar 0
AnchorPoint: "GposMark2BaseAnchorClassErabBelow_01_02" 711.08 -652.6 basechar 0
LayerCount: 2
Fore
SplineSet
1351.96875 738.5 m 0,0,1
 1383.46875 743.75 1383.46875 743.75 1407.484375 690.55078125 c 2,2,-1
 1407.96875 689.5 l 1,3,4
 1451.25097656 603.846679688 1451.25097656 603.846679688 1451.71875 511 c 0,5,6
 1451.71875 350.155273438 1451.71875 350.155273438 1340.20703125 237.94921875 c 0,7,8
 1333.04394531 230.900390625 1333.04394531 230.900390625 1327.46875 225.75 c 0,9,10
 1273.49902344 177.497070312 1273.49902344 177.497070312 1189.21875 145.25 c 0,11,12
 854.899414062 19.28125 854.899414062 19.28125 497.96875 35 c 1,13,14
 286.58203125 46.2099609375 286.58203125 46.2099609375 181.21875 92.75 c 1,15,16
 129.029296875 118.000976562 129.029296875 118.000976562 97.21875 147 c 0,17,18
 -29.5595703125 262.252929688 -29.5595703125 262.252929688 8.9873046875 460.473632812 c 0,19,20
 18.4287109375 507.236328125 18.4287109375 507.236328125 35.96875 551.25 c 0,21,22
 50.9912109375 587.916015625 50.9912109375 587.916015625 88.46875 649.25 c 0,23,24
 110.194335938 682.025390625 110.194335938 682.025390625 119.96875 687.75 c 0,25,26
 148.041015625 704.592773438 148.041015625 704.592773438 171.416015625 677.365234375 c 0,27,28
 181.279296875 663.802734375 181.279296875 663.802734375 181.21875 649.25 c 0,29,30
 181.21875 644 181.21875 644 179.46875 640.5 c 128,-1,31
 177.71875 637 177.71875 637 175.09375 631.75 c 128,-1,32
 172.46875 626.5 172.46875 626.5 171.59375 624.75 c 128,-1,33
 170.71875 623 170.71875 623 165.46875 616 c 2,34,-1
 160.21875 609 l 1,35,36
 142.525390625 575.579101562 142.525390625 575.579101562 135.71875 549.5 c 0,37,38
 108.485351562 436.676757812 108.485351562 436.676757812 216.486328125 359.329101562 c 0,39,40
 242.266601562 341.387695312 242.266601562 341.387695312 270.46875 329 c 0,41,42
 364.3125 290.489257812 364.3125 290.489257812 545.21875 276.5 c 0,43,44
 860.920898438 254.09765625 860.920898438 254.09765625 1117.46875 318.5 c 0,45,46
 1204.93261719 340.631835938 1204.93261719 340.631835938 1262.71875 364 c 1,47,48
 1302.43261719 377.23828125 1302.43261719 377.23828125 1310.00976562 395.787109375 c 0,49,50
 1311.18945312 399.130859375 1311.18945312 399.130859375 1311.71875 400.75 c 0,51,52
 1322.38183594 442.030273438 1322.38183594 442.030273438 1285.46875 516.25 c 1,53,54
 1265.4609375 549.419921875 1265.4609375 549.419921875 1262.71875 560 c 1,55,56
 1262.0234375 573.037109375 1262.0234375 573.037109375 1273.21875 598.5 c 0,57,58
 1278.46875 609.875 1278.46875 609.875 1288.09375 633.5 c 0,59,60
 1298.02148438 657.653320312 1298.02148438 657.653320312 1302.96875 668.5 c 0,61,62
 1324.38574219 718.47265625 1324.38574219 718.47265625 1326.69726562 721.524414062 c 0,63,64
 1338.51953125 734.73046875 1338.51953125 734.73046875 1351.96875 738.5 c 0,0,1
760.46875 -194.25 m 0,65,66
 791.337890625 -186.900390625 791.337890625 -186.900390625 826.15625 -246.493164062 c 0,67,68
 833.732421875 -259.329101562 833.732421875 -259.329101562 835.71875 -262.5 c 0,69,70
 875.3515625 -315.34375 875.3515625 -315.34375 877.08203125 -318.67578125 c 0,71,72
 883.151367188 -331.619140625 883.151367188 -331.619140625 884.71875 -341.25 c 0,73,74
 885.16796875 -357.879882812 885.16796875 -357.879882812 865.46875 -385 c 0,75,76
 856.71875 -398.125 856.71875 -398.125 839.21875 -423.5 c 128,-1,77
 821.71875 -448.875 821.71875 -448.875 812.96875 -462 c 0,78,79
 789.078125 -491.28125 789.078125 -491.28125 774.46875 -495.25 c 0,80,81
 743.599609375 -502.599609375 743.599609375 -502.599609375 708.78125 -443.006835938 c 0,82,83
 701.205078125 -430.170898438 701.205078125 -430.170898438 699.21875 -427 c 0,84,85
 659.5859375 -374.15625 659.5859375 -374.15625 657.85546875 -370.82421875 c 0,86,87
 651.786132812 -357.880859375 651.786132812 -357.880859375 650.21875 -348.25 c 0,88,89
 649.76953125 -331.620117188 649.76953125 -331.620117188 669.46875 -304.5 c 0,90,91
 678.21875 -291.375 678.21875 -291.375 695.71875 -266 c 0,92,93
 713.616210938 -239.991210938 713.616210938 -239.991210938 721.96875 -227.5 c 0,94,95
 745.859375 -198.21875 745.859375 -198.21875 760.46875 -194.25 c 0,65,66
EndSplineSet
AlternateSubs2: "gsub_alternate_dfl_aalt_arab_FAR_Lookup_01_Subtable_01" uniFE90 uniFE91 afii57416 uniFE92
Substitution2: "gsub_single_rtl_fina_arab_FAR_Lookup_01_Subtable_01" uniFE90
Substitution2: "gsub_single_rtl_init_arab_FAR_Lookup_01_Subtable_01" uniFE91
Substitution2: "gsub_single_rtl_medi_arab_FAR_Lookup_01_Subtable_01" uniFE92
EndChar

StartChar: uniFE90
Encoding: 65168 65168 352
Width: 1618
VWidth: 1750
GlyphClass: 2
Flags: HW
AnchorPoint: "GposMark2BaseAnchorClassErabAbove_01_02" 811.727 804.069 basechar 0
AnchorPoint: "GposMark2BaseAnchorClassErabBelow_01_02" 811.727 -652.6 basechar 0
LayerCount: 2
Fore
SplineSet
1354.72070312 183.75 m 1,0,1
 1348.10644531 180.697265625 1348.10644531 180.697265625 1298.66308594 144.841796875 c 0,2,3
 1294.20507812 141.697265625 1294.20507812 141.697265625 1291.72070312 140 c 0,4,5
 1222.59960938 98.4345703125 1222.59960938 98.4345703125 1135.97070312 64.75 c 0,6,7
 858.66796875 -42.4287109375 858.66796875 -42.4287109375 505.970703125 -19.25 c 0,8,9
 306.455078125 -5.7998046875 306.455078125 -5.7998046875 185.720703125 43.75 c 0,10,11
 143.724609375 62.6328125 143.724609375 62.6328125 108.720703125 89.25 c 0,12,13
 -25.267578125 197.185546875 -25.267578125 197.185546875 5.8720703125 394.775390625 c 0,14,15
 14.818359375 448.967773438 14.818359375 448.967773438 35.220703125 500.5 c 0,16,17
 54.3603515625 549.653320312 54.3603515625 549.653320312 89.470703125 605.5 c 0,18,19
 110.4765625 636.397460938 110.4765625 636.397460938 124.470703125 642.25 c 0,20,21
 155.98828125 654.069335938 155.98828125 654.069335938 174.672851562 623.944335938 c 0,22,23
 181.325195312 611.022460938 181.325195312 611.022460938 180.470703125 598.5 c 0,24,25
 179.515625 594.201171875 179.515625 594.201171875 160.696289062 563.569335938 c 0,26,27
 158.99609375 560.80078125 158.99609375 560.80078125 157.720703125 558.25 c 0,28,29
 136.2265625 513.971679688 136.2265625 513.971679688 131.470703125 481.25 c 1,30,31
 128.99609375 451.369140625 128.99609375 451.369140625 133.220703125 428.75 c 0,32,33
 161.705078125 300.770507812 161.705078125 300.770507812 369.470703125 252 c 1,34,35
 779.487304688 162.489257812 779.487304688 162.489257812 1126.02636719 281.7734375 c 0,36,37
 1131.8828125 283.806640625 1131.8828125 283.806640625 1135.97070312 285.25 c 0,38,39
 1244.77246094 323.108398438 1244.77246094 323.108398438 1323.22070312 381.5 c 0,40,41
 1331.91992188 387.87890625 1331.91992188 387.87890625 1350.47070312 407.1875 c 0,42,43
 1390.953125 447.513671875 1390.953125 447.513671875 1412.47070312 449.75 c 0,44,45
 1441.44628906 450.614257812 1441.44628906 450.614257812 1454.47070312 425.25 c 0,46,47
 1458.82324219 416.543945312 1458.82324219 416.543945312 1460.74511719 397.943359375 c 0,48,49
 1462.17285156 386.276367188 1462.17285156 386.276367188 1463.22070312 381.5 c 0,50,51
 1468.21875 350.295898438 1468.21875 350.295898438 1485.97070312 311.5 c 1,52,53
 1519.06835938 246.403320312 1519.06835938 246.403320312 1575.22070312 232.75 c 0,54,55
 1589.60839844 228.868164062 1589.60839844 228.868164062 1648.72070312 229.25 c 1,56,-1
 1648.72070312 0 l 1,57,-1
 1566.47070312 0 l 1,58,59
 1454.31152344 20.2822265625 1454.31152344 20.2822265625 1387.97070312 115.5 c 0,60,61
 1359.32421875 156.370117188 1359.32421875 156.370117188 1354.72070312 183.75 c 1,0,1
805.220703125 -194.25 m 0,62,63
 836.08984375 -186.900390625 836.08984375 -186.900390625 870.908203125 -246.493164062 c 0,64,65
 878.484375 -259.329101562 878.484375 -259.329101562 880.470703125 -262.5 c 0,66,67
 920.103515625 -315.34375 920.103515625 -315.34375 921.833984375 -318.67578125 c 0,68,69
 927.903320312 -331.619140625 927.903320312 -331.619140625 929.470703125 -341.25 c 0,70,71
 929.919921875 -357.879882812 929.919921875 -357.879882812 910.220703125 -385 c 0,72,73
 901.470703125 -398.125 901.470703125 -398.125 883.970703125 -423.5 c 0,74,75
 866.073242188 -449.508789062 866.073242188 -449.508789062 857.720703125 -462 c 0,76,77
 833.830078125 -491.28125 833.830078125 -491.28125 819.220703125 -495.25 c 0,78,79
 788.3515625 -502.599609375 788.3515625 -502.599609375 753.533203125 -443.006835938 c 0,80,81
 745.95703125 -430.170898438 745.95703125 -430.170898438 743.970703125 -427 c 0,82,83
 704.337890625 -374.15625 704.337890625 -374.15625 702.607421875 -370.82421875 c 0,84,85
 696.538085938 -357.880859375 696.538085938 -357.880859375 694.970703125 -348.25 c 0,86,87
 694.521484375 -331.620117188 694.521484375 -331.620117188 714.220703125 -304.5 c 0,88,89
 722.970703125 -291.375 722.970703125 -291.375 740.470703125 -266 c 0,90,91
 758.368164062 -239.991210938 758.368164062 -239.991210938 766.720703125 -227.5 c 0,92,93
 790.611328125 -198.21875 790.611328125 -198.21875 805.220703125 -194.25 c 0,62,63
EndSplineSet
EndChar

StartChar: uniFE91
Encoding: 65169 65169 353
Width: 612
VWidth: 1750
GlyphClass: 2
Flags: HW
AnchorPoint: "GposMark2BaseAnchorClassErabAbove_01_02" 227.875 717.561 basechar 0
AnchorPoint: "GposMark2BaseAnchorClassErabBelow_01_02" 227.875 -652.6 basechar 0
LayerCount: 2
Fore
SplineSet
-32 229.25 m 1,0,1
 185.51171875 229.362304688 185.51171875 229.362304688 211.25 231 c 0,2,3
 278.325195312 235.471679688 278.325195312 235.471679688 293.712890625 247.383789062 c 0,4,5
 297.166992188 250.473632812 297.166992188 250.473632812 298.75 252 c 0,6,7
 307.737304688 266.501953125 307.737304688 266.501953125 304 297.5 c 0,8,9
 298.646484375 334.404296875 298.646484375 334.404296875 276 374.5 c 0,10,11
 274.072265625 378.998046875 274.072265625 378.998046875 268.787109375 387.544921875 c 0,12,13
 259.987304688 403.229492188 259.987304688 403.229492188 258.5 411.25 c 0,14,15
 253.09765625 434.2109375 253.09765625 434.2109375 293.55859375 498.895507812 c 0,16,17
 297.021484375 504.553710938 297.021484375 504.553710938 298.75 507.5 c 0,18,19
 322.666015625 555.333007812 322.666015625 555.333007812 337.749023438 563.224609375 c 0,20,21
 348.32421875 567.560546875 348.32421875 567.560546875 358.25 567 c 0,22,23
 393.313476562 560.420898438 393.313476562 560.420898438 424.75 470.75 c 1,24,25
 487.75 317.03125 487.75 317.03125 423.3828125 173.66796875 c 0,26,27
 414.708007812 154.345703125 414.708007812 154.345703125 403.75 136.5 c 0,28,29
 384.232421875 104.357421875 384.232421875 104.357421875 358.25 80.5 c 0,30,31
 271.576171875 -0.58203125 271.576171875 -0.58203125 97.580078125 -1.7705078125 c 0,32,33
 74.5400390625 -1.927734375 74.5400390625 -1.927734375 28.2109375 -0.896484375 c 0,34,35
 -12.6376953125 -0.025390625 -12.6376953125 -0.025390625 -32 0 c 1,36,-1
 -32 229.25 l 1,0,1
267.25 -194.25 m 0,37,38
 298.119140625 -186.900390625 298.119140625 -186.900390625 332.9375 -246.493164062 c 0,39,40
 340.513671875 -259.329101562 340.513671875 -259.329101562 342.5 -262.5 c 0,41,42
 382.1328125 -315.34375 382.1328125 -315.34375 383.86328125 -318.67578125 c 0,43,44
 389.932617188 -331.619140625 389.932617188 -331.619140625 391.5 -341.25 c 0,45,46
 391.94921875 -357.879882812 391.94921875 -357.879882812 372.25 -385 c 0,47,48
 363.5 -398.125 363.5 -398.125 346 -423.5 c 0,49,50
 328.102539062 -449.508789062 328.102539062 -449.508789062 319.75 -462 c 0,51,52
 295.859375 -491.28125 295.859375 -491.28125 281.25 -495.25 c 0,53,54
 250.380859375 -502.599609375 250.380859375 -502.599609375 215.5625 -443.006835938 c 0,55,56
 207.986328125 -430.170898438 207.986328125 -430.170898438 206 -427 c 0,57,58
 166.3671875 -374.15625 166.3671875 -374.15625 164.63671875 -370.82421875 c 0,59,60
 158.567382812 -357.880859375 158.567382812 -357.880859375 157 -348.25 c 0,61,62
 156.55078125 -331.620117188 156.55078125 -331.620117188 176.25 -304.5 c 0,63,64
 185 -291.375 185 -291.375 202.5 -266 c 0,65,66
 220.397460938 -239.991210938 220.397460938 -239.991210938 228.75 -227.5 c 0,67,68
 251.293945312 -197.44140625 251.293945312 -197.44140625 267.25 -194.25 c 0,37,38
EndSplineSet
EndChar

StartChar: uniFE92
Encoding: 65170 65170 354
Width: 574
VWidth: 1750
GlyphClass: 2
Flags: HW
AnchorPoint: "GposMark2BaseAnchorClassErabAbove_01_02" 286.5 580.5 basechar 0
AnchorPoint: "GposMark2BaseAnchorClassErabBelow_01_02" 286.5 -652.6 basechar 0
LayerCount: 2
Fore
SplineSet
-32 229.25 m 1,0,1
 131.682617188 229.25 131.682617188 229.25 202.044921875 264.796875 c 0,2,3
 221.838867188 275.221679688 221.838867188 275.221679688 237.5 287 c 0,4,5
 262.81640625 309.310546875 262.81640625 309.310546875 269 320.25 c 0,6,7
 273.52734375 330.310546875 273.52734375 330.310546875 278.9375 357.6640625 c 0,8,9
 291.538085938 421.37109375 291.538085938 421.37109375 319.362304688 428.91796875 c 0,10,11
 326.274414062 430.30859375 326.274414062 430.30859375 332 430.5 c 0,12,13
 365.201171875 430.5 365.201171875 430.5 374.700195312 385.612304688 c 0,14,15
 375.237304688 383.073242188 375.237304688 383.073242188 376.244140625 377.994140625 c 0,16,17
 378.309570312 367.961914062 378.309570312 367.961914062 379.25 364 c 0,18,19
 391.46875 326.385742188 391.46875 326.385742188 410.75 299.25 c 1,20,21
 466.692382812 232.119140625 466.692382812 232.119140625 584.87890625 229.456054688 c 0,22,23
 595.083007812 229.264648438 595.083007812 229.264648438 605 229.25 c 1,24,-1
 605 0 l 1,25,26
 448.62109375 1.0966796875 448.62109375 1.0966796875 363.5 57.75 c 1,27,28
 310.624023438 95.85546875 310.624023438 95.85546875 298.75 122.5 c 1,29,30
 261.505859375 81.869140625 261.505859375 81.869140625 239.25 64.75 c 0,31,32
 145.756835938 0.34765625 145.756835938 0.34765625 -32 0 c 1,33,-1
 -32 229.25 l 1,0,1
344.25 -194.25 m 0,34,35
 375.119140625 -186.900390625 375.119140625 -186.900390625 409.9375 -246.493164062 c 0,36,37
 417.513671875 -259.329101562 417.513671875 -259.329101562 419.5 -262.5 c 0,38,39
 459.1328125 -315.34375 459.1328125 -315.34375 460.86328125 -318.67578125 c 0,40,41
 466.932617188 -331.619140625 466.932617188 -331.619140625 468.5 -341.25 c 0,42,43
 468.94921875 -357.879882812 468.94921875 -357.879882812 449.25 -385 c 0,44,45
 440.5 -398.125 440.5 -398.125 423 -423.5 c 128,-1,46
 405.5 -448.875 405.5 -448.875 396.75 -462 c 0,47,48
 372.859375 -491.28125 372.859375 -491.28125 358.25 -495.25 c 0,49,50
 327.380859375 -502.599609375 327.380859375 -502.599609375 292.5625 -443.006835938 c 0,51,52
 284.986328125 -430.170898438 284.986328125 -430.170898438 283 -427 c 0,53,54
 243.3671875 -374.15625 243.3671875 -374.15625 241.63671875 -370.82421875 c 0,55,56
 235.567382812 -357.880859375 235.567382812 -357.880859375 234 -348.25 c 0,57,58
 233.55078125 -331.620117188 233.55078125 -331.620117188 253.25 -304.5 c 0,59,60
 262 -291.375 262 -291.375 279.5 -266 c 0,61,62
 297.397460938 -239.991210938 297.397460938 -239.991210938 305.75 -227.5 c 0,63,64
 329.640625 -198.21875 329.640625 -198.21875 344.25 -194.25 c 0,34,35
EndSplineSet
EndChar

StartChar: afii57417
Encoding: 1577 1577 355
AltUni2: 00fe93.ffffffff.0
Width: 540
VWidth: 1750
GlyphClass: 2
Flags: HW
AnchorPoint: "GposMark2BaseAnchorClassErabAbove_01_02" 197.392 1366.38 basechar 0
AnchorPoint: "GposMark2BaseAnchorClassErabBelow_01_02" 197.392 -152.576 basechar 0
LayerCount: 2
Fore
SplineSet
42.7578125 1209.25 m 0,0,1
 71.2578125 1216.375 71.2578125 1216.375 102.790039062 1163.94628906 c 0,2,3
 110.208007812 1151.8125 110.208007812 1151.8125 112.7578125 1148 c 0,4,5
 116.46875 1142.43359375 116.46875 1142.43359375 125.822265625 1130.29003906 c 0,6,7
 153.283203125 1093.18457031 153.283203125 1093.18457031 156.5078125 1074.5 c 1,8,9
 156.857421875 1061.375 156.857421875 1061.375 140.7578125 1034.25 c 0,10,11
 132.8828125 1022.875 132.8828125 1022.875 117.1328125 999.25 c 0,12,13
 100.989257812 975.096679688 100.989257812 975.096679688 93.5078125 964.25 c 0,14,15
 72.19921875 935.837890625 72.19921875 935.837890625 56.7578125 932.75 c 0,16,17
 28.2578125 925.625 28.2578125 925.625 -3.2744140625 978.053710938 c 0,18,19
 -10.6923828125 990.1875 -10.6923828125 990.1875 -13.2421875 994 c 0,20,21
 -16.953125 999.56640625 -16.953125 999.56640625 -26.306640625 1011.70996094 c 0,22,23
 -53.767578125 1048.81542969 -53.767578125 1048.81542969 -56.9921875 1067.5 c 1,24,25
 -57.341796875 1080.625 -57.341796875 1080.625 -41.2421875 1107.75 c 0,26,27
 -33.3671875 1119.125 -33.3671875 1119.125 -17.6171875 1142.75 c 0,28,29
 -1.4736328125 1166.90332031 -1.4736328125 1166.90332031 6.0078125 1177.75 c 0,30,31
 28.8486328125 1205.51953125 28.8486328125 1205.51953125 42.7578125 1209.25 c 0,0,1
294.7578125 1209.25 m 0,32,33
 323.2578125 1216.375 323.2578125 1216.375 354.790039062 1163.94628906 c 0,34,35
 362.208007812 1151.8125 362.208007812 1151.8125 364.7578125 1148 c 0,36,37
 368.46875 1142.43359375 368.46875 1142.43359375 377.822265625 1130.29003906 c 0,38,39
 405.283203125 1093.18457031 405.283203125 1093.18457031 408.5078125 1074.5 c 1,40,41
 408.857421875 1061.375 408.857421875 1061.375 392.7578125 1034.25 c 0,42,43
 384.8828125 1022.875 384.8828125 1022.875 369.1328125 999.25 c 0,44,45
 352.989257812 975.096679688 352.989257812 975.096679688 345.5078125 964.25 c 0,46,47
 322.666992188 936.48046875 322.666992188 936.48046875 308.7578125 932.75 c 0,48,49
 280.2578125 925.625 280.2578125 925.625 248.725585938 978.053710938 c 0,50,51
 241.307617188 990.1875 241.307617188 990.1875 238.7578125 994 c 0,52,53
 235.046875 999.56640625 235.046875 999.56640625 225.693359375 1011.70996094 c 0,54,55
 198.232421875 1048.81542969 198.232421875 1048.81542969 195.0078125 1067.5 c 1,56,57
 194.658203125 1080.625 194.658203125 1080.625 210.7578125 1107.75 c 0,58,59
 218.6328125 1119.125 218.6328125 1119.125 234.3828125 1142.75 c 0,60,61
 250.526367188 1166.90332031 250.526367188 1166.90332031 258.0078125 1177.75 c 0,62,63
 280.848632812 1205.51953125 280.848632812 1205.51953125 294.7578125 1209.25 c 0,32,33
132.0078125 689.5 m 0,64,65
 159.776367188 694.830078125 159.776367188 694.830078125 205.5078125 670.25 c 0,66,67
 291.436523438 627.478515625 291.436523438 627.478515625 352.5078125 551.25 c 1,68,69
 459.552734375 411.346679688 459.552734375 411.346679688 429.5078125 224 c 0,70,71
 412.72265625 121.440429688 412.72265625 121.440429688 354.2578125 66.5 c 1,72,73
 309.232421875 27.193359375 309.232421875 27.193359375 223.0078125 7 c 0,74,75
 177.728515625 -2.576171875 177.728515625 -2.576171875 125.0078125 0 c 0,76,77
 12.822265625 8.013671875 12.822265625 8.013671875 -29.61328125 113.681640625 c 0,78,79
 -40.990234375 143.336914062 -40.990234375 143.336914062 -44.7421875 175 c 0,80,81
 -64.7685546875 345.227539062 -64.7685546875 345.227539062 34.87890625 520.905273438 c 0,82,83
 37.5634765625 525.587890625 37.5634765625 525.587890625 39.2578125 528.5 c 0,84,85
 57.2802734375 558.151367188 57.2802734375 558.151367188 95.2578125 645.75 c 0,86,87
 111.9921875 684.969726562 111.9921875 684.969726562 132.0078125 689.5 c 0,64,65
114.5078125 441 m 0,88,89
 105.7578125 437.5 105.7578125 437.5 98.9677734375 401.8046875 c 2,90,-1
 98.7578125 400.75 l 1,91,92
 71.3212890625 306.186523438 71.3212890625 306.186523438 98.7578125 260.75 c 0,93,94
 114.002929688 237.99609375 114.002929688 237.99609375 156.5078125 234.5 c 0,95,96
 217.733398438 231.858398438 217.733398438 231.858398438 251.0078125 245 c 0,97,98
 265.19140625 250.80078125 265.19140625 250.80078125 279.0078125 264.25 c 0,99,100
 339.478515625 329.760742188 339.478515625 329.760742188 216.133789062 400.061523438 c 0,101,102
 195.47265625 411.61328125 195.47265625 411.61328125 175.7578125 420 c 0,103,104
 164.422851562 425.453125 164.422851562 425.453125 132.0078125 437.5 c 0,105,106
 117.512695312 441.416015625 117.512695312 441.416015625 114.5078125 441 c 0,88,89
EndSplineSet
AlternateSubs2: "gsub_alternate_dfl_aalt_arab_FAR_Lookup_01_Subtable_01" uniFE94 afii57417
Substitution2: "gsub_single_rtl_fina_arab_FAR_Lookup_01_Subtable_01" uniFE94
EndChar

